<svg width="13" height="16" viewBox="0 0 13 16" fill="none" xmlns="http://www.w3.org/2000/svg">
<g id="Icon">
<path id="Subtract" fill-rule="evenodd" clip-rule="evenodd" d="M1.25104 15.9167C-1.56267 13.907 -0.0348168 0.803873 10.014 0C16.8464 1.36658 7.92268 17.0421 1.25104 15.9167ZM9.66251 1.44706C9.92874 1.45596 10.1374 1.679 10.1285 1.94523C10.1134 2.39569 9.99272 3.0101 9.74961 3.49249C9.62868 3.73245 9.45516 3.98463 9.2067 4.15037C8.93411 4.33222 8.5988 4.38937 8.24857 4.26075C7.90924 4.13613 7.7024 4.24562 7.57725 4.41226C7.42818 4.61074 7.37518 4.92644 7.48745 5.20711C7.75758 5.88244 7.76459 6.49075 7.3873 6.92441C7.04343 7.31967 6.50903 7.40739 6.10869 7.40739C5.77885 7.40739 5.45797 7.46922 5.27062 7.61416C5.19012 7.67643 5.13053 7.75638 5.09952 7.87632C5.06647 8.00415 5.05847 8.20831 5.14301 8.52224C5.35439 9.30716 5.34785 9.98453 4.94138 10.4793C4.55643 10.9479 3.92337 11.1048 3.30187 11.1774L3.29986 11.1776C3.29283 11.1782 3.28422 11.1789 3.26411 11.2076C3.23369 11.251 3.19537 11.3409 3.17748 11.4901C3.14165 11.789 3.20403 12.1938 3.36632 12.5483C3.51927 12.8823 3.47561 13.2115 3.30027 13.4793C3.14745 13.7128 2.91074 13.8773 2.70289 13.9943C2.40668 14.1609 2.01698 14.3065 1.73047 14.4136C1.62721 14.4521 1.53735 14.4857 1.4701 14.5135C1.22385 14.6151 0.941871 14.4978 0.84027 14.2516C0.73867 14.0053 0.855926 13.7233 1.10217 13.6217C1.22772 13.5699 1.35583 13.5223 1.48328 13.4748L1.48331 13.4748L1.48332 13.4748L1.48333 13.4748C1.63948 13.4167 1.79466 13.3589 1.943 13.2944C1.95208 13.284 1.96096 13.2736 1.96961 13.2632C2.16068 13.032 2.19784 12.8354 2.11677 12.6584C1.89738 12.1792 1.80094 11.6186 1.85731 11.1484C1.91056 10.7042 2.1381 10.166 2.72177 10.0978C3.32434 10.0273 3.64974 9.89376 3.80707 9.70224C3.94826 9.53037 4.03526 9.20368 3.84588 8.50043C3.73533 8.0899 3.72063 7.73162 3.80022 7.42377C3.88134 7.10999 4.05408 6.87388 4.27204 6.70526C4.68819 6.38332 5.24772 6.32203 5.62659 6.32203C5.95258 6.32203 6.17007 6.24213 6.2684 6.12911C6.34167 6.04489 6.44109 5.82789 6.22165 5.2793C6.00194 4.73002 6.09088 4.10261 6.42023 3.66408C6.76752 3.20167 7.366 2.97319 8.05746 3.22714C8.25973 3.30142 8.52843 3.22407 8.80124 2.94313C8.90067 2.84074 8.98682 2.72402 9.05637 2.60296C9.12042 2.36502 9.15755 2.11634 9.16434 1.913C9.17324 1.64677 9.39628 1.43816 9.66251 1.44706Z" fill="#FFE993"/>
<path id="Vector 674" d="M1.04543 15.7559C0.0807822 4.63031 6.83353 0.964648 10.3702 0.0803873L10.0487 0L8.84289 0.160775C5.54702 0.723486 3.30044 2.817 1.84919 5.22518C-0.401597 9.24454 -0.482571 14.1482 1.04543 15.7559Z" fill="#FDF3BD" fill-opacity="0.63"/>
<path id="Vector 677" d="M1.76855 15.9987C8.44069 13.4263 11.4143 7.71881 12.1385 1.60938C12.3797 2.25247 12.5432 3.11647 12.46 3.94061C11.6562 9.80888 5.8683 16.1595 1.76855 15.9987Z" fill="#C28D32" fill-opacity="0.54"/>
</g>
</svg>
