<svg width="16" height="16" viewBox="0 0 16 16" fill="none" xmlns="http://www.w3.org/2000/svg">
<g id="users-03">
<path id="Icon" d="M14.1179 8.34063V4.43205C14.1179 3.27995 14.1179 2.70389 13.8761 2.26384C13.6634 1.87677 13.324 1.56207 12.9066 1.36484C12.4321 1.14062 11.8108 1.14062 10.5684 1.14062H5.83567C4.59321 1.14062 3.97199 1.14062 3.49743 1.36484C3.08 1.56207 2.74062 1.87677 2.52793 2.26384C2.28613 2.70389 2.28613 3.27995 2.28613 4.43205V11.5635C2.28613 12.7156 2.28613 13.2916 2.52793 13.7317C2.74062 14.1188 3.08 14.4335 3.49743 14.6307C3.97199 14.8549 4.59321 14.8549 5.83567 14.8549H8.20202M9.681 7.31205H5.24408M6.72305 10.0549H5.24408M11.16 4.5692H5.24408M10.0507 12.7978L11.5297 14.1692L14.8574 11.0835" stroke="#E4EBFF" stroke-linecap="round" stroke-linejoin="round"/>
</g>
</svg>
