<svg width="125" height="44" viewBox="0 0 125 44" fill="none" xmlns="http://www.w3.org/2000/svg">
<mask id="path-1-inside-1_4125_6212" fill="white">
<path d="M0 22C0 9.84974 9.84974 0 22 0H103C115.15 0 125 9.84974 125 22C125 34.1503 115.15 44 103 44H22C9.84974 44 0 34.1503 0 22Z"/>
</mask>
<path d="M0 22C0 9.84974 9.84974 0 22 0H103C115.15 0 125 9.84974 125 22C125 34.1503 115.15 44 103 44H22C9.84974 44 0 34.1503 0 22Z" fill="#718ACA"/>
<path d="M25.76 26.096V18.704H27.824V26.096H25.76ZM22.992 23.376V21.424H30.608V23.376H22.992ZM30.4191 28L35.4111 16.8H37.9711L42.9791 28H40.2591L36.1631 18.112H37.1871L33.0751 28H30.4191ZM32.9151 25.6L33.6031 23.632H39.3631L40.0671 25.6H32.9151ZM46.943 28.128C46.1323 28.128 45.4017 27.9467 44.751 27.584C44.1003 27.2107 43.583 26.6933 43.199 26.032C42.8257 25.3707 42.639 24.592 42.639 23.696C42.639 22.7893 42.8257 22.0053 43.199 21.344C43.583 20.6827 44.1003 20.1707 44.751 19.808C45.4017 19.4453 46.1323 19.264 46.943 19.264C47.6683 19.264 48.303 19.424 48.847 19.744C49.391 20.064 49.8123 20.5493 50.111 21.2C50.4097 21.8507 50.559 22.6827 50.559 23.696C50.559 24.6987 50.415 25.5307 50.127 26.192C49.839 26.8427 49.423 27.328 48.879 27.648C48.3457 27.968 47.7003 28.128 46.943 28.128ZM47.375 26.08C47.7803 26.08 48.1483 25.984 48.479 25.792C48.8097 25.6 49.071 25.328 49.263 24.976C49.4657 24.6133 49.567 24.1867 49.567 23.696C49.567 23.1947 49.4657 22.768 49.263 22.416C49.071 22.064 48.8097 21.792 48.479 21.6C48.1483 21.408 47.7803 21.312 47.375 21.312C46.959 21.312 46.5857 21.408 46.255 21.6C45.9243 21.792 45.6577 22.064 45.455 22.416C45.263 22.768 45.167 23.1947 45.167 23.696C45.167 24.1867 45.263 24.6133 45.455 24.976C45.6577 25.328 45.9243 25.6 46.255 25.792C46.5857 25.984 46.959 26.08 47.375 26.08ZM49.631 28V26.24L49.679 23.68L49.519 21.136V16.128H52.015V28H49.631ZM57.3811 28.128C56.5705 28.128 55.8398 27.9467 55.1891 27.584C54.5385 27.2107 54.0211 26.6933 53.6371 26.032C53.2638 25.3707 53.0771 24.592 53.0771 23.696C53.0771 22.7893 53.2638 22.0053 53.6371 21.344C54.0211 20.6827 54.5385 20.1707 55.1891 19.808C55.8398 19.4453 56.5705 19.264 57.3811 19.264C58.1065 19.264 58.7411 19.424 59.2851 19.744C59.8291 20.064 60.2505 20.5493 60.5491 21.2C60.8478 21.8507 60.9971 22.6827 60.9971 23.696C60.9971 24.6987 60.8531 25.5307 60.5651 26.192C60.2771 26.8427 59.8611 27.328 59.3171 27.648C58.7838 27.968 58.1385 28.128 57.3811 28.128ZM57.8131 26.08C58.2185 26.08 58.5865 25.984 58.9171 25.792C59.2478 25.6 59.5091 25.328 59.7011 24.976C59.9038 24.6133 60.0051 24.1867 60.0051 23.696C60.0051 23.1947 59.9038 22.768 59.7011 22.416C59.5091 22.064 59.2478 21.792 58.9171 21.6C58.5865 21.408 58.2185 21.312 57.8131 21.312C57.3971 21.312 57.0238 21.408 56.6931 21.6C56.3625 21.792 56.0958 22.064 55.8931 22.416C55.7011 22.768 55.6051 23.1947 55.6051 23.696C55.6051 24.1867 55.7011 24.6133 55.8931 24.976C56.0958 25.328 56.3625 25.6 56.6931 25.792C57.0238 25.984 57.3971 26.08 57.8131 26.08ZM60.0691 28V26.24L60.1171 23.68L59.9571 21.136V16.128H62.4531V28H60.0691ZM68.1905 28V16.8H73.0385C74.0412 16.8 74.9052 16.9653 75.6305 17.296C76.3558 17.616 76.9158 18.08 77.3105 18.688C77.7052 19.296 77.9025 20.0213 77.9025 20.864C77.9025 21.696 77.7052 22.416 77.3105 23.024C76.9158 23.632 76.3558 24.1013 75.6305 24.432C74.9052 24.752 74.0412 24.912 73.0385 24.912H69.6305L70.7825 23.744V28H68.1905ZM70.7825 24.032L69.6305 22.8H72.8945C73.6945 22.8 74.2918 22.6293 74.6865 22.288C75.0812 21.9467 75.2785 21.472 75.2785 20.864C75.2785 20.2453 75.0812 19.7653 74.6865 19.424C74.2918 19.0827 73.6945 18.912 72.8945 18.912H69.6305L70.7825 17.68V24.032ZM83.0174 28.128C82.1 28.128 81.284 27.936 80.5694 27.552C79.8654 27.168 79.3054 26.6453 78.8894 25.984C78.484 25.312 78.2814 24.5493 78.2814 23.696C78.2814 22.832 78.484 22.0693 78.8894 21.408C79.3054 20.736 79.8654 20.2133 80.5694 19.84C81.284 19.456 82.1 19.264 83.0174 19.264C83.924 19.264 84.7347 19.456 85.4494 19.84C86.164 20.2133 86.724 20.7307 87.1294 21.392C87.5347 22.0533 87.7374 22.8213 87.7374 23.696C87.7374 24.5493 87.5347 25.312 87.1294 25.984C86.724 26.6453 86.164 27.168 85.4494 27.552C84.7347 27.936 83.924 28.128 83.0174 28.128ZM83.0174 26.08C83.4334 26.08 83.8067 25.984 84.1374 25.792C84.468 25.6 84.7294 25.328 84.9214 24.976C85.1134 24.6133 85.2094 24.1867 85.2094 23.696C85.2094 23.1947 85.1134 22.768 84.9214 22.416C84.7294 22.064 84.468 21.792 84.1374 21.6C83.8067 21.408 83.4334 21.312 83.0174 21.312C82.6014 21.312 82.228 21.408 81.8974 21.6C81.5667 21.792 81.3 22.064 81.0974 22.416C80.9054 22.768 80.8094 23.1947 80.8094 23.696C80.8094 24.1867 80.9054 24.6133 81.0974 24.976C81.3 25.328 81.5667 25.6 81.8974 25.792C82.228 25.984 82.6014 26.08 83.0174 26.08ZM91.6617 28.128C90.9257 28.128 90.2164 28.0427 89.5337 27.872C88.8617 27.6907 88.3284 27.4667 87.9337 27.2L88.7657 25.408C89.1604 25.6533 89.6244 25.856 90.1577 26.016C90.7017 26.1653 91.2351 26.24 91.7577 26.24C92.3337 26.24 92.7391 26.1707 92.9737 26.032C93.2191 25.8933 93.3417 25.7013 93.3417 25.456C93.3417 25.2533 93.2457 25.104 93.0537 25.008C92.8724 24.9013 92.6271 24.8213 92.3177 24.768C92.0084 24.7147 91.6671 24.6613 91.2937 24.608C90.9311 24.5547 90.5631 24.4853 90.1897 24.4C89.8164 24.304 89.4751 24.1653 89.1657 23.984C88.8564 23.8027 88.6057 23.5573 88.4137 23.248C88.2324 22.9387 88.1417 22.5387 88.1417 22.048C88.1417 21.504 88.2964 21.024 88.6057 20.608C88.9257 20.192 89.3844 19.8667 89.9817 19.632C90.5791 19.3867 91.2937 19.264 92.1257 19.264C92.7124 19.264 93.3097 19.328 93.9177 19.456C94.5257 19.584 95.0324 19.7707 95.4377 20.016L94.6057 21.792C94.1897 21.5467 93.7684 21.3813 93.3417 21.296C92.9257 21.2 92.5204 21.152 92.1257 21.152C91.5711 21.152 91.1657 21.2267 90.9097 21.376C90.6537 21.5253 90.5257 21.7173 90.5257 21.952C90.5257 22.1653 90.6164 22.3253 90.7977 22.432C90.9897 22.5387 91.2404 22.624 91.5497 22.688C91.8591 22.752 92.1951 22.8107 92.5577 22.864C92.9311 22.9067 93.3044 22.976 93.6777 23.072C94.0511 23.168 94.3871 23.3067 94.6857 23.488C94.9951 23.6587 95.2457 23.8987 95.4377 24.208C95.6297 24.5067 95.7257 24.9013 95.7257 25.392C95.7257 25.9253 95.5657 26.4 95.2457 26.816C94.9257 27.2213 94.4617 27.5413 93.8537 27.776C93.2564 28.0107 92.5257 28.128 91.6617 28.128ZM100.146 28.128C99.1324 28.128 98.3431 27.872 97.7777 27.36C97.2124 26.8373 96.9297 26.064 96.9297 25.04V17.488H99.4257V25.008C99.4257 25.3707 99.5217 25.6533 99.7137 25.856C99.9057 26.048 100.167 26.144 100.498 26.144C100.892 26.144 101.228 26.0373 101.506 25.824L102.178 27.584C101.922 27.7653 101.612 27.904 101.25 28C100.898 28.0853 100.53 28.128 100.146 28.128ZM95.6017 21.504V19.584H101.57V21.504H95.6017Z" fill="white"/>
<path d="M0 0H125H0ZM127 23.5C127 36.4787 116.479 47 103.5 47H25C11.1929 47 0 35.8071 0 22C0 32.4934 9.84974 41 22 41H103C114.046 41 123 32.4934 123 22L127 23.5ZM0 44V0V44ZM103.5 0C116.479 0 127 10.5213 127 23.5C127 36.4787 116.479 47 103.5 47L103 41C114.046 41 123 32.4934 123 22C123 9.84974 114.046 0 103 0H103.5Z" fill="#475780" mask="url(#path-1-inside-1_4125_6212)"/>
</svg>
