<svg width="170" height="170" viewBox="0 0 170 170" fill="none" xmlns="http://www.w3.org/2000/svg">
<g filter="url(#filter0_d_3695_44389)">
<rect width="50" height="50" rx="25" transform="matrix(-1 0 0 1 110 30)" fill="white"/>
<path fill-rule="evenodd" clip-rule="evenodd" d="M92 55.5925H80.83L85.71 60.4725C86.1 60.8625 86.1 61.5025 85.71 61.8925C85.32 62.2825 84.69 62.2825 84.3 61.8925L77.71 55.3025C77.32 54.9125 77.32 54.2825 77.71 53.8925L84.29 47.2925C84.4768 47.1052 84.7305 47 84.995 47C85.2595 47 85.5132 47.1052 85.7 47.2925C86.09 47.6825 86.09 48.3125 85.7 48.7025L80.83 53.5925H92C92.55 53.5925 93 54.0425 93 54.5925C93 55.1425 92.55 55.5925 92 55.5925Z" fill="#718ACA"/>
</g>
<defs>
<filter id="filter0_d_3695_44389" x="0" y="0" width="170" height="170" filterUnits="userSpaceOnUse" color-interpolation-filters="sRGB">
<feFlood flood-opacity="0" result="BackgroundImageFix"/>
<feColorMatrix in="SourceAlpha" type="matrix" values="0 0 0 0 0 0 0 0 0 0 0 0 0 0 0 0 0 0 127 0" result="hardAlpha"/>
<feOffset dy="30"/>
<feGaussianBlur stdDeviation="30"/>
<feColorMatrix type="matrix" values="0 0 0 0 0.14902 0 0 0 0 0.2 0 0 0 0 0.301961 0 0 0 0.03 0"/>
<feBlend mode="normal" in2="BackgroundImageFix" result="effect1_dropShadow_3695_44389"/>
<feBlend mode="normal" in="SourceGraphic" in2="effect1_dropShadow_3695_44389" result="shape"/>
</filter>
</defs>
</svg>
