<svg width="150" height="150" viewBox="0 0 150 150" fill="none" xmlns="http://www.w3.org/2000/svg">
<circle cx="75" cy="75" r="71" fill="#198949" stroke="#00D45F" stroke-width="8"/>
<path d="M49.4147 115.6C34.9874 105.297 42.8215 38.1212 94.3471 34C129.38 41.0061 83.6237 121.37 49.4147 115.6Z" fill="#FFE993"/>
<path d="M48.3669 114.776C43.4207 57.7382 78.0455 38.9454 96.18 34.4121L94.5313 34L88.3485 34.8242C71.4489 37.7091 59.9295 48.4419 52.4882 60.7879C40.9473 81.3939 40.5321 106.533 48.3669 114.776Z" fill="#FDF3BD" fill-opacity="0.63"/>
<path d="M52.0664 116.014C86.2779 102.826 101.525 73.5653 105.238 42.2441C106.475 45.5411 107.314 49.9705 106.887 54.1956C102.765 84.2805 73.0879 116.838 52.0664 116.014Z" fill="#C28D32" fill-opacity="0.54"/>
<path d="M49.5947 106.125C52.8568 104.779 59.665 102.974 58.0123 99.365C56.0134 94.9999 56.3337 89.2385 59.6433 88.8517C65.9059 88.1198 69.0216 85.908 66.9829 78.3384C64.9441 70.7688 70.6527 69.5072 74.3224 69.5072C77.9922 69.5072 81.5689 67.8 79.0958 61.6181C77.3149 57.1665 80.604 51.4915 86.1473 53.5269C90.2249 55.0242 92.3262 47.9596 92.4621 43.8945" stroke="#C29343" stroke-opacity="0.6" stroke-width="4.50832" stroke-linecap="round"/>
<path d="M49.8281 106.533C53.0902 105.187 57.1894 101.731 55.5367 98.1223C53.5378 93.7572 53.8581 87.9958 57.1677 87.609C63.4303 86.8771 66.546 84.6653 64.5073 77.0957C62.4685 69.5261 68.1771 68.2645 71.8469 68.2645C75.5166 68.2645 79.0933 66.5573 76.6202 60.3754C74.8393 55.9238 78.1284 50.2488 83.6717 52.2842C87.7493 53.7815 92.1474 48.3678 92.2833 44.3027" stroke="#C29343" stroke-opacity="0.92" stroke-width="3.38124" stroke-linecap="round"/>
</svg>
