<svg width="129" height="53" viewBox="0 0 129 53" fill="none" xmlns="http://www.w3.org/2000/svg">
<mask id="path-1-inside-1_3693_98992" fill="white">
<path d="M0 26.5C0 12.1406 11.6406 0.5 26 0.5H103C117.359 0.5 129 12.1406 129 26.5V26.5C129 40.8594 117.359 52.5 103 52.5H26C11.6406 52.5 0 40.8594 0 26.5V26.5Z"/>
</mask>
<path d="M0 26.5C0 12.1406 11.6406 0.5 26 0.5H103C117.359 0.5 129 12.1406 129 26.5V26.5C129 40.8594 117.359 52.5 103 52.5H26C11.6406 52.5 0 40.8594 0 26.5V26.5Z" fill="#718ACA"/>
<path d="M43 28.5H37C36.7348 28.5 36.4804 28.3946 36.2929 28.2071C36.1054 28.0196 36 27.7652 36 27.5C36 27.2348 36.1054 26.9804 36.2929 26.7929C36.4804 26.6054 36.7348 26.5 37 26.5H43C43.2652 26.5 43.5196 26.6054 43.7071 26.7929C43.8946 26.9804 44 27.2348 44 27.5C44 27.7652 43.8946 28.0196 43.7071 28.2071C43.5196 28.3946 43.2652 28.5 43 28.5ZM40 31.5C39.7348 31.5 39.4804 31.3946 39.2929 31.2071C39.1054 31.0196 39 30.7652 39 30.5V24.5C39 24.2348 39.1054 23.9804 39.2929 23.7929C39.4804 23.6054 39.7348 23.5 40 23.5C40.2652 23.5 40.5196 23.6054 40.7071 23.7929C40.8946 23.9804 41 24.2348 41 24.5V30.5C41 30.7652 40.8946 31.0196 40.7071 31.2071C40.5196 31.3946 40.2652 31.5 40 31.5ZM31 20.5C32.654 20.5 34 21.846 34 23.5C34 25.154 32.654 26.5 31 26.5C29.346 26.5 28 25.154 28 23.5C28 21.846 29.346 20.5 31 20.5ZM31 18.5C28.236 18.5 26 20.738 26 23.5C26 26.262 28.236 28.5 31 28.5C33.764 28.5 36 26.262 36 23.5C36 20.738 33.764 18.5 31 18.5ZM31 31.5C33.021 31.5 34.301 32.271 34.783 32.945C34.1 33.205 32.814 33.5 31 33.5C29.016 33.5 27.794 33.195 27.182 32.958C27.641 32.243 28.959 31.5 31 31.5ZM31 29.5C27.25 29.5 25 31.5 25 33.5C25 34.5 27.25 35.5 31 35.5C34.518 35.5 37 34.5 37 33.5C37 31.5 34.646 29.5 31 29.5Z" fill="white"/>
<path d="M57.728 26.34H63.104V28.42H57.728V26.34ZM57.92 32.5H55.328V21.3H63.792V23.38H57.92V32.5ZM68.6236 32.628C67.7063 32.628 66.8903 32.436 66.1756 32.052C65.4716 31.668 64.9116 31.1453 64.4956 30.484C64.0903 29.812 63.8876 29.0493 63.8876 28.196C63.8876 27.332 64.0903 26.5693 64.4956 25.908C64.9116 25.236 65.4716 24.7133 66.1756 24.34C66.8903 23.956 67.7063 23.764 68.6236 23.764C69.5303 23.764 70.341 23.956 71.0556 24.34C71.7703 24.7133 72.3303 25.2307 72.7356 25.892C73.141 26.5533 73.3436 27.3213 73.3436 28.196C73.3436 29.0493 73.141 29.812 72.7356 30.484C72.3303 31.1453 71.7703 31.668 71.0556 32.052C70.341 32.436 69.5303 32.628 68.6236 32.628ZM68.6236 30.58C69.0396 30.58 69.413 30.484 69.7436 30.292C70.0743 30.1 70.3356 29.828 70.5276 29.476C70.7196 29.1133 70.8156 28.6867 70.8156 28.196C70.8156 27.6947 70.7196 27.268 70.5276 26.916C70.3356 26.564 70.0743 26.292 69.7436 26.1C69.413 25.908 69.0396 25.812 68.6236 25.812C68.2076 25.812 67.8343 25.908 67.5036 26.1C67.173 26.292 66.9063 26.564 66.7036 26.916C66.5116 27.268 66.4156 27.6947 66.4156 28.196C66.4156 28.6867 66.5116 29.1133 66.7036 29.476C66.9063 29.828 67.173 30.1 67.5036 30.292C67.8343 30.484 68.2076 30.58 68.6236 30.58ZM74.372 32.5V20.628H76.868V32.5H74.372ZM78.5445 32.5V20.628H81.0405V32.5H78.5445ZM86.813 32.628C85.8957 32.628 85.0797 32.436 84.365 32.052C83.661 31.668 83.101 31.1453 82.685 30.484C82.2797 29.812 82.077 29.0493 82.077 28.196C82.077 27.332 82.2797 26.5693 82.685 25.908C83.101 25.236 83.661 24.7133 84.365 24.34C85.0797 23.956 85.8957 23.764 86.813 23.764C87.7197 23.764 88.5303 23.956 89.245 24.34C89.9597 24.7133 90.5197 25.2307 90.925 25.892C91.3303 26.5533 91.533 27.3213 91.533 28.196C91.533 29.0493 91.3303 29.812 90.925 30.484C90.5197 31.1453 89.9597 31.668 89.245 32.052C88.5303 32.436 87.7197 32.628 86.813 32.628ZM86.813 30.58C87.229 30.58 87.6023 30.484 87.933 30.292C88.2637 30.1 88.525 29.828 88.717 29.476C88.909 29.1133 89.005 28.6867 89.005 28.196C89.005 27.6947 88.909 27.268 88.717 26.916C88.525 26.564 88.2637 26.292 87.933 26.1C87.6023 25.908 87.229 25.812 86.813 25.812C86.397 25.812 86.0237 25.908 85.693 26.1C85.3623 26.292 85.0957 26.564 84.893 26.916C84.701 27.268 84.605 27.6947 84.605 28.196C84.605 28.6867 84.701 29.1133 84.893 29.476C85.0957 29.828 85.3623 30.1 85.693 30.292C86.0237 30.484 86.397 30.58 86.813 30.58ZM94.295 32.5L91.191 23.892H93.543L96.119 31.3H94.999L97.687 23.892H99.799L102.407 31.3H101.287L103.943 23.892H106.151L103.031 32.5H100.615L98.327 26.148H99.063L96.695 32.5H94.295Z" fill="white"/>
<path d="M0 0.5H129H0ZM131 28C131 43.1878 118.688 55.5 103.5 55.5H29C12.9837 55.5 0 42.5163 0 26.5C0 39.2025 11.6406 49.5 26 49.5H103C116.255 49.5 127 39.2025 127 26.5L131 28ZM0 52.5V0.5V52.5ZM103.5 0.5C118.688 0.5 131 12.8122 131 28C131 43.1878 118.688 55.5 103.5 55.5L103 49.5C116.255 49.5 127 39.2025 127 26.5C127 12.1406 116.255 0.5 103 0.5H103.5Z" fill="#475780" mask="url(#path-1-inside-1_3693_98992)"/>
</svg>
