<svg width="135" height="45" viewBox="0 0 135 45" fill="none" xmlns="http://www.w3.org/2000/svg">
<mask id="path-1-inside-1_4622_1158" fill="white">
<path d="M0.5 22.9805C0.5 10.8302 10.3497 0.980469 22.5 0.980469H112.5C124.65 0.980469 134.5 10.8302 134.5 22.9805C134.5 35.1307 124.65 44.9805 112.5 44.9805H22.5C10.3497 44.9805 0.5 35.1307 0.5 22.9805Z"/>
</mask>
<path d="M0.5 22.9805C0.5 10.8302 10.3497 0.980469 22.5 0.980469H112.5C124.65 0.980469 134.5 10.8302 134.5 22.9805C134.5 35.1307 124.65 44.9805 112.5 44.9805H22.5C10.3497 44.9805 0.5 35.1307 0.5 22.9805Z" fill="#718ACA"/>
<path d="M29.236 29.1725C28.3507 29.1725 27.5347 29.0338 26.788 28.7565C26.052 28.4685 25.4067 28.0631 24.852 27.5405C24.308 27.0178 23.8813 26.4045 23.572 25.7005C23.2733 24.9965 23.124 24.2231 23.124 23.3805C23.124 22.5378 23.2733 21.7645 23.572 21.0605C23.8813 20.3565 24.3133 19.7431 24.868 19.2205C25.4227 18.6978 26.0733 18.2978 26.82 18.0205C27.5667 17.7325 28.388 17.5885 29.284 17.5885C30.276 17.5885 31.1667 17.7538 31.956 18.0845C32.756 18.4151 33.428 18.8951 33.972 19.5245L32.308 21.0605C31.9027 20.6338 31.46 20.3191 30.98 20.1165C30.5 19.9031 29.9773 19.7965 29.412 19.7965C28.868 19.7965 28.372 19.8818 27.924 20.0525C27.476 20.2231 27.0867 20.4685 26.756 20.7885C26.436 21.1085 26.1853 21.4871 26.004 21.9245C25.8333 22.3618 25.748 22.8471 25.748 23.3805C25.748 23.9031 25.8333 24.3831 26.004 24.8205C26.1853 25.2578 26.436 25.6418 26.756 25.9725C27.0867 26.2925 27.4707 26.5378 27.908 26.7085C28.356 26.8791 28.8467 26.9645 29.38 26.9645C29.892 26.9645 30.388 26.8845 30.868 26.7245C31.3587 26.5538 31.8333 26.2711 32.292 25.8765L33.764 27.7485C33.156 28.2071 32.4467 28.5591 31.636 28.8045C30.836 29.0498 30.036 29.1725 29.236 29.1725ZM31.396 27.4125V23.2045H33.764V27.7485L31.396 27.4125ZM39.6277 29.1085C38.6464 29.1085 37.7824 28.9165 37.0357 28.5325C36.2997 28.1485 35.7291 27.6258 35.3237 26.9645C34.9184 26.2925 34.7157 25.5298 34.7157 24.6765C34.7157 23.8125 34.9131 23.0498 35.3077 22.3885C35.7131 21.7165 36.2624 21.1938 36.9557 20.8205C37.6491 20.4365 38.4331 20.2445 39.3077 20.2445C40.1504 20.2445 40.9078 20.4258 41.5798 20.7885C42.2624 21.1405 42.8011 21.6525 43.1958 22.3245C43.5904 22.9858 43.7878 23.7805 43.7878 24.7085C43.7878 24.8045 43.7824 24.9165 43.7718 25.0445C43.7611 25.1618 43.7504 25.2738 43.7397 25.3805H36.7477V23.9245H42.4277L41.4678 24.3565C41.4678 23.9085 41.3771 23.5191 41.1957 23.1885C41.0144 22.8578 40.7637 22.6018 40.4437 22.4205C40.1237 22.2285 39.7504 22.1325 39.3238 22.1325C38.8971 22.1325 38.5184 22.2285 38.1877 22.4205C37.8677 22.6018 37.6171 22.8631 37.4357 23.2045C37.2544 23.5351 37.1637 23.9298 37.1637 24.3885V24.7725C37.1637 25.2418 37.2651 25.6578 37.4677 26.0205C37.6811 26.3725 37.9744 26.6445 38.3477 26.8365C38.7317 27.0178 39.1797 27.1085 39.6918 27.1085C40.1504 27.1085 40.5504 27.0391 40.8917 26.9005C41.2438 26.7618 41.5638 26.5538 41.8517 26.2765L43.1798 27.7165C42.7851 28.1645 42.2891 28.5111 41.6918 28.7565C41.0944 28.9911 40.4064 29.1085 39.6277 29.1085ZM48.3295 29.1085C47.3162 29.1085 46.5268 28.8525 45.9615 28.3405C45.3962 27.8178 45.1135 27.0445 45.1135 26.0205V18.4685H47.6095V25.9885C47.6095 26.3511 47.7055 26.6338 47.8975 26.8365C48.0895 27.0285 48.3508 27.1245 48.6815 27.1245C49.0762 27.1245 49.4122 27.0178 49.6895 26.8045L50.3615 28.5645C50.1055 28.7458 49.7962 28.8845 49.4335 28.9805C49.0815 29.0658 48.7135 29.1085 48.3295 29.1085ZM43.7855 22.4845V20.5645H49.7535V22.4845H43.7855ZM58.8699 29.1725C57.9739 29.1725 57.1152 29.0551 56.2939 28.8205C55.4725 28.5751 54.8112 28.2605 54.3099 27.8765L55.1899 25.9245C55.6699 26.2658 56.2352 26.5485 56.8859 26.7725C57.5472 26.9858 58.2139 27.0925 58.8859 27.0925C59.3979 27.0925 59.8085 27.0445 60.1179 26.9485C60.4379 26.8418 60.6725 26.6978 60.8219 26.5165C60.9712 26.3351 61.0459 26.1271 61.0459 25.8925C61.0459 25.5938 60.9285 25.3591 60.6939 25.1885C60.4592 25.0071 60.1499 24.8631 59.7659 24.7565C59.3819 24.6391 58.9552 24.5325 58.4859 24.4365C58.0272 24.3298 57.5632 24.2018 57.0939 24.0525C56.6352 23.9031 56.2139 23.7111 55.8299 23.4765C55.4459 23.2418 55.1312 22.9325 54.8859 22.5485C54.6512 22.1645 54.5339 21.6738 54.5339 21.0765C54.5339 20.4365 54.7045 19.8551 55.0459 19.3325C55.3979 18.7991 55.9205 18.3778 56.6139 18.0685C57.3179 17.7485 58.1979 17.5885 59.2539 17.5885C59.9579 17.5885 60.6512 17.6738 61.3339 17.8445C62.0165 18.0045 62.6192 18.2498 63.1419 18.5805L62.3419 20.5485C61.8192 20.2498 61.2965 20.0311 60.7739 19.8925C60.2512 19.7431 59.7392 19.6685 59.2379 19.6685C58.7365 19.6685 58.3259 19.7271 58.0059 19.8445C57.6859 19.9618 57.4565 20.1165 57.3179 20.3085C57.1792 20.4898 57.1099 20.7031 57.1099 20.9485C57.1099 21.2365 57.2272 21.4711 57.4619 21.6525C57.6965 21.8231 58.0059 21.9618 58.3899 22.0685C58.7739 22.1751 59.1952 22.2818 59.6539 22.3885C60.1232 22.4951 60.5872 22.6178 61.0459 22.7565C61.5152 22.8951 61.9419 23.0818 62.3259 23.3165C62.7099 23.5511 63.0192 23.8605 63.2539 24.2445C63.4992 24.6285 63.6219 25.1138 63.6219 25.7005C63.6219 26.3298 63.4459 26.9058 63.0939 27.4285C62.7419 27.9511 62.2139 28.3725 61.5099 28.6925C60.8165 29.0125 59.9365 29.1725 58.8699 29.1725ZM68.097 29.1085C67.0837 29.1085 66.2943 28.8525 65.729 28.3405C65.1637 27.8178 64.881 27.0445 64.881 26.0205V18.4685H67.377V25.9885C67.377 26.3511 67.473 26.6338 67.665 26.8365C67.857 27.0285 68.1183 27.1245 68.449 27.1245C68.8437 27.1245 69.1797 27.0178 69.457 26.8045L70.129 28.5645C69.873 28.7458 69.5637 28.8845 69.201 28.9805C68.849 29.0658 68.481 29.1085 68.097 29.1085ZM63.553 22.4845V20.5645H69.521V22.4845H63.553ZM76.1701 28.9805V27.3005L76.0101 26.9325V23.9245C76.0101 23.3911 75.8448 22.9751 75.5141 22.6765C75.1941 22.3778 74.6981 22.2285 74.0261 22.2285C73.5675 22.2285 73.1141 22.3031 72.6661 22.4525C72.2288 22.5911 71.8555 22.7831 71.5461 23.0285L70.6501 21.2845C71.1195 20.9538 71.6848 20.6978 72.3461 20.5165C73.0075 20.3351 73.6795 20.2445 74.3621 20.2445C75.6741 20.2445 76.6928 20.5538 77.4181 21.1725C78.1435 21.7911 78.5061 22.7565 78.5061 24.0685V28.9805H76.1701ZM73.5461 29.1085C72.8741 29.1085 72.2981 28.9965 71.8181 28.7725C71.3381 28.5378 70.9701 28.2231 70.7141 27.8285C70.4581 27.4338 70.3301 26.9911 70.3301 26.5005C70.3301 25.9885 70.4528 25.5405 70.6981 25.1565C70.9541 24.7725 71.3541 24.4738 71.8981 24.2605C72.4421 24.0365 73.1515 23.9245 74.0261 23.9245H76.3141V25.3805H74.2981C73.7115 25.3805 73.3061 25.4765 73.0821 25.6685C72.8688 25.8605 72.7621 26.1005 72.7621 26.3885C72.7621 26.7085 72.8848 26.9645 73.1301 27.1565C73.3861 27.3378 73.7328 27.4285 74.1701 27.4285C74.5861 27.4285 74.9595 27.3325 75.2901 27.1405C75.6208 26.9378 75.8608 26.6445 76.0101 26.2605L76.3941 27.4125C76.2128 27.9671 75.8821 28.3885 75.4021 28.6765C74.9221 28.9645 74.3035 29.1085 73.5461 29.1085ZM80.1251 28.9805V20.3725H82.5091V22.8045L82.1731 22.1005C82.4291 21.4925 82.8398 21.0338 83.4051 20.7245C83.9705 20.4045 84.6585 20.2445 85.4691 20.2445V22.5485C85.3625 22.5378 85.2665 22.5325 85.1811 22.5325C85.0958 22.5218 85.0051 22.5165 84.9091 22.5165C84.2265 22.5165 83.6718 22.7138 83.2451 23.1085C82.8291 23.4925 82.6211 24.0951 82.6211 24.9165V28.9805H80.1251ZM90.1301 29.1085C89.1168 29.1085 88.3275 28.8525 87.7621 28.3405C87.1968 27.8178 86.9141 27.0445 86.9141 26.0205V18.4685H89.4101V25.9885C89.4101 26.3511 89.5061 26.6338 89.6981 26.8365C89.8901 27.0285 90.1515 27.1245 90.4821 27.1245C90.8768 27.1245 91.2128 27.0178 91.4901 26.8045L92.1621 28.5645C91.9061 28.7458 91.5968 28.8845 91.2341 28.9805C90.8821 29.0658 90.5141 29.1085 90.1301 29.1085ZM85.5861 22.4845V20.5645H91.5541V22.4845H85.5861ZM96.9296 29.1085C95.9483 29.1085 95.0843 28.9165 94.3376 28.5325C93.6016 28.1485 93.031 27.6258 92.6256 26.9645C92.2203 26.2925 92.0176 25.5298 92.0176 24.6765C92.0176 23.8125 92.215 23.0498 92.6096 22.3885C93.015 21.7165 93.5643 21.1938 94.2576 20.8205C94.951 20.4365 95.735 20.2445 96.6096 20.2445C97.4523 20.2445 98.2096 20.4258 98.8816 20.7885C99.5643 21.1405 100.103 21.6525 100.498 22.3245C100.892 22.9858 101.09 23.7805 101.09 24.7085C101.09 24.8045 101.084 24.9165 101.074 25.0445C101.063 25.1618 101.052 25.2738 101.042 25.3805H94.0496V23.9245H99.7296L98.7696 24.3565C98.7696 23.9085 98.679 23.5191 98.4976 23.1885C98.3163 22.8578 98.0656 22.6018 97.7456 22.4205C97.4256 22.2285 97.0523 22.1325 96.6256 22.1325C96.199 22.1325 95.8203 22.2285 95.4896 22.4205C95.1696 22.6018 94.919 22.8631 94.7376 23.2045C94.5563 23.5351 94.4656 23.9298 94.4656 24.3885V24.7725C94.4656 25.2418 94.567 25.6578 94.7696 26.0205C94.983 26.3725 95.2763 26.6445 95.6496 26.8365C96.0336 27.0178 96.4816 27.1085 96.9936 27.1085C97.4523 27.1085 97.8523 27.0391 98.1936 26.9005C98.5456 26.7618 98.8656 26.5538 99.1536 26.2765L100.482 27.7165C100.087 28.1645 99.591 28.5111 98.9936 28.7565C98.3963 28.9911 97.7083 29.1085 96.9296 29.1085ZM105.807 29.1085C104.997 29.1085 104.266 28.9271 103.615 28.5645C102.965 28.1911 102.447 27.6738 102.063 27.0125C101.69 26.3511 101.503 25.5725 101.503 24.6765C101.503 23.7698 101.69 22.9858 102.063 22.3245C102.447 21.6631 102.965 21.1511 103.615 20.7885C104.266 20.4258 104.997 20.2445 105.807 20.2445C106.533 20.2445 107.167 20.4045 107.711 20.7245C108.255 21.0445 108.677 21.5298 108.975 22.1805C109.274 22.8311 109.423 23.6631 109.423 24.6765C109.423 25.6791 109.279 26.5111 108.991 27.1725C108.703 27.8231 108.287 28.3085 107.743 28.6285C107.21 28.9485 106.565 29.1085 105.807 29.1085ZM106.239 27.0605C106.645 27.0605 107.013 26.9645 107.343 26.7725C107.674 26.5805 107.935 26.3085 108.127 25.9565C108.33 25.5938 108.431 25.1671 108.431 24.6765C108.431 24.1751 108.33 23.7485 108.127 23.3965C107.935 23.0445 107.674 22.7725 107.343 22.5805C107.013 22.3885 106.645 22.2925 106.239 22.2925C105.823 22.2925 105.45 22.3885 105.119 22.5805C104.789 22.7725 104.522 23.0445 104.319 23.3965C104.127 23.7485 104.031 24.1751 104.031 24.6765C104.031 25.1671 104.127 25.5938 104.319 25.9565C104.522 26.3085 104.789 26.5805 105.119 26.7725C105.45 26.9645 105.823 27.0605 106.239 27.0605ZM108.495 28.9805V27.2205L108.543 24.6605L108.383 22.1165V17.1085H110.879V28.9805H108.495Z" fill="white"/>
<path d="M0.5 0.980469H134.5H0.5ZM136.5 24.4805C136.5 37.4592 125.979 47.9805 113 47.9805H25.5C11.6929 47.9805 0.5 36.7876 0.5 22.9805C0.5 33.4739 10.3497 41.9805 22.5 41.9805H112.5C123.546 41.9805 132.5 33.4739 132.5 22.9805L136.5 24.4805ZM0.5 44.9805V0.980469V44.9805ZM113 0.980469C125.979 0.980469 136.5 11.5018 136.5 24.4805C136.5 37.4592 125.979 47.9805 113 47.9805L112.5 41.9805C123.546 41.9805 132.5 33.4739 132.5 22.9805C132.5 10.8302 123.546 0.980469 112.5 0.980469H113Z" fill="#475780" mask="url(#path-1-inside-1_4622_1158)"/>
</svg>
