<svg width="6" height="21" viewBox="0 0 6 21" fill="none" xmlns="http://www.w3.org/2000/svg">
<path d="M2.99283 8.30488C4.18331 8.30488 5.13569 9.28049 5.13569 10.5C5.13569 11.7195 4.18331 12.6951 2.99283 12.6951C1.80236 12.6951 0.849976 11.7195 0.849976 10.5C0.849976 9.28049 1.80236 8.30488 2.99283 8.30488ZM0.849976 2.69512C0.849976 3.91463 1.80236 4.89024 2.99283 4.89024C4.18331 4.89024 5.13569 3.91463 5.13569 2.69512C5.13569 1.47561 4.18331 0.5 2.99283 0.5C1.80236 0.5 0.849976 1.47561 0.849976 2.69512ZM0.849976 18.3049C0.849976 19.5244 1.80236 20.5 2.99283 20.5C4.18331 20.5 5.13569 19.5244 5.13569 18.3049C5.13569 17.0854 4.18331 16.1098 2.99283 16.1098C1.80236 16.1098 0.849976 17.0854 0.849976 18.3049Z" fill="#80808F"/>
</svg>
