<svg width="22" height="27" viewBox="0 0 22 27" fill="none" xmlns="http://www.w3.org/2000/svg">
<path d="M3.5146 25.9132C-0.713329 22.8939 1.58245 3.20774 16.682 2C26.9485 4.05315 13.5395 27.604 3.5146 25.9132Z" stroke="#496ABE" stroke-width="2"/>
<path d="M3.63477 23.2564C4.5907 22.862 5.79199 21.8493 5.30766 20.7916C4.72189 19.5124 4.81574 17.824 5.78563 17.7106C7.62088 17.4961 8.53395 16.8479 7.93649 14.6296C7.33903 12.4113 9.01192 12.0416 10.0874 12.0416C11.1628 12.0416 12.2109 11.5413 11.4862 9.72971C10.9643 8.42514 11.9282 6.76204 13.5526 7.35855C14.7476 7.79733 16.0364 6.21082 16.0763 5.01953" stroke="#496ABE" stroke-width="2" stroke-linecap="round"/>
</svg>
