<svg width="80" height="44" viewBox="0 0 80 44" fill="none" xmlns="http://www.w3.org/2000/svg">
<mask id="path-1-inside-1_4952_1284" fill="white">
<path d="M0 22C0 9.84974 9.84974 0 22 0H58C70.1503 0 80 9.84974 80 22V22C80 34.1503 70.1503 44 58 44H22C9.84973 44 0 34.1503 0 22V22Z"/>
</mask>
<path d="M0 22C0 9.84974 9.84974 0 22 0H58C70.1503 0 80 9.84974 80 22V22C80 34.1503 70.1503 44 58 44H22C9.84973 44 0 34.1503 0 22V22Z" fill="#718ACA"/>
<path d="M23.328 28V16.8H28.176C29.1787 16.8 30.0427 16.9653 30.768 17.296C31.4933 17.616 32.0533 18.08 32.448 18.688C32.8427 19.296 33.04 20.0213 33.04 20.864C33.04 21.696 32.8427 22.416 32.448 23.024C32.0533 23.632 31.4933 24.1013 30.768 24.432C30.0427 24.752 29.1787 24.912 28.176 24.912H24.768L25.92 23.744V28H23.328ZM25.92 24.032L24.768 22.8H28.032C28.832 22.8 29.4293 22.6293 29.824 22.288C30.2187 21.9467 30.416 21.472 30.416 20.864C30.416 20.2453 30.2187 19.7653 29.824 19.424C29.4293 19.0827 28.832 18.912 28.032 18.912H24.768L25.92 17.68V24.032ZM38.1549 28.128C37.2375 28.128 36.4215 27.936 35.7069 27.552C35.0029 27.168 34.4429 26.6453 34.0269 25.984C33.6215 25.312 33.4189 24.5493 33.4189 23.696C33.4189 22.832 33.6215 22.0693 34.0269 21.408C34.4429 20.736 35.0029 20.2133 35.7069 19.84C36.4215 19.456 37.2375 19.264 38.1549 19.264C39.0615 19.264 39.8722 19.456 40.5869 19.84C41.3015 20.2133 41.8615 20.7307 42.2669 21.392C42.6722 22.0533 42.8749 22.8213 42.8749 23.696C42.8749 24.5493 42.6722 25.312 42.2669 25.984C41.8615 26.6453 41.3015 27.168 40.5869 27.552C39.8722 27.936 39.0615 28.128 38.1549 28.128ZM38.1549 26.08C38.5709 26.08 38.9442 25.984 39.2749 25.792C39.6055 25.6 39.8669 25.328 40.0589 24.976C40.2509 24.6133 40.3469 24.1867 40.3469 23.696C40.3469 23.1947 40.2509 22.768 40.0589 22.416C39.8669 22.064 39.6055 21.792 39.2749 21.6C38.9442 21.408 38.5709 21.312 38.1549 21.312C37.7389 21.312 37.3655 21.408 37.0349 21.6C36.7042 21.792 36.4375 22.064 36.2349 22.416C36.0429 22.768 35.9469 23.1947 35.9469 23.696C35.9469 24.1867 36.0429 24.6133 36.2349 24.976C36.4375 25.328 36.7042 25.6 37.0349 25.792C37.3655 25.984 37.7389 26.08 38.1549 26.08ZM46.7992 28.128C46.0632 28.128 45.3539 28.0427 44.6712 27.872C43.9992 27.6907 43.4659 27.4667 43.0712 27.2L43.9032 25.408C44.2979 25.6533 44.7619 25.856 45.2952 26.016C45.8392 26.1653 46.3726 26.24 46.8952 26.24C47.4712 26.24 47.8766 26.1707 48.1112 26.032C48.3566 25.8933 48.4792 25.7013 48.4792 25.456C48.4792 25.2533 48.3832 25.104 48.1912 25.008C48.0099 24.9013 47.7646 24.8213 47.4552 24.768C47.1459 24.7147 46.8046 24.6613 46.4312 24.608C46.0686 24.5547 45.7006 24.4853 45.3272 24.4C44.9539 24.304 44.6126 24.1653 44.3032 23.984C43.9939 23.8027 43.7432 23.5573 43.5512 23.248C43.3699 22.9387 43.2792 22.5387 43.2792 22.048C43.2792 21.504 43.4339 21.024 43.7432 20.608C44.0632 20.192 44.5219 19.8667 45.1192 19.632C45.7166 19.3867 46.4312 19.264 47.2632 19.264C47.8499 19.264 48.4472 19.328 49.0552 19.456C49.6632 19.584 50.1699 19.7707 50.5752 20.016L49.7432 21.792C49.3272 21.5467 48.9059 21.3813 48.4792 21.296C48.0632 21.2 47.6579 21.152 47.2632 21.152C46.7086 21.152 46.3032 21.2267 46.0472 21.376C45.7912 21.5253 45.6632 21.7173 45.6632 21.952C45.6632 22.1653 45.7539 22.3253 45.9352 22.432C46.1272 22.5387 46.3779 22.624 46.6872 22.688C46.9966 22.752 47.3326 22.8107 47.6952 22.864C48.0686 22.9067 48.4419 22.976 48.8152 23.072C49.1886 23.168 49.5246 23.3067 49.8232 23.488C50.1326 23.6587 50.3832 23.8987 50.5752 24.208C50.7672 24.5067 50.8632 24.9013 50.8632 25.392C50.8632 25.9253 50.7032 26.4 50.3832 26.816C50.0632 27.2213 49.5992 27.5413 48.9912 27.776C48.3939 28.0107 47.6632 28.128 46.7992 28.128ZM55.2833 28.128C54.2699 28.128 53.4806 27.872 52.9153 27.36C52.3499 26.8373 52.0673 26.064 52.0673 25.04V17.488H54.5633V25.008C54.5633 25.3707 54.6593 25.6533 54.8513 25.856C55.0433 26.048 55.3046 26.144 55.6353 26.144C56.0299 26.144 56.3659 26.0373 56.6432 25.824L57.3153 27.584C57.0593 27.7653 56.7499 27.904 56.3873 28C56.0353 28.0853 55.6673 28.128 55.2833 28.128ZM50.7392 21.504V19.584H56.7073V21.504H50.7392Z" fill="white"/>
<path d="M0 0H80H0ZM82 23.5C82 36.4787 71.4787 47 58.5 47H25C11.1929 47 0 35.8071 0 22C0 32.4934 9.84974 41 22 41H58C69.0457 41 78 32.4934 78 22L82 23.5ZM0 44V0V44ZM58.5 0C71.4787 0 82 10.5213 82 23.5C82 36.4787 71.4787 47 58.5 47L58 41C69.0457 41 78 32.4934 78 22C78 9.84974 69.0457 0 58 0H58.5Z" fill="#475780" mask="url(#path-1-inside-1_4952_1284)"/>
</svg>
