<svg width="334" height="44" viewBox="0 0 334 44" fill="none" xmlns="http://www.w3.org/2000/svg">
<mask id="path-1-inside-1_4826_9500" fill="white">
<path d="M0 22C0 9.84974 9.84974 0 22 0H312C324.15 0 334 9.84974 334 22C334 34.1503 324.15 44 312 44H22C9.84973 44 0 34.1503 0 22Z"/>
</mask>
<path d="M0 22C0 9.84974 9.84974 0 22 0H312C324.15 0 334 9.84974 334 22C334 34.1503 324.15 44 312 44H22C9.84973 44 0 34.1503 0 22Z" fill="#718ACA"/>
<path d="M135.328 28V16.8H140.176C141.179 16.8 142.043 16.9653 142.768 17.296C143.493 17.616 144.053 18.08 144.448 18.688C144.843 19.296 145.04 20.0213 145.04 20.864C145.04 21.696 144.843 22.416 144.448 23.024C144.053 23.632 143.493 24.1013 142.768 24.432C142.043 24.752 141.179 24.912 140.176 24.912H136.768L137.92 23.744V28H135.328ZM137.92 24.032L136.768 22.8H140.032C140.832 22.8 141.429 22.6293 141.824 22.288C142.219 21.9467 142.416 21.472 142.416 20.864C142.416 20.2453 142.219 19.7653 141.824 19.424C141.429 19.0827 140.832 18.912 140.032 18.912H136.768L137.92 17.68V24.032ZM146.059 28V19.392H148.443V21.824L148.107 21.12C148.363 20.512 148.774 20.0533 149.339 19.744C149.904 19.424 150.592 19.264 151.403 19.264V21.568C151.296 21.5573 151.2 21.552 151.115 21.552C151.03 21.5413 150.939 21.536 150.843 21.536C150.16 21.536 149.606 21.7333 149.179 22.128C148.763 22.512 148.555 23.1147 148.555 23.936V28H146.059ZM156.28 28.128C155.363 28.128 154.547 27.936 153.832 27.552C153.128 27.168 152.568 26.6453 152.152 25.984C151.747 25.312 151.544 24.5493 151.544 23.696C151.544 22.832 151.747 22.0693 152.152 21.408C152.568 20.736 153.128 20.2133 153.832 19.84C154.547 19.456 155.363 19.264 156.28 19.264C157.187 19.264 157.998 19.456 158.712 19.84C159.427 20.2133 159.987 20.7307 160.392 21.392C160.798 22.0533 161 22.8213 161 23.696C161 24.5493 160.798 25.312 160.392 25.984C159.987 26.6453 159.427 27.168 158.712 27.552C157.998 27.936 157.187 28.128 156.28 28.128ZM156.28 26.08C156.696 26.08 157.07 25.984 157.4 25.792C157.731 25.6 157.992 25.328 158.184 24.976C158.376 24.6133 158.472 24.1867 158.472 23.696C158.472 23.1947 158.376 22.768 158.184 22.416C157.992 22.064 157.731 21.792 157.4 21.6C157.07 21.408 156.696 21.312 156.28 21.312C155.864 21.312 155.491 21.408 155.16 21.6C154.83 21.792 154.563 22.064 154.36 22.416C154.168 22.768 154.072 23.1947 154.072 23.696C154.072 24.1867 154.168 24.6133 154.36 24.976C154.563 25.328 154.83 25.6 155.16 25.792C155.491 25.984 155.864 26.08 156.28 26.08ZM166.189 28.128C165.261 28.128 164.434 27.9413 163.709 27.568C162.984 27.184 162.413 26.656 161.997 25.984C161.592 25.312 161.389 24.5493 161.389 23.696C161.389 22.832 161.592 22.0693 161.997 21.408C162.413 20.736 162.984 20.2133 163.709 19.84C164.434 19.456 165.261 19.264 166.189 19.264C167.096 19.264 167.885 19.456 168.557 19.84C169.229 20.2133 169.725 20.752 170.045 21.456L168.109 22.496C167.885 22.0907 167.602 21.792 167.261 21.6C166.93 21.408 166.568 21.312 166.173 21.312C165.746 21.312 165.362 21.408 165.021 21.6C164.68 21.792 164.408 22.064 164.205 22.416C164.013 22.768 163.917 23.1947 163.917 23.696C163.917 24.1973 164.013 24.624 164.205 24.976C164.408 25.328 164.68 25.6 165.021 25.792C165.362 25.984 165.746 26.08 166.173 26.08C166.568 26.08 166.93 25.9893 167.261 25.808C167.602 25.616 167.885 25.312 168.109 24.896L170.045 25.952C169.725 26.6453 169.229 27.184 168.557 27.568C167.885 27.9413 167.096 28.128 166.189 28.128ZM175.005 28.128C174.023 28.128 173.159 27.936 172.413 27.552C171.677 27.168 171.106 26.6453 170.701 25.984C170.295 25.312 170.093 24.5493 170.093 23.696C170.093 22.832 170.29 22.0693 170.685 21.408C171.09 20.736 171.639 20.2133 172.333 19.84C173.026 19.456 173.81 19.264 174.685 19.264C175.527 19.264 176.285 19.4453 176.957 19.808C177.639 20.16 178.178 20.672 178.573 21.344C178.967 22.0053 179.165 22.8 179.165 23.728C179.165 23.824 179.159 23.936 179.149 24.064C179.138 24.1813 179.127 24.2933 179.117 24.4H172.125V22.944H177.805L176.845 23.376C176.845 22.928 176.754 22.5387 176.573 22.208C176.391 21.8773 176.141 21.6213 175.821 21.44C175.501 21.248 175.127 21.152 174.701 21.152C174.274 21.152 173.895 21.248 173.565 21.44C173.245 21.6213 172.994 21.8827 172.813 22.224C172.631 22.5547 172.541 22.9493 172.541 23.408V23.792C172.541 24.2613 172.642 24.6773 172.845 25.04C173.058 25.392 173.351 25.664 173.725 25.856C174.109 26.0373 174.557 26.128 175.069 26.128C175.527 26.128 175.927 26.0587 176.269 25.92C176.621 25.7813 176.941 25.5733 177.229 25.296L178.557 26.736C178.162 27.184 177.666 27.5307 177.069 27.776C176.471 28.0107 175.783 28.128 175.005 28.128ZM184.458 28.128C183.477 28.128 182.613 27.936 181.866 27.552C181.13 27.168 180.56 26.6453 180.154 25.984C179.749 25.312 179.546 24.5493 179.546 23.696C179.546 22.832 179.744 22.0693 180.138 21.408C180.544 20.736 181.093 20.2133 181.786 19.84C182.48 19.456 183.264 19.264 184.138 19.264C184.981 19.264 185.738 19.4453 186.41 19.808C187.093 20.16 187.632 20.672 188.026 21.344C188.421 22.0053 188.618 22.8 188.618 23.728C188.618 23.824 188.613 23.936 188.602 24.064C188.592 24.1813 188.581 24.2933 188.57 24.4H181.578V22.944H187.258L186.298 23.376C186.298 22.928 186.208 22.5387 186.026 22.208C185.845 21.8773 185.594 21.6213 185.274 21.44C184.954 21.248 184.581 21.152 184.154 21.152C183.728 21.152 183.349 21.248 183.018 21.44C182.698 21.6213 182.448 21.8827 182.266 22.224C182.085 22.5547 181.994 22.9493 181.994 23.408V23.792C181.994 24.2613 182.096 24.6773 182.298 25.04C182.512 25.392 182.805 25.664 183.178 25.856C183.562 26.0373 184.01 26.128 184.522 26.128C184.981 26.128 185.381 26.0587 185.722 25.92C186.074 25.7813 186.394 25.5733 186.682 25.296L188.01 26.736C187.616 27.184 187.12 27.5307 186.522 27.776C185.925 28.0107 185.237 28.128 184.458 28.128ZM193.336 28.128C192.525 28.128 191.795 27.9467 191.144 27.584C190.493 27.2107 189.976 26.6933 189.592 26.032C189.219 25.3707 189.032 24.592 189.032 23.696C189.032 22.7893 189.219 22.0053 189.592 21.344C189.976 20.6827 190.493 20.1707 191.144 19.808C191.795 19.4453 192.525 19.264 193.336 19.264C194.061 19.264 194.696 19.424 195.24 19.744C195.784 20.064 196.205 20.5493 196.504 21.2C196.803 21.8507 196.952 22.6827 196.952 23.696C196.952 24.6987 196.808 25.5307 196.52 26.192C196.232 26.8427 195.816 27.328 195.272 27.648C194.739 27.968 194.093 28.128 193.336 28.128ZM193.768 26.08C194.173 26.08 194.541 25.984 194.872 25.792C195.203 25.6 195.464 25.328 195.656 24.976C195.859 24.6133 195.96 24.1867 195.96 23.696C195.96 23.1947 195.859 22.768 195.656 22.416C195.464 22.064 195.203 21.792 194.872 21.6C194.541 21.408 194.173 21.312 193.768 21.312C193.352 21.312 192.979 21.408 192.648 21.6C192.317 21.792 192.051 22.064 191.848 22.416C191.656 22.768 191.56 23.1947 191.56 23.696C191.56 24.1867 191.656 24.6133 191.848 24.976C192.051 25.328 192.317 25.6 192.648 25.792C192.979 25.984 193.352 26.08 193.768 26.08ZM196.024 28V26.24L196.072 23.68L195.912 21.136V16.128H198.408V28H196.024Z" fill="white"/>
<path d="M0 0H334H0ZM336 23.5C336 36.4787 325.479 47 312.5 47H25C11.1929 47 0 35.8071 0 22C0 32.4934 9.84974 41 22 41H312C323.046 41 332 32.4934 332 22L336 23.5ZM0 44V0V44ZM312.5 0C325.479 0 336 10.5213 336 23.5C336 36.4787 325.479 47 312.5 47L312 41C323.046 41 332 32.4934 332 22C332 9.84974 323.046 0 312 0H312.5Z" fill="#475780" mask="url(#path-1-inside-1_4826_9500)"/>
</svg>
