<svg width="16" height="17" viewBox="0 0 16 17" fill="none" xmlns="http://www.w3.org/2000/svg">
<path d="M8.00038 10.75C5.62282 10.75 3.50847 11.898 2.16237 13.6795C1.87265 14.0629 1.7278 14.2546 1.73253 14.5137C1.7362 14.7139 1.8619 14.9664 2.0194 15.09C2.22327 15.25 2.50578 15.25 3.0708 15.25H12.93C13.495 15.25 13.7775 15.25 13.9814 15.09C14.1389 14.9664 14.2646 14.7139 14.2682 14.5137C14.273 14.2546 14.1281 14.0629 13.8384 13.6795C12.4923 11.898 10.3779 10.75 8.00038 10.75Z" stroke="#79CA9C" stroke-width="2" stroke-linecap="round" stroke-linejoin="round"/>
<path d="M8.00038 8.5C9.86434 8.5 11.3754 6.98896 11.3754 5.125C11.3754 3.26104 9.86434 1.75 8.00038 1.75C6.13642 1.75 4.62538 3.26104 4.62538 5.125C4.62538 6.98896 6.13642 8.5 8.00038 8.5Z" stroke="#79CA9C" stroke-width="2" stroke-linecap="round" stroke-linejoin="round"/>
</svg>
