<svg width="82" height="45" viewBox="0 0 82 45" fill="none" xmlns="http://www.w3.org/2000/svg">
<mask id="path-1-inside-1_4622_1156" fill="white">
<path d="M0 22.9805C0 10.8302 9.84974 0.980469 22 0.980469H60C72.1503 0.980469 82 10.8302 82 22.9805C82 35.1307 72.1503 44.9805 60 44.9805H22C9.84973 44.9805 0 35.1307 0 22.9805Z"/>
</mask>
<path d="M0 22.9805C0 10.8302 9.84974 0.980469 22 0.980469H60C72.1503 0.980469 82 10.8302 82 22.9805C82 35.1307 72.1503 44.9805 60 44.9805H22C9.84973 44.9805 0 35.1307 0 22.9805Z" fill="#718ACA"/>
<path d="M27.008 29.1725C26.112 29.1725 25.2533 29.0551 24.432 28.8205C23.6107 28.5751 22.9493 28.2605 22.448 27.8765L23.328 25.9245C23.808 26.2658 24.3733 26.5485 25.024 26.7725C25.6853 26.9858 26.352 27.0925 27.024 27.0925C27.536 27.0925 27.9467 27.0445 28.256 26.9485C28.576 26.8418 28.8107 26.6978 28.96 26.5165C29.1093 26.3351 29.184 26.1271 29.184 25.8925C29.184 25.5938 29.0667 25.3591 28.832 25.1885C28.5973 25.0071 28.288 24.8631 27.904 24.7565C27.52 24.6391 27.0933 24.5325 26.624 24.4365C26.1653 24.3298 25.7013 24.2018 25.232 24.0525C24.7733 23.9031 24.352 23.7111 23.968 23.4765C23.584 23.2418 23.2693 22.9325 23.024 22.5485C22.7893 22.1645 22.672 21.6738 22.672 21.0765C22.672 20.4365 22.8427 19.8551 23.184 19.3325C23.536 18.7991 24.0587 18.3778 24.752 18.0685C25.456 17.7485 26.336 17.5885 27.392 17.5885C28.096 17.5885 28.7893 17.6738 29.472 17.8445C30.1547 18.0045 30.7573 18.2498 31.28 18.5805L30.48 20.5485C29.9573 20.2498 29.4347 20.0311 28.912 19.8925C28.3893 19.7431 27.8773 19.6685 27.376 19.6685C26.8747 19.6685 26.464 19.7271 26.144 19.8445C25.824 19.9618 25.5947 20.1165 25.456 20.3085C25.3173 20.4898 25.248 20.7031 25.248 20.9485C25.248 21.2365 25.3653 21.4711 25.6 21.6525C25.8347 21.8231 26.144 21.9618 26.528 22.0685C26.912 22.1751 27.3333 22.2818 27.792 22.3885C28.2613 22.4951 28.7253 22.6178 29.184 22.7565C29.6533 22.8951 30.08 23.0818 30.464 23.3165C30.848 23.5511 31.1573 23.8605 31.392 24.2445C31.6373 24.6285 31.76 25.1138 31.76 25.7005C31.76 26.3298 31.584 26.9058 31.232 27.4285C30.88 27.9511 30.352 28.3725 29.648 28.6925C28.9547 29.0125 28.0747 29.1725 27.008 29.1725ZM37.9951 28.9805V27.3005L37.8351 26.9325V23.9245C37.8351 23.3911 37.6698 22.9751 37.3391 22.6765C37.0191 22.3778 36.5231 22.2285 35.8511 22.2285C35.3925 22.2285 34.9391 22.3031 34.4911 22.4525C34.0538 22.5911 33.6805 22.7831 33.3711 23.0285L32.4751 21.2845C32.9445 20.9538 33.5098 20.6978 34.1711 20.5165C34.8325 20.3351 35.5045 20.2445 36.1871 20.2445C37.4991 20.2445 38.5178 20.5538 39.2431 21.1725C39.9685 21.7911 40.3311 22.7565 40.3311 24.0685V28.9805H37.9951ZM35.3711 29.1085C34.6991 29.1085 34.1231 28.9965 33.6431 28.7725C33.1631 28.5378 32.7951 28.2231 32.5391 27.8285C32.2831 27.4338 32.1551 26.9911 32.1551 26.5005C32.1551 25.9885 32.2778 25.5405 32.5231 25.1565C32.7791 24.7725 33.1791 24.4738 33.7231 24.2605C34.2671 24.0365 34.9765 23.9245 35.8511 23.9245H38.1391V25.3805H36.1231C35.5365 25.3805 35.1311 25.4765 34.9071 25.6685C34.6938 25.8605 34.5871 26.1005 34.5871 26.3885C34.5871 26.7085 34.7098 26.9645 34.9551 27.1565C35.2111 27.3378 35.5578 27.4285 35.9951 27.4285C36.4111 27.4285 36.7845 27.3325 37.1151 27.1405C37.4458 26.9378 37.6858 26.6445 37.8351 26.2605L38.2191 27.4125C38.0378 27.9671 37.7071 28.3885 37.2271 28.6765C36.7471 28.9645 36.1285 29.1085 35.3711 29.1085ZM44.1299 28.9805L40.5139 20.3725H43.0899L46.0979 27.7805H44.8179L47.9379 20.3725H50.3379L46.7059 28.9805H44.1299ZM54.754 29.1085C53.7727 29.1085 52.9087 28.9165 52.162 28.5325C51.426 28.1485 50.8553 27.6258 50.45 26.9645C50.0447 26.2925 49.842 25.5298 49.842 24.6765C49.842 23.8125 50.0393 23.0498 50.434 22.3885C50.8393 21.7165 51.3887 21.1938 52.082 20.8205C52.7753 20.4365 53.5593 20.2445 54.434 20.2445C55.2767 20.2445 56.034 20.4258 56.706 20.7885C57.3887 21.1405 57.9273 21.6525 58.322 22.3245C58.7167 22.9858 58.914 23.7805 58.914 24.7085C58.914 24.8045 58.9087 24.9165 58.898 25.0445C58.8873 25.1618 58.8767 25.2738 58.866 25.3805H51.874V23.9245H57.554L56.594 24.3565C56.594 23.9085 56.5033 23.5191 56.322 23.1885C56.1407 22.8578 55.89 22.6018 55.57 22.4205C55.25 22.2285 54.8767 22.1325 54.45 22.1325C54.0233 22.1325 53.6447 22.2285 53.314 22.4205C52.994 22.6018 52.7433 22.8631 52.562 23.2045C52.3807 23.5351 52.29 23.9298 52.29 24.3885V24.7725C52.29 25.2418 52.3913 25.6578 52.594 26.0205C52.8073 26.3725 53.1007 26.6445 53.474 26.8365C53.858 27.0178 54.306 27.1085 54.818 27.1085C55.2767 27.1085 55.6767 27.0391 56.018 26.9005C56.37 26.7618 56.69 26.5538 56.978 26.2765L58.306 27.7165C57.9113 28.1645 57.4153 28.5111 56.818 28.7565C56.2207 28.9911 55.5327 29.1085 54.754 29.1085Z" fill="white"/>
<path d="M0 0.980469H82H0ZM84 24.4805C84 37.4592 73.4787 47.9805 60.5 47.9805H25C11.1929 47.9805 0 36.7876 0 22.9805C0 33.4739 9.84974 41.9805 22 41.9805H60C71.0457 41.9805 80 33.4739 80 22.9805L84 24.4805ZM0 44.9805V0.980469V44.9805ZM60.5 0.980469C73.4787 0.980469 84 11.5018 84 24.4805C84 37.4592 73.4787 47.9805 60.5 47.9805L60 41.9805C71.0457 41.9805 80 33.4739 80 22.9805C80 10.8302 71.0457 0.980469 60 0.980469H60.5Z" fill="#475780" mask="url(#path-1-inside-1_4622_1156)"/>
</svg>
