<svg width="34" height="32" viewBox="0 0 34 32" fill="none" xmlns="http://www.w3.org/2000/svg">
<rect x="0.575195" width="33.425" height="31.0146" rx="5" fill="#718ACA"/>
<path d="M9.9752 22.9326C9.64186 23.066 9.3252 23.0366 9.0252 22.8446C8.7252 22.6526 8.5752 22.3736 8.5752 22.0076V18.2826C8.5752 18.0493 8.64186 17.841 8.7752 17.6576C8.90853 17.4743 9.09186 17.3576 9.3252 17.3076L16.5752 15.5076L9.3252 13.7076C9.09186 13.6576 8.90853 13.541 8.7752 13.3576C8.64186 13.1743 8.5752 12.966 8.5752 12.7326V9.00762C8.5752 8.64095 8.7252 8.36162 9.0252 8.16962C9.3252 7.97762 9.64186 7.94862 9.9752 8.08262L25.3752 14.5826C25.7919 14.766 26.0002 15.0743 26.0002 15.5076C26.0002 15.941 25.7919 16.2493 25.3752 16.4326L9.9752 22.9326Z" fill="white"/>
</svg>
