<svg width="132" height="44" viewBox="0 0 132 44" fill="none" xmlns="http://www.w3.org/2000/svg">
<mask id="path-1-inside-1_4882_1762" fill="white">
<path d="M0 22C0 9.84974 9.84974 0 22 0H110C122.15 0 132 9.84974 132 22C132 34.1503 122.15 44 110 44H22C9.84974 44 0 34.1503 0 22Z"/>
</mask>
<path d="M0 22C0 9.84974 9.84974 0 22 0H110C122.15 0 132 9.84974 132 22C132 34.1503 122.15 44 110 44H22C9.84974 44 0 34.1503 0 22Z" fill="#718ACA"/>
<path d="M28.688 28.192C27.824 28.192 27.0187 28.0533 26.272 27.776C25.536 27.488 24.896 27.0827 24.352 26.56C23.808 26.0373 23.3813 25.424 23.072 24.72C22.7733 24.016 22.624 23.2427 22.624 22.4C22.624 21.5573 22.7733 20.784 23.072 20.08C23.3813 19.376 23.808 18.7627 24.352 18.24C24.9067 17.7173 25.552 17.3173 26.288 17.04C27.024 16.752 27.8293 16.608 28.704 16.608C29.6747 16.608 30.5493 16.7787 31.328 17.12C32.1173 17.4507 32.7787 17.9413 33.312 18.592L31.648 20.128C31.264 19.6907 30.8373 19.3653 30.368 19.152C29.8987 18.928 29.3867 18.816 28.832 18.816C28.3093 18.816 27.8293 18.9013 27.392 19.072C26.9547 19.2427 26.576 19.488 26.256 19.808C25.936 20.128 25.6853 20.5067 25.504 20.944C25.3333 21.3813 25.248 21.8667 25.248 22.4C25.248 22.9333 25.3333 23.4187 25.504 23.856C25.6853 24.2933 25.936 24.672 26.256 24.992C26.576 25.312 26.9547 25.5573 27.392 25.728C27.8293 25.8987 28.3093 25.984 28.832 25.984C29.3867 25.984 29.8987 25.8773 30.368 25.664C30.8373 25.44 31.264 25.104 31.648 24.656L33.312 26.192C32.7787 26.8427 32.1173 27.3387 31.328 27.68C30.5493 28.0213 29.6693 28.192 28.688 28.192ZM34.2464 28V19.392H36.6304V21.824L36.2944 21.12C36.5504 20.512 36.961 20.0533 37.5264 19.744C38.0917 19.424 38.7797 19.264 39.5904 19.264V21.568C39.4837 21.5573 39.3877 21.552 39.3024 21.552C39.217 21.5413 39.1264 21.536 39.0304 21.536C38.3477 21.536 37.793 21.7333 37.3664 22.128C36.9504 22.512 36.7424 23.1147 36.7424 23.936V28H34.2464ZM44.644 28.128C43.6627 28.128 42.7987 27.936 42.052 27.552C41.316 27.168 40.7453 26.6453 40.34 25.984C39.9347 25.312 39.732 24.5493 39.732 23.696C39.732 22.832 39.9293 22.0693 40.324 21.408C40.7293 20.736 41.2787 20.2133 41.972 19.84C42.6653 19.456 43.4493 19.264 44.324 19.264C45.1667 19.264 45.924 19.4453 46.596 19.808C47.2787 20.16 47.8173 20.672 48.212 21.344C48.6067 22.0053 48.804 22.8 48.804 23.728C48.804 23.824 48.7987 23.936 48.788 24.064C48.7773 24.1813 48.7667 24.2933 48.756 24.4H41.764V22.944H47.444L46.484 23.376C46.484 22.928 46.3933 22.5387 46.212 22.208C46.0307 21.8773 45.78 21.6213 45.46 21.44C45.14 21.248 44.7667 21.152 44.34 21.152C43.9133 21.152 43.5347 21.248 43.204 21.44C42.884 21.6213 42.6333 21.8827 42.452 22.224C42.2707 22.5547 42.18 22.9493 42.18 23.408V23.792C42.18 24.2613 42.2813 24.6773 42.484 25.04C42.6973 25.392 42.9907 25.664 43.364 25.856C43.748 26.0373 44.196 26.128 44.708 26.128C45.1667 26.128 45.5667 26.0587 45.908 25.92C46.26 25.7813 46.58 25.5733 46.868 25.296L48.196 26.736C47.8013 27.184 47.3053 27.5307 46.708 27.776C46.1107 28.0107 45.4227 28.128 44.644 28.128ZM54.8714 28V26.32L54.7114 25.952V22.944C54.7114 22.4107 54.546 21.9947 54.2154 21.696C53.8954 21.3973 53.3994 21.248 52.7274 21.248C52.2687 21.248 51.8154 21.3227 51.3674 21.472C50.93 21.6107 50.5567 21.8027 50.2474 22.048L49.3514 20.304C49.8207 19.9733 50.386 19.7173 51.0474 19.536C51.7087 19.3547 52.3807 19.264 53.0634 19.264C54.3754 19.264 55.394 19.5733 56.1194 20.192C56.8447 20.8107 57.2074 21.776 57.2074 23.088V28H54.8714ZM52.2474 28.128C51.5754 28.128 50.9994 28.016 50.5194 27.792C50.0394 27.5573 49.6714 27.2427 49.4154 26.848C49.1594 26.4533 49.0314 26.0107 49.0314 25.52C49.0314 25.008 49.154 24.56 49.3994 24.176C49.6554 23.792 50.0554 23.4933 50.5994 23.28C51.1434 23.056 51.8527 22.944 52.7274 22.944H55.0154V24.4H52.9994C52.4127 24.4 52.0074 24.496 51.7834 24.688C51.57 24.88 51.4634 25.12 51.4634 25.408C51.4634 25.728 51.586 25.984 51.8314 26.176C52.0874 26.3573 52.434 26.448 52.8714 26.448C53.2874 26.448 53.6607 26.352 53.9914 26.16C54.322 25.9573 54.562 25.664 54.7114 25.28L55.0954 26.432C54.914 26.9867 54.5834 27.408 54.1034 27.696C53.6234 27.984 53.0047 28.128 52.2474 28.128ZM62.3464 28.128C61.333 28.128 60.5437 27.872 59.9784 27.36C59.413 26.8373 59.1304 26.064 59.1304 25.04V17.488H61.6264V25.008C61.6264 25.3707 61.7224 25.6533 61.9144 25.856C62.1064 26.048 62.3677 26.144 62.6984 26.144C63.093 26.144 63.429 26.0373 63.7064 25.824L64.3784 27.584C64.1224 27.7653 63.813 27.904 63.4504 28C63.0984 28.0853 62.7304 28.128 62.3464 28.128ZM57.8024 21.504V19.584H63.7704V21.504H57.8024ZM69.1459 28.128C68.1645 28.128 67.3005 27.936 66.5539 27.552C65.8179 27.168 65.2472 26.6453 64.8419 25.984C64.4365 25.312 64.2339 24.5493 64.2339 23.696C64.2339 22.832 64.4312 22.0693 64.8259 21.408C65.2312 20.736 65.7805 20.2133 66.4739 19.84C67.1672 19.456 67.9512 19.264 68.8259 19.264C69.6685 19.264 70.4259 19.4453 71.0979 19.808C71.7805 20.16 72.3192 20.672 72.7139 21.344C73.1085 22.0053 73.3059 22.8 73.3059 23.728C73.3059 23.824 73.3005 23.936 73.2899 24.064C73.2792 24.1813 73.2685 24.2933 73.2579 24.4H66.2659V22.944H71.9459L70.9859 23.376C70.9859 22.928 70.8952 22.5387 70.7139 22.208C70.5325 21.8773 70.2819 21.6213 69.9619 21.44C69.6419 21.248 69.2685 21.152 68.8419 21.152C68.4152 21.152 68.0365 21.248 67.7059 21.44C67.3859 21.6213 67.1352 21.8827 66.9539 22.224C66.7725 22.5547 66.6819 22.9493 66.6819 23.408V23.792C66.6819 24.2613 66.7832 24.6773 66.9859 25.04C67.1992 25.392 67.4925 25.664 67.8659 25.856C68.2499 26.0373 68.6979 26.128 69.2099 26.128C69.6685 26.128 70.0685 26.0587 70.4099 25.92C70.7619 25.7813 71.0819 25.5733 71.3699 25.296L72.6979 26.736C72.3032 27.184 71.8072 27.5307 71.2099 27.776C70.6125 28.0107 69.9245 28.128 69.1459 28.128ZM80.7149 28V18.912H77.1309V16.8H86.8909V18.912H83.3069V28H80.7149ZM90.8665 28.128C89.8852 28.128 89.0212 27.936 88.2745 27.552C87.5385 27.168 86.9678 26.6453 86.5625 25.984C86.1572 25.312 85.9545 24.5493 85.9545 23.696C85.9545 22.832 86.1518 22.0693 86.5465 21.408C86.9518 20.736 87.5012 20.2133 88.1945 19.84C88.8878 19.456 89.6718 19.264 90.5465 19.264C91.3892 19.264 92.1465 19.4453 92.8185 19.808C93.5012 20.16 94.0398 20.672 94.4345 21.344C94.8292 22.0053 95.0265 22.8 95.0265 23.728C95.0265 23.824 95.0212 23.936 95.0105 24.064C94.9998 24.1813 94.9892 24.2933 94.9785 24.4H87.9865V22.944H93.6665L92.7065 23.376C92.7065 22.928 92.6158 22.5387 92.4345 22.208C92.2532 21.8773 92.0025 21.6213 91.6825 21.44C91.3625 21.248 90.9892 21.152 90.5625 21.152C90.1358 21.152 89.7572 21.248 89.4265 21.44C89.1065 21.6213 88.8558 21.8827 88.6745 22.224C88.4932 22.5547 88.4025 22.9493 88.4025 23.408V23.792C88.4025 24.2613 88.5038 24.6773 88.7065 25.04C88.9198 25.392 89.2132 25.664 89.5865 25.856C89.9705 26.0373 90.4185 26.128 90.9305 26.128C91.3892 26.128 91.7892 26.0587 92.1305 25.92C92.4825 25.7813 92.8025 25.5733 93.0905 25.296L94.4185 26.736C94.0238 27.184 93.5278 27.5307 92.9305 27.776C92.3332 28.0107 91.6452 28.128 90.8665 28.128ZM98.9442 28.128C98.2082 28.128 97.4989 28.0427 96.8162 27.872C96.1442 27.6907 95.6109 27.4667 95.2162 27.2L96.0482 25.408C96.4429 25.6533 96.9069 25.856 97.4402 26.016C97.9842 26.1653 98.5176 26.24 99.0402 26.24C99.6162 26.24 100.022 26.1707 100.256 26.032C100.502 25.8933 100.624 25.7013 100.624 25.456C100.624 25.2533 100.528 25.104 100.336 25.008C100.155 24.9013 99.9096 24.8213 99.6002 24.768C99.2909 24.7147 98.9496 24.6613 98.5762 24.608C98.2136 24.5547 97.8456 24.4853 97.4722 24.4C97.0989 24.304 96.7576 24.1653 96.4482 23.984C96.1389 23.8027 95.8882 23.5573 95.6962 23.248C95.5149 22.9387 95.4242 22.5387 95.4242 22.048C95.4242 21.504 95.5789 21.024 95.8882 20.608C96.2082 20.192 96.6669 19.8667 97.2642 19.632C97.8616 19.3867 98.5762 19.264 99.4082 19.264C99.9949 19.264 100.592 19.328 101.2 19.456C101.808 19.584 102.315 19.7707 102.72 20.016L101.888 21.792C101.472 21.5467 101.051 21.3813 100.624 21.296C100.208 21.2 99.8029 21.152 99.4082 21.152C98.8536 21.152 98.4482 21.2267 98.1922 21.376C97.9362 21.5253 97.8082 21.7173 97.8082 21.952C97.8082 22.1653 97.8989 22.3253 98.0802 22.432C98.2722 22.5387 98.5229 22.624 98.8322 22.688C99.1416 22.752 99.4776 22.8107 99.8402 22.864C100.214 22.9067 100.587 22.976 100.96 23.072C101.334 23.168 101.67 23.3067 101.968 23.488C102.278 23.6587 102.528 23.8987 102.72 24.208C102.912 24.5067 103.008 24.9013 103.008 25.392C103.008 25.9253 102.848 26.4 102.528 26.816C102.208 27.2213 101.744 27.5413 101.136 27.776C100.539 28.0107 99.8082 28.128 98.9442 28.128ZM107.428 28.128C106.415 28.128 105.626 27.872 105.06 27.36C104.495 26.8373 104.212 26.064 104.212 25.04V17.488H106.708V25.008C106.708 25.3707 106.804 25.6533 106.996 25.856C107.188 26.048 107.45 26.144 107.78 26.144C108.175 26.144 108.511 26.0373 108.788 25.824L109.46 27.584C109.204 27.7653 108.895 27.904 108.532 28C108.18 28.0853 107.812 28.128 107.428 28.128ZM102.884 21.504V19.584H108.852V21.504H102.884Z" fill="white"/>
<path d="M0 0H132H0ZM134 23.5C134 36.4787 123.479 47 110.5 47H25C11.1929 47 0 35.8071 0 22C0 32.4934 9.84974 41 22 41H110C121.046 41 130 32.4934 130 22L134 23.5ZM0 44V0V44ZM110.5 0C123.479 0 134 10.5213 134 23.5C134 36.4787 123.479 47 110.5 47L110 41C121.046 41 130 32.4934 130 22C130 9.84974 121.046 0 110 0H110.5Z" fill="#475780" mask="url(#path-1-inside-1_4882_1762)"/>
</svg>
