<svg width="124" height="111" viewBox="0 0 124 111" fill="none" xmlns="http://www.w3.org/2000/svg">
<rect x="0.624023" y="0.131836" width="122.752" height="110.071" rx="13.9688" fill="#FFE9BB"/>
<path d="M28.624 99.5011L35.147 101.132C35.147 100.588 35.4706 96.3284 36.7777 93.6304C38.0848 90.9324 44.0527 86.8159 49.8236 84.4983C60.1125 80.3662 71.9288 82.551 78.1983 85.4767C83.0905 87.7598 88.0915 95.5873 89.6135 101.132L94.9648 101.132C94.2038 93.8481 87.0043 78.7582 64.8263 76.6708C42.6483 74.5835 31.1252 90.1318 28.624 99.5011Z" fill="#95460E"/>
<path d="M65.7948 23.8353H60.2502V13.0725C61.2287 10.7895 65.1425 11.1155 65.7948 13.0725V23.8353Z" fill="#E57900"/>
<path d="M59.5979 34.924V67.2126H66.1689C66.1689 54.819 67.8116 34.2718 66.1689 34.924C65.289 35.2734 61.5692 35.2502 59.5979 34.924Z" fill="url(#paint0_linear_3324_10944)"/>
<path d="M29.592 87.7598L28.624 99.5011C30.146 92.659 39.8021 77.3231 62.859 77.3231C86.0154 77.3231 93.9517 91.884 95.1475 100.48C95.6067 97.1318 95.1475 87.7598 95.1475 87.7598C95.1475 87.7598 86.9939 66.8864 61.2283 66.8864C43.5686 66.8864 33.5058 80.041 29.592 87.7598Z" fill="#E57900"/>
<path d="M69.7082 29.3796C69.7082 32.9821 66.7878 35.9025 63.1853 35.9025C59.5828 35.9025 56.6623 32.9821 56.6623 29.3796C56.6623 25.777 59.5828 22.8566 63.1853 22.8566C66.7878 22.8566 69.7082 25.777 69.7082 29.3796Z" fill="#E57900"/>
<path d="M55.0313 74.3878C48.3167 73.1443 52.6961 67.2126 56.936 67.2126C54.0007 69.2782 58.5668 70.4741 61.176 70.4741C74.548 70.4741 79.1894 70.6447 83.0278 76.0185C86.2893 80.5846 78.5139 74.0617 74.274 72.7571C67.7512 74.3878 63.8372 76.0185 55.0313 74.3878Z" fill="#F6A82B"/>
<path d="M94.9648 101.132C92.3557 86.7816 76.3398 79.2799 68.7297 78.3014C72.9697 75.3661 86.0155 82.5413 88.2985 83.5198C89.4977 84.0337 82.4279 75.04 88.2985 78.3014C88.9508 78.6638 94.604 85.0418 94.8215 88.412C95.9086 97.979 95.0835 101.784 94.9648 101.132Z" fill="#B24100"/>
<path d="M63.1854 36.2285C69.3822 35.9145 70.3606 30.2613 69.3821 27.7487C68.0776 31.2663 63.2941 33.1926 60.9023 33.716C58.5105 34.2394 56.6623 29.9472 56.6623 29.9472C56.6623 32.4597 58.293 35.9145 63.1854 36.2285Z" fill="#CF7104"/>
<path d="M66.1206 13.3982C66.1206 11.0499 63.7288 11.3326 62.533 11.7674L64.1637 17.6382C64.2319 20.263 62.533 24.1611 62.533 24.1611H66.1206V13.3982Z" fill="#CF7104"/>
<path fill-rule="evenodd" clip-rule="evenodd" d="M67.0992 18.2905H58.6194V16.9859H67.0992V18.2905Z" fill="#CB6A0E"/>
<path fill-rule="evenodd" clip-rule="evenodd" d="M63.5071 9.13184V13.0456H62.2025V9.13184H63.5071Z" fill="#95460E"/>
<path fill-rule="evenodd" clip-rule="evenodd" d="M66.773 35.1838V57.7544H66.1207V51.624L64.0524 53.4338L63.6229 52.9428L66.1207 50.7573V46.2186L64.0814 48.5128L63.5939 48.0794L66.1207 45.2368V40.9298L64.0683 42.9822L63.607 42.521L66.1207 40.0073V36.6213L64.0524 38.431L63.6229 37.9401L66.773 35.1838Z" fill="#C14C00"/>
<path fill-rule="evenodd" clip-rule="evenodd" d="M58.9455 34.5292V59.385H59.5978V52.1425L64.2919 55.7304L64.6881 55.2122L59.5978 51.3214V46.2929L64.255 51.1314L64.725 50.679L59.5978 45.3522V40.671L64.2505 45.7051L64.7295 45.2623L59.5978 39.71V35.9712L64.2747 40.0826L64.7053 39.5927L58.9455 34.5292Z" fill="#CF7104"/>
<path d="M63.0718 57.1155C63.2255 56.2618 64.4497 56.2618 64.6034 57.1155C64.7307 57.8226 65.6664 57.9941 66.0363 57.3782L66.0819 57.3024C66.5224 56.5688 67.6514 57.0001 67.4907 57.8405C67.3569 58.5407 68.1683 59.028 68.7235 58.5808L68.8329 58.4927C69.4893 57.964 70.3844 58.7523 69.9429 59.4702C69.5726 60.0723 70.164 60.8056 70.8308 60.5713L70.95 60.5294C71.7375 60.2528 72.3079 61.2898 71.6526 61.8068C71.1007 62.2421 71.4285 63.1293 72.1313 63.1259C72.9659 63.1218 73.1989 64.29 72.4088 64.5589C71.7434 64.7853 71.7434 65.7264 72.4088 65.9528C73.1989 66.2216 72.9659 67.3898 72.1313 67.3858C71.4285 67.3824 71.1007 68.2695 71.6526 68.7048C72.3079 69.2218 71.7375 70.2589 70.95 69.9822L70.8308 69.9403C70.164 69.7061 69.5726 70.4394 69.9429 71.0414C70.3844 71.7594 69.4893 72.5476 68.8329 72.0189L68.7235 71.9308C68.1683 71.4836 67.3569 71.9709 67.4907 72.6711C67.6514 73.5116 66.5224 73.9428 66.0819 73.2093L66.0363 73.1334C65.6664 72.5175 64.7307 72.6891 64.6034 73.3961C64.4497 74.2498 63.2255 74.2498 63.0718 73.3961C62.9445 72.6891 62.0088 72.5175 61.639 73.1334L61.5934 73.2093C61.1529 73.9428 60.0238 73.5116 60.1845 72.6711C60.3183 71.9709 59.5069 71.4836 58.9517 71.9308L58.8423 72.0189C58.1859 72.5476 57.2909 71.7594 57.7324 71.0414C58.1026 70.4394 57.5112 69.7061 56.8444 69.9403L56.7253 69.9822C55.9377 70.2589 55.3673 69.2218 56.0227 68.7048C56.5745 68.2695 56.2468 67.3824 55.5439 67.3858C54.7093 67.3898 54.4763 66.2216 55.2664 65.9528C55.9318 65.7264 55.9318 64.7853 55.2664 64.5589C54.4763 64.29 54.7093 63.1218 55.5439 63.1259C56.2468 63.1293 56.5745 62.2421 56.0227 61.8068C55.3673 61.2898 55.9377 60.2528 56.7253 60.5294L56.8444 60.5713C57.5112 60.8056 58.1026 60.0723 57.7324 59.4702C57.2909 58.7523 58.1859 57.964 58.8423 58.4927L58.9517 58.5808C59.5069 59.028 60.3183 58.5407 60.1845 57.8405C60.0238 57.0001 61.1529 56.5688 61.5934 57.3024L61.639 57.3782C62.0088 57.9941 62.9445 57.8226 63.0718 57.1155Z" fill="url(#paint1_linear_3324_10944)"/>
<path d="M69.0561 64.9295C69.0561 67.6314 66.8658 69.8217 64.1639 69.8217C61.462 69.8217 59.2717 67.6314 59.2717 64.9295C59.2717 62.2276 61.462 60.0373 64.1639 60.0373C66.8658 60.0373 69.0561 62.2276 69.0561 64.9295Z" fill="#E57900"/>
<path d="M64.8159 69.4956C61.163 70.0174 59.2715 66.8864 60.2498 65.5818C63.8376 70.474 67.5338 66.0167 68.4035 63.9511C69.3821 65.5818 68.4687 68.9738 64.8159 69.4956Z" fill="#C56C05"/>
<defs>
<linearGradient id="paint0_linear_3324_10944" x1="62.0001" y1="9.13184" x2="62.0001" y2="101.203" gradientUnits="userSpaceOnUse">
<stop offset="0.236255" stop-color="#FAA422"/>
<stop offset="0.464652" stop-color="#E57900"/>
</linearGradient>
<linearGradient id="paint1_linear_3324_10944" x1="41.567" y1="-1.26103" x2="80.7472" y2="113.76" gradientUnits="userSpaceOnUse">
<stop stop-color="#FDD749"/>
<stop offset="0.633618" stop-color="#D67403"/>
</linearGradient>
</defs>
</svg>
