<svg width="145" height="118" viewBox="0 0 145 118" fill="none" xmlns="http://www.w3.org/2000/svg">
<rect x="2.5" y="-2.5" width="138.98" height="111.068" rx="17.5" transform="matrix(-1 0 0 1 144.678 5.84106)" stroke="#CBCBD5" stroke-width="5"/>
<path d="M81.3223 3C81.3223 3 52.1486 3.00005 23 3.00003C11.9543 3.00002 2.99987 11.9468 2.99987 22.9925C2.99987 43.3558 2.99987 74.5165 2.99987 94.7646C2.99987 105.81 11.9542 114.75 22.9999 114.75H127.988" stroke="#4D4D9D" stroke-width="6" stroke-linecap="round"/>
<path d="M18.9076 57.1502C19.8676 57.1289 20.577 57.1076 21.0356 57.0862V60.1102H12.5716V57.0862C13.7236 57.1289 14.593 57.1502 15.1796 57.1502V51.6302C14.7956 52.4729 14.0116 53.0169 12.8276 53.2622C12.7956 52.0036 12.6783 50.8569 12.4756 49.8222C13.329 49.7049 13.921 49.5609 14.2516 49.3902C14.593 49.2089 14.8543 49.0116 15.0356 48.7982C15.2276 48.5849 15.3556 48.4409 15.4196 48.3662V48.3342H18.9076V57.1502ZM24.461 57.3102C27.9277 57.1182 30.6157 56.9049 32.525 56.6702C32.3437 57.2249 32.205 57.8116 32.109 58.4302C32.013 59.0489 31.965 59.6089 31.965 60.1102H20.525L20.509 59.7742C20.509 58.7289 20.813 57.8222 21.421 57.0542C22.0397 56.2862 22.8983 55.5769 23.997 54.9262C24.317 54.7342 24.8183 54.4889 25.501 54.1902C26.3863 53.8062 27.069 53.4702 27.549 53.1822C28.029 52.8836 28.269 52.5902 28.269 52.3022C28.269 51.9396 28.1197 51.6516 27.821 51.4382C27.5223 51.2249 27.0583 51.1182 26.429 51.1182C25.7357 51.1182 25.2077 51.2942 24.845 51.6462C24.493 51.9982 24.317 52.4462 24.317 52.9902C24.317 53.1609 24.333 53.3369 24.365 53.5182C23.021 53.3476 21.7143 53.2302 20.445 53.1662C20.445 52.2596 20.6797 51.4436 21.149 50.7182C21.629 49.9822 22.3437 49.4009 23.293 48.9742C24.253 48.5476 25.4263 48.3342 26.813 48.3342C28.0823 48.3342 29.1383 48.5102 29.981 48.8622C30.8343 49.2036 31.4583 49.6409 31.853 50.1742C32.2583 50.6969 32.461 51.2356 32.461 51.7902C32.461 52.4302 32.317 52.9796 32.029 53.4382C31.7517 53.8969 31.3463 54.3076 30.813 54.6702C30.2903 55.0222 29.5863 55.4062 28.701 55.8222C28.573 55.8862 28.365 55.9609 28.077 56.0462C27.789 56.1209 27.6077 56.1689 27.533 56.1902C26.7757 56.4142 26.173 56.6009 25.725 56.7502C25.277 56.8996 24.8557 57.0862 24.461 57.3102Z" fill="#292929"/>
<path d="M14.8301 64.8702C15.2088 64.8702 15.5181 64.9449 15.7581 65.0942C16.0034 65.2382 16.1714 65.4489 16.2621 65.7262C16.3581 66.0036 16.3661 66.3342 16.2861 66.7182L15.8061 69.1102H15.2381L15.7181 66.7102C15.8034 66.2942 15.7581 65.9689 15.5821 65.7342C15.4114 65.4996 15.1074 65.3822 14.6701 65.3822C14.2221 65.3822 13.8488 65.5049 13.5501 65.7502C13.2568 65.9956 13.0594 66.3636 12.9581 66.8542L12.5101 69.1102H11.9421L13.1261 63.1742H13.6941L13.1021 66.1182L12.9581 65.9102C13.1608 65.5476 13.4221 65.2836 13.7421 65.1182C14.0674 64.9529 14.4301 64.8702 14.8301 64.8702ZM17.0283 69.1102L17.8603 64.9102H18.4043L18.1643 66.1502L18.1003 65.9342C18.287 65.5662 18.5323 65.2969 18.8363 65.1262C19.1457 64.9556 19.5297 64.8702 19.9883 64.8702L19.8843 65.4222C19.8577 65.4222 19.831 65.4222 19.8043 65.4222C19.783 65.4169 19.7563 65.4142 19.7243 65.4142C19.2763 65.4142 18.9057 65.5449 18.6123 65.8062C18.3243 66.0622 18.127 66.4516 18.0203 66.9742L17.5963 69.1102H17.0283ZM21.1277 69.1502C20.7863 69.1502 20.4637 69.1022 20.1597 69.0062C19.8557 68.9102 19.621 68.7876 19.4557 68.6382L19.7277 68.1902C19.8877 68.3342 20.0983 68.4489 20.3597 68.5342C20.621 68.6142 20.8957 68.6542 21.1837 68.6542C21.5837 68.6542 21.8903 68.5876 22.1037 68.4542C22.3223 68.3209 22.4317 68.1369 22.4317 67.9022C22.4317 67.7422 22.373 67.6222 22.2557 67.5422C22.1437 67.4569 21.997 67.3929 21.8157 67.3502C21.6343 67.3022 21.4423 67.2569 21.2397 67.2142C21.037 67.1716 20.845 67.1182 20.6637 67.0542C20.4823 66.9849 20.333 66.8809 20.2157 66.7422C20.1037 66.6036 20.0477 66.4169 20.0477 66.1822C20.0477 65.9156 20.1223 65.6836 20.2717 65.4862C20.4263 65.2889 20.6397 65.1369 20.9117 65.0302C21.1837 64.9236 21.5037 64.8702 21.8717 64.8702C22.1383 64.8702 22.4023 64.9049 22.6637 64.9742C22.925 65.0436 23.1357 65.1396 23.2957 65.2622L23.0557 65.7182C22.8903 65.5902 22.6983 65.4996 22.4797 65.4462C22.261 65.3876 22.0423 65.3582 21.8237 65.3582C21.4343 65.3582 21.133 65.4302 20.9197 65.5742C20.7117 65.7129 20.6077 65.8969 20.6077 66.1262C20.6077 66.2862 20.6637 66.4089 20.7757 66.4942C20.893 66.5796 21.0423 66.6462 21.2237 66.6942C21.405 66.7422 21.597 66.7876 21.7997 66.8302C22.0077 66.8676 22.1997 66.9209 22.3757 66.9902C22.557 67.0596 22.7037 67.1609 22.8157 67.2942C22.933 67.4222 22.9917 67.6036 22.9917 67.8382C22.9917 68.1156 22.9143 68.3529 22.7597 68.5502C22.605 68.7422 22.3863 68.8916 22.1037 68.9982C21.8263 69.0996 21.501 69.1502 21.1277 69.1502Z" fill="#999999"/>
<path d="M43.9735 64.7292C43.6222 64.7292 43.3275 64.6102 43.0895 64.3722C42.8515 64.1342 42.7325 63.8396 42.7325 63.4882C42.7325 63.1369 42.8515 62.8422 43.0895 62.6042C43.3275 62.3662 43.6222 62.2472 43.9735 62.2472C44.3135 62.2472 44.6025 62.3662 44.8405 62.6042C45.0785 62.8422 45.1975 63.1369 45.1975 63.4882C45.1975 63.8396 45.0785 64.1342 44.8405 64.3722C44.6025 64.6102 44.3135 64.7292 43.9735 64.7292ZM43.9735 57.5892C43.6222 57.5892 43.3275 57.4702 43.0895 57.2322C42.8515 56.9942 42.7325 56.6996 42.7325 56.3482C42.7325 55.9969 42.8515 55.7022 43.0895 55.4642C43.3275 55.2262 43.6222 55.1072 43.9735 55.1072C44.3135 55.1072 44.6025 55.2262 44.8405 55.4642C45.0785 55.7022 45.1975 55.9969 45.1975 56.3482C45.1975 56.6996 45.0785 56.9942 44.8405 57.2322C44.6025 57.4702 44.3135 57.5892 43.9735 57.5892Z" fill="#292929"/>
<path d="M59.4604 57.3102C62.927 57.1182 65.615 56.9049 67.5244 56.6702C67.343 57.2249 67.2044 57.8116 67.1084 58.4302C67.0124 59.0489 66.9644 59.6089 66.9644 60.1102H55.5244L55.5084 59.7742C55.5084 58.7289 55.8124 57.8222 56.4204 57.0542C57.039 56.2862 57.8977 55.5769 58.9964 54.9262C59.3164 54.7342 59.8177 54.4889 60.5004 54.1902C61.3857 53.8062 62.0684 53.4702 62.5484 53.1822C63.0284 52.8836 63.2684 52.5902 63.2684 52.3022C63.2684 51.9396 63.119 51.6516 62.8204 51.4382C62.5217 51.2249 62.0577 51.1182 61.4284 51.1182C60.735 51.1182 60.207 51.2942 59.8444 51.6462C59.4924 51.9982 59.3164 52.4462 59.3164 52.9902C59.3164 53.1609 59.3324 53.3369 59.3644 53.5182C58.0204 53.3476 56.7137 53.2302 55.4444 53.1662C55.4444 52.2596 55.679 51.4436 56.1484 50.7182C56.6284 49.9822 57.343 49.4009 58.2924 48.9742C59.2524 48.5476 60.4257 48.3342 61.8124 48.3342C63.0817 48.3342 64.1377 48.5102 64.9804 48.8622C65.8337 49.2036 66.4577 49.6409 66.8524 50.1742C67.2577 50.6969 67.4604 51.2356 67.4604 51.7902C67.4604 52.4302 67.3164 52.9796 67.0284 53.4382C66.751 53.8969 66.3457 54.3076 65.8124 54.6702C65.2897 55.0222 64.5857 55.4062 63.7004 55.8222C63.5724 55.8862 63.3644 55.9609 63.0764 56.0462C62.7884 56.1209 62.607 56.1689 62.5324 56.1902C61.775 56.4142 61.1724 56.6009 60.7244 56.7502C60.2764 56.8996 59.855 57.0862 59.4604 57.3102ZM74.8677 60.2702C72.5744 60.2702 70.8837 59.7422 69.7957 58.6862C68.7077 57.6302 68.1637 56.1636 68.1637 54.2862C68.1637 52.4196 68.7077 50.9636 69.7957 49.9182C70.8944 48.8622 72.5851 48.3342 74.8677 48.3342C77.1504 48.3342 78.8357 48.8622 79.9237 49.9182C81.0117 50.9636 81.5557 52.4196 81.5557 54.2862C81.5557 56.1636 81.0117 57.6302 79.9237 58.6862C78.8357 59.7422 77.1504 60.2702 74.8677 60.2702ZM74.8837 57.4702C75.8651 57.4702 76.5798 57.1716 77.0278 56.5742C77.4757 55.9662 77.6997 55.2036 77.6997 54.2862C77.6997 53.3796 77.4757 52.6276 77.0278 52.0302C76.5798 51.4222 75.8651 51.1182 74.8837 51.1182C73.8704 51.1182 73.1344 51.4222 72.6757 52.0302C72.2277 52.6276 72.0037 53.3796 72.0037 54.2862C72.0037 55.1929 72.2277 55.9502 72.6757 56.5582C73.1344 57.1662 73.8704 57.4702 74.8837 57.4702Z" fill="#292929"/>
<path d="M60.8673 64.8702C61.246 64.8702 61.5527 64.9449 61.7873 65.0942C62.0273 65.2382 62.1927 65.4489 62.2833 65.7262C62.374 66.0036 62.3793 66.3342 62.2993 66.7182L61.8193 69.1102H61.2513L61.7313 66.7102C61.8167 66.2942 61.7767 65.9689 61.6113 65.7342C61.4513 65.4996 61.158 65.3822 60.7313 65.3822C60.31 65.3822 59.9553 65.4996 59.6673 65.7342C59.3847 65.9689 59.1953 66.3209 59.0993 66.7902L58.6353 69.1102H58.0673L58.5473 66.7102C58.6327 66.2942 58.5927 65.9689 58.4273 65.7342C58.262 65.4996 57.9687 65.3822 57.5473 65.3822C57.1153 65.3822 56.758 65.5049 56.4753 65.7502C56.1927 65.9956 56.0007 66.3636 55.8993 66.8542L55.4513 69.1102H54.8833L55.7153 64.9102H56.2593L56.0193 66.1182L55.8993 65.9102C56.102 65.5476 56.358 65.2836 56.6673 65.1182C56.9767 64.9529 57.326 64.8702 57.7153 64.8702C58.0087 64.8702 58.2593 64.9209 58.4673 65.0222C58.6807 65.1182 58.846 65.2622 58.9633 65.4542C59.086 65.6409 59.1527 65.8649 59.1633 66.1262L58.8673 66.0622C59.0753 65.6622 59.35 65.3636 59.6913 65.1662C60.038 64.9689 60.43 64.8702 60.8673 64.8702ZM63.0477 69.1102L63.8797 64.9102H64.4477L63.6157 69.1102H63.0477ZM64.4077 63.9822C64.2957 63.9822 64.2024 63.9449 64.1277 63.8702C64.0584 63.7956 64.0237 63.7076 64.0237 63.6062C64.0237 63.4889 64.0637 63.3876 64.1437 63.3022C64.2291 63.2169 64.3357 63.1742 64.4637 63.1742C64.5757 63.1742 64.6691 63.2089 64.7437 63.2782C64.8184 63.3476 64.8557 63.4356 64.8557 63.5422C64.8557 63.6702 64.8131 63.7769 64.7277 63.8622C64.6424 63.9422 64.5357 63.9822 64.4077 63.9822ZM67.7642 64.8702C68.1428 64.8702 68.4522 64.9449 68.6922 65.0942C68.9375 65.2382 69.1055 65.4489 69.1962 65.7262C69.2922 66.0036 69.3002 66.3342 69.2202 66.7182L68.7402 69.1102H68.1722L68.6522 66.7102C68.7375 66.2942 68.6922 65.9689 68.5162 65.7342C68.3455 65.4996 68.0415 65.3822 67.6042 65.3822C67.1562 65.3822 66.7828 65.5049 66.4842 65.7502C66.1908 65.9956 65.9935 66.3636 65.8922 66.8542L65.4442 69.1102H64.8762L65.7082 64.9102H66.2522L66.0122 66.1182L65.8922 65.9102C66.0948 65.5476 66.3562 65.2836 66.6762 65.1182C67.0015 64.9529 67.3642 64.8702 67.7642 64.8702ZM71.1864 69.1502C70.8451 69.1502 70.5224 69.1022 70.2184 69.0062C69.9144 68.9102 69.6797 68.7876 69.5144 68.6382L69.7864 68.1902C69.9464 68.3342 70.1571 68.4489 70.4184 68.5342C70.6797 68.6142 70.9544 68.6542 71.2424 68.6542C71.6424 68.6542 71.9491 68.5876 72.1624 68.4542C72.3811 68.3209 72.4904 68.1369 72.4904 67.9022C72.4904 67.7422 72.4317 67.6222 72.3144 67.5422C72.2024 67.4569 72.0557 67.3929 71.8744 67.3502C71.6931 67.3022 71.5011 67.2569 71.2984 67.2142C71.0957 67.1716 70.9037 67.1182 70.7224 67.0542C70.5411 66.9849 70.3917 66.8809 70.2744 66.7422C70.1624 66.6036 70.1064 66.4169 70.1064 66.1822C70.1064 65.9156 70.1811 65.6836 70.3304 65.4862C70.4851 65.2889 70.6984 65.1369 70.9704 65.0302C71.2424 64.9236 71.5624 64.8702 71.9304 64.8702C72.1971 64.8702 72.4611 64.9049 72.7224 64.9742C72.9837 65.0436 73.1944 65.1396 73.3544 65.2622L73.1144 65.7182C72.9491 65.5902 72.7571 65.4996 72.5384 65.4462C72.3197 65.3876 72.1011 65.3582 71.8824 65.3582C71.4931 65.3582 71.1917 65.4302 70.9784 65.5742C70.7704 65.7129 70.6664 65.8969 70.6664 66.1262C70.6664 66.2862 70.7224 66.4089 70.8344 66.4942C70.9517 66.5796 71.1011 66.6462 71.2824 66.6942C71.4637 66.7422 71.6557 66.7876 71.8584 66.8302C72.0664 66.8676 72.2584 66.9209 72.4344 66.9902C72.6157 67.0596 72.7624 67.1609 72.8744 67.2942C72.9917 67.4222 73.0504 67.6036 73.0504 67.8382C73.0504 68.1156 72.9731 68.3529 72.8184 68.5502C72.6637 68.7422 72.4451 68.8916 72.1624 68.9982C71.8851 69.0996 71.5597 69.1502 71.1864 69.1502Z" fill="#999999"/>
<path d="M92.9735 64.7292C92.6222 64.7292 92.3275 64.6102 92.0895 64.3722C91.8515 64.1342 91.7325 63.8396 91.7325 63.4882C91.7325 63.1369 91.8515 62.8422 92.0895 62.6042C92.3275 62.3662 92.6222 62.2472 92.9735 62.2472C93.3135 62.2472 93.6025 62.3662 93.8405 62.6042C94.0785 62.8422 94.1975 63.1369 94.1975 63.4882C94.1975 63.8396 94.0785 64.1342 93.8405 64.3722C93.6025 64.6102 93.3135 64.7292 92.9735 64.7292ZM92.9735 57.5892C92.6222 57.5892 92.3275 57.4702 92.0895 57.2322C91.8515 56.9942 91.7325 56.6996 91.7325 56.3482C91.7325 55.9969 91.8515 55.7022 92.0895 55.4642C92.3275 55.2262 92.6222 55.1072 92.9735 55.1072C93.3135 55.1072 93.6025 55.2262 93.8405 55.4642C94.0785 55.7022 94.1975 55.9969 94.1975 56.3482C94.1975 56.6996 94.0785 56.9942 93.8405 57.2322C93.6025 57.4702 93.3135 57.5892 92.9735 57.5892Z" fill="#292929"/>
<path d="M111.647 51.9342C112.863 51.9342 113.882 52.1049 114.703 52.4462C115.535 52.7769 116.154 53.2302 116.559 53.8062C116.975 54.3716 117.183 55.0062 117.183 55.7102C117.183 57.3102 116.623 58.4729 115.503 59.1982C114.394 59.9129 112.906 60.2702 111.039 60.2702C109.471 60.2702 108.09 60.0089 106.895 59.4862C105.711 58.9529 104.853 58.0622 104.319 56.8142C104.906 56.7289 105.546 56.5902 106.239 56.3982C106.943 56.2062 107.578 56.0089 108.143 55.8062C108.367 56.2649 108.682 56.6009 109.087 56.8142C109.493 57.0169 110.037 57.1182 110.719 57.1182C111.445 57.1182 112.042 57.0009 112.511 56.7662C112.991 56.5316 113.231 56.2062 113.231 55.7902C113.231 55.3636 113.023 55.0062 112.607 54.7182C112.191 54.4302 111.557 54.2862 110.703 54.2862C110.149 54.2862 109.642 54.3876 109.183 54.5902C108.725 54.7822 108.394 55.0596 108.191 55.4222H104.495C104.751 54.3236 104.975 53.1396 105.167 51.8702C105.37 50.6009 105.493 49.4756 105.535 48.4942H116.767V51.5982C115.583 51.5236 114.463 51.4809 113.407 51.4702C112.362 51.4489 110.895 51.4382 109.007 51.4382L108.847 52.3342C109.658 52.0676 110.591 51.9342 111.647 51.9342ZM125.148 51.9342C126.364 51.9342 127.383 52.1049 128.204 52.4462C129.036 52.7769 129.655 53.2302 130.06 53.8062C130.476 54.3716 130.684 55.0062 130.684 55.7102C130.684 57.3102 130.124 58.4729 129.004 59.1982C127.895 59.9129 126.407 60.2702 124.54 60.2702C122.972 60.2702 121.591 60.0089 120.396 59.4862C119.212 58.9529 118.353 58.0622 117.82 56.8142C118.407 56.7289 119.047 56.5902 119.74 56.3982C120.444 56.2062 121.079 56.0089 121.644 55.8062C121.868 56.2649 122.183 56.6009 122.588 56.8142C122.993 57.0169 123.537 57.1182 124.22 57.1182C124.945 57.1182 125.543 57.0009 126.012 56.7662C126.492 56.5316 126.732 56.2062 126.732 55.7902C126.732 55.3636 126.524 55.0062 126.108 54.7182C125.692 54.4302 125.057 54.2862 124.204 54.2862C123.649 54.2862 123.143 54.3876 122.684 54.5902C122.225 54.7822 121.895 55.0596 121.692 55.4222H117.996C118.252 54.3236 118.476 53.1396 118.668 51.8702C118.871 50.6009 118.993 49.4756 119.036 48.4942H130.268V51.5982C129.084 51.5236 127.964 51.4809 126.908 51.4702C125.863 51.4489 124.396 51.4382 122.508 51.4382L122.348 52.3342C123.159 52.0676 124.092 51.9342 125.148 51.9342Z" fill="#292929"/>
<path d="M105.506 69.1502C105.164 69.1502 104.842 69.1022 104.538 69.0062C104.234 68.9102 103.999 68.7876 103.834 68.6382L104.106 68.1902C104.266 68.3342 104.476 68.4489 104.738 68.5342C104.999 68.6142 105.274 68.6542 105.562 68.6542C105.962 68.6542 106.268 68.5876 106.482 68.4542C106.7 68.3209 106.81 68.1369 106.81 67.9022C106.81 67.7422 106.751 67.6222 106.634 67.5422C106.522 67.4569 106.375 67.3929 106.194 67.3502C106.012 67.3022 105.82 67.2569 105.618 67.2142C105.415 67.1716 105.223 67.1182 105.042 67.0542C104.86 66.9849 104.711 66.8809 104.594 66.7422C104.482 66.6036 104.426 66.4169 104.426 66.1822C104.426 65.9156 104.5 65.6836 104.65 65.4862C104.804 65.2889 105.018 65.1369 105.29 65.0302C105.562 64.9236 105.882 64.8702 106.25 64.8702C106.516 64.8702 106.78 64.9049 107.042 64.9742C107.303 65.0436 107.514 65.1396 107.674 65.2622L107.434 65.7182C107.268 65.5902 107.076 65.4996 106.858 65.4462C106.639 65.3876 106.42 65.3582 106.202 65.3582C105.812 65.3582 105.511 65.4302 105.298 65.5742C105.09 65.7129 104.986 65.8969 104.986 66.1262C104.986 66.2862 105.042 66.4089 105.154 66.4942C105.271 66.5796 105.42 66.6462 105.602 66.6942C105.783 66.7422 105.975 66.7876 106.178 66.8302C106.386 66.8676 106.578 66.9209 106.754 66.9902C106.935 67.0596 107.082 67.1609 107.194 67.2942C107.311 67.4222 107.37 67.6036 107.37 67.8382C107.37 68.1156 107.292 68.3529 107.138 68.5502C106.983 68.7422 106.764 68.8916 106.482 68.9982C106.204 69.0996 105.879 69.1502 105.506 69.1502ZM109.788 69.1502C109.388 69.1502 109.039 69.0782 108.74 68.9342C108.447 68.7849 108.22 68.5769 108.06 68.3102C107.905 68.0436 107.828 67.7262 107.828 67.3582C107.828 66.8782 107.929 66.4516 108.132 66.0782C108.335 65.7049 108.612 65.4116 108.964 65.1982C109.316 64.9796 109.713 64.8702 110.156 64.8702C110.529 64.8702 110.852 64.9422 111.124 65.0862C111.396 65.2249 111.607 65.4276 111.756 65.6942C111.911 65.9609 111.988 66.2809 111.988 66.6542C111.988 66.7396 111.983 66.8276 111.972 66.9182C111.961 67.0036 111.948 67.0862 111.932 67.1662H108.244L108.316 66.7422H111.668L111.436 66.9022C111.489 66.5662 111.465 66.2836 111.364 66.0542C111.263 65.8249 111.105 65.6516 110.892 65.5342C110.684 65.4116 110.433 65.3502 110.14 65.3502C109.799 65.3502 109.495 65.4356 109.228 65.6062C108.961 65.7716 108.753 66.0036 108.604 66.3022C108.455 66.5956 108.38 66.9396 108.38 67.3342C108.38 67.7556 108.5 68.0809 108.74 68.3102C108.985 68.5342 109.351 68.6462 109.836 68.6462C110.119 68.6462 110.38 68.6009 110.62 68.5102C110.86 68.4142 111.057 68.2836 111.212 68.1182L111.468 68.5262C111.271 68.7236 111.023 68.8782 110.724 68.9902C110.431 69.0969 110.119 69.1502 109.788 69.1502ZM114.28 69.1502C113.88 69.1502 113.533 69.0782 113.24 68.9342C112.952 68.7849 112.728 68.5769 112.568 68.3102C112.413 68.0436 112.336 67.7289 112.336 67.3662C112.336 66.8862 112.44 66.4596 112.648 66.0862C112.856 65.7076 113.144 65.4116 113.512 65.1982C113.885 64.9796 114.309 64.8702 114.784 64.8702C115.173 64.8702 115.507 64.9422 115.784 65.0862C116.067 65.2249 116.285 65.4329 116.44 65.7102L115.96 65.9902C115.843 65.7769 115.68 65.6196 115.472 65.5182C115.269 65.4169 115.024 65.3662 114.736 65.3662C114.384 65.3662 114.069 65.4516 113.792 65.6222C113.515 65.7929 113.296 66.0276 113.136 66.3262C112.981 66.6196 112.904 66.9582 112.904 67.3422C112.904 67.7529 113.024 68.0729 113.264 68.3022C113.509 68.5316 113.856 68.6462 114.304 68.6462C114.576 68.6462 114.827 68.5956 115.056 68.4942C115.291 68.3876 115.483 68.2356 115.632 68.0382L116.04 68.3502C115.859 68.6009 115.611 68.7982 115.296 68.9422C114.981 69.0809 114.643 69.1502 114.28 69.1502ZM117.788 69.1502C117.447 69.1502 117.124 69.1022 116.82 69.0062C116.516 68.9102 116.281 68.7876 116.116 68.6382L116.388 68.1902C116.548 68.3342 116.759 68.4489 117.02 68.5342C117.281 68.6142 117.556 68.6542 117.844 68.6542C118.244 68.6542 118.551 68.5876 118.764 68.4542C118.983 68.3209 119.092 68.1369 119.092 67.9022C119.092 67.7422 119.033 67.6222 118.916 67.5422C118.804 67.4569 118.657 67.3929 118.476 67.3502C118.295 67.3022 118.103 67.2569 117.9 67.2142C117.697 67.1716 117.505 67.1182 117.324 67.0542C117.143 66.9849 116.993 66.8809 116.876 66.7422C116.764 66.6036 116.708 66.4169 116.708 66.1822C116.708 65.9156 116.783 65.6836 116.932 65.4862C117.087 65.2889 117.3 65.1369 117.572 65.0302C117.844 64.9236 118.164 64.8702 118.532 64.8702C118.799 64.8702 119.063 64.9049 119.324 64.9742C119.585 65.0436 119.796 65.1396 119.956 65.2622L119.716 65.7182C119.551 65.5902 119.359 65.4996 119.14 65.4462C118.921 65.3876 118.703 65.3582 118.484 65.3582C118.095 65.3582 117.793 65.4302 117.58 65.5742C117.372 65.7129 117.268 65.8969 117.268 66.1262C117.268 66.2862 117.324 66.4089 117.436 66.4942C117.553 66.5796 117.703 66.6462 117.884 66.6942C118.065 66.7422 118.257 66.7876 118.46 66.8302C118.668 66.8676 118.86 66.9209 119.036 66.9902C119.217 67.0596 119.364 67.1609 119.476 67.2942C119.593 67.4222 119.652 67.6036 119.652 67.8382C119.652 68.1156 119.575 68.3529 119.42 68.5502C119.265 68.7422 119.047 68.8916 118.764 68.9982C118.487 69.0996 118.161 69.1502 117.788 69.1502Z" fill="#999999"/>
</svg>
