<svg width="121" height="131" viewBox="0 0 121 131" fill="none" xmlns="http://www.w3.org/2000/svg">
<rect x="1.57633" y="-1.57633" width="92.1571" height="73.7722" rx="11.0343" transform="matrix(-1 0 0 1 107.538 3.8916)" stroke="#CBCBD5" stroke-width="3.15266"/>
<path d="M53.5876 2C53.5876 2 73.4216 2.00004 93.0076 2.00002C99.9723 2.00001 105.618 7.62433 105.618 14.589C105.618 28.3614 105.618 50.1258 105.618 63.8155C105.618 70.7802 99.972 76.4027 93.0073 76.4027H22.5869" stroke="#4D4D9D" stroke-width="3.78319" stroke-linecap="round"/>
<path d="M53.1445 32.168C53.7205 32.056 54.2885 32 54.8485 32C55.8245 32 56.6165 32.168 57.2245 32.504C57.8485 32.824 58.2965 33.24 58.5685 33.752C58.8405 34.248 58.9765 34.768 58.9765 35.312C58.9765 36.576 58.5605 37.656 57.7285 38.552C56.8965 39.432 55.7685 40.104 54.3445 40.568C52.9205 41.016 51.3365 41.24 49.5925 41.24C44.5365 41.24 41.2645 39.48 39.7765 35.96L41.1205 35.624C42.1125 35.384 42.9525 35.16 43.6405 34.952C44.3445 34.728 44.9605 34.48 45.4885 34.208C45.8085 35.008 46.2645 35.584 46.8565 35.936C47.4645 36.272 48.2965 36.44 49.3525 36.44C50.4725 36.44 51.3845 36.312 52.0885 36.056C52.7925 35.8 53.1445 35.416 53.1445 34.904C53.1445 34.632 53.0085 34.424 52.7365 34.28C52.4645 34.136 52.0325 34.04 51.4405 33.992C50.8485 33.928 50.0165 33.896 48.9445 33.896H47.1205V29.696H48.2245C49.4405 29.696 50.4325 29.648 51.2005 29.552C51.9685 29.44 52.3525 29.208 52.3525 28.856C52.3525 28.456 52.1445 28.136 51.7285 27.896C51.3285 27.64 50.6965 27.512 49.8325 27.512C48.7125 27.512 47.8005 27.744 47.0965 28.208C46.4085 28.672 45.8725 29.344 45.4885 30.224C43.7765 29.536 41.9525 29.048 40.0165 28.76C40.7845 27.032 41.9605 25.696 43.5445 24.752C45.1445 23.808 47.2005 23.336 49.7125 23.336C51.3445 23.336 52.8085 23.552 54.1045 23.984C55.4165 24.4 56.4405 24.984 57.1765 25.736C57.9285 26.488 58.3045 27.328 58.3045 28.256C58.3045 28.8 58.1765 29.288 57.9205 29.72C57.6645 30.136 57.1605 30.552 56.4085 30.968C55.6565 31.368 54.5685 31.768 53.1445 32.168ZM69.9891 41.24C66.5491 41.24 64.0131 40.448 62.3811 38.864C60.7491 37.28 59.9331 35.08 59.9331 32.264C59.9331 29.464 60.7491 27.28 62.3811 25.712C64.0291 24.128 66.5651 23.336 69.9891 23.336C73.4131 23.336 75.9411 24.128 77.5731 25.712C79.2051 27.28 80.0211 29.464 80.0211 32.264C80.0211 35.08 79.2051 37.28 77.5731 38.864C75.9411 40.448 73.4131 41.24 69.9891 41.24ZM70.0131 37.04C71.4851 37.04 72.5571 36.592 73.2291 35.696C73.9011 34.784 74.2371 33.64 74.2371 32.264C74.2371 30.904 73.9011 29.776 73.2291 28.88C72.5571 27.968 71.4851 27.512 70.0131 27.512C68.4931 27.512 67.3891 27.968 66.7011 28.88C66.0291 29.776 65.6931 30.904 65.6931 32.264C65.6931 33.624 66.0291 34.76 66.7011 35.672C67.3891 36.584 68.4931 37.04 70.0131 37.04Z" fill="#292929"/>
<path d="M26.8578 56V47.6H28.1418L31.8138 53.732H31.1418L34.7538 47.6H36.0378L36.0498 56H34.5738L34.5618 49.916H34.8738L31.8018 55.04H31.1058L27.9858 49.916H28.3458V56H26.8578ZM37.6948 56V49.592H39.1948V56H37.6948ZM38.4508 48.536C38.1708 48.536 37.9388 48.448 37.7548 48.272C37.5788 48.096 37.4908 47.884 37.4908 47.636C37.4908 47.38 37.5788 47.168 37.7548 47C37.9388 46.824 38.1708 46.736 38.4508 46.736C38.7308 46.736 38.9588 46.82 39.1348 46.988C39.3188 47.148 39.4108 47.352 39.4108 47.6C39.4108 47.864 39.3228 48.088 39.1468 48.272C38.9708 48.448 38.7388 48.536 38.4508 48.536ZM44.3195 49.52C44.8315 49.52 45.2875 49.62 45.6875 49.82C46.0955 50.02 46.4155 50.328 46.6475 50.744C46.8795 51.152 46.9955 51.68 46.9955 52.328V56H45.4955V52.52C45.4955 51.952 45.3595 51.528 45.0875 51.248C44.8235 50.968 44.4515 50.828 43.9715 50.828C43.6195 50.828 43.3075 50.9 43.0355 51.044C42.7635 51.188 42.5515 51.404 42.3995 51.692C42.2555 51.972 42.1835 52.328 42.1835 52.76V56H40.6835V49.592H42.1115V51.32L41.8595 50.792C42.0835 50.384 42.4075 50.072 42.8315 49.856C43.2635 49.632 43.7595 49.52 44.3195 49.52ZM51.1304 56.084C50.5864 56.084 50.1064 55.984 49.6904 55.784C49.2744 55.576 48.9504 55.264 48.7184 54.848C48.4864 54.424 48.3704 53.892 48.3704 53.252V49.592H49.8704V53.048C49.8704 53.624 49.9984 54.056 50.2544 54.344C50.5184 54.624 50.8904 54.764 51.3704 54.764C51.7224 54.764 52.0264 54.692 52.2824 54.548C52.5464 54.404 52.7504 54.188 52.8944 53.9C53.0464 53.612 53.1224 53.256 53.1224 52.832V49.592H54.6224V56H53.1944V54.272L53.4464 54.8C53.2304 55.216 52.9144 55.536 52.4984 55.76C52.0824 55.976 51.6264 56.084 51.1304 56.084ZM58.5183 56.084C57.8143 56.084 57.2703 55.904 56.8863 55.544C56.5023 55.176 56.3103 54.636 56.3103 53.924V48.176H57.8103V53.888C57.8103 54.192 57.8863 54.428 58.0383 54.596C58.1983 54.764 58.4183 54.848 58.6983 54.848C59.0343 54.848 59.3143 54.76 59.5383 54.584L59.9583 55.652C59.7823 55.796 59.5663 55.904 59.3103 55.976C59.0543 56.048 58.7903 56.084 58.5183 56.084ZM55.2543 50.84V49.64H59.5263V50.84H55.2543ZM63.5133 56.084C62.8013 56.084 62.1773 55.944 61.6413 55.664C61.1133 55.376 60.7013 54.984 60.4053 54.488C60.1173 53.992 59.9733 53.428 59.9733 52.796C59.9733 52.156 60.1133 51.592 60.3933 51.104C60.6813 50.608 61.0733 50.22 61.5693 49.94C62.0733 49.66 62.6453 49.52 63.2853 49.52C63.9093 49.52 64.4653 49.656 64.9533 49.928C65.4413 50.2 65.8253 50.584 66.1053 51.08C66.3853 51.576 66.5253 52.16 66.5253 52.832C66.5253 52.896 66.5213 52.968 66.5133 53.048C66.5133 53.128 66.5093 53.204 66.5013 53.276H61.1613V52.28H65.7093L65.1213 52.592C65.1293 52.224 65.0533 51.9 64.8933 51.62C64.7333 51.34 64.5133 51.12 64.2333 50.96C63.9613 50.8 63.6453 50.72 63.2853 50.72C62.9173 50.72 62.5933 50.8 62.3133 50.96C62.0413 51.12 61.8253 51.344 61.6653 51.632C61.5133 51.912 61.4373 52.244 61.4373 52.628V52.868C61.4373 53.252 61.5253 53.592 61.7013 53.888C61.8773 54.184 62.1253 54.412 62.4453 54.572C62.7653 54.732 63.1333 54.812 63.5493 54.812C63.9093 54.812 64.2333 54.756 64.5213 54.644C64.8093 54.532 65.0653 54.356 65.2893 54.116L66.0933 55.04C65.8053 55.376 65.4413 55.636 65.0013 55.82C64.5693 55.996 64.0733 56.084 63.5133 56.084ZM69.4662 56.084C68.9302 56.084 68.4142 56.016 67.9182 55.88C67.4302 55.736 67.0422 55.564 66.7542 55.364L67.3302 54.224C67.6182 54.408 67.9622 54.56 68.3622 54.68C68.7622 54.8 69.1622 54.86 69.5622 54.86C70.0342 54.86 70.3742 54.796 70.5822 54.668C70.7982 54.54 70.9062 54.368 70.9062 54.152C70.9062 53.976 70.8342 53.844 70.6902 53.756C70.5462 53.66 70.3582 53.588 70.1262 53.54C69.8942 53.492 69.6342 53.448 69.3462 53.408C69.0662 53.368 68.7822 53.316 68.4942 53.252C68.2142 53.18 67.9582 53.08 67.7262 52.952C67.4942 52.816 67.3062 52.636 67.1622 52.412C67.0182 52.188 66.9462 51.892 66.9462 51.524C66.9462 51.116 67.0622 50.764 67.2942 50.468C67.5262 50.164 67.8502 49.932 68.2662 49.772C68.6902 49.604 69.1902 49.52 69.7662 49.52C70.1982 49.52 70.6342 49.568 71.0742 49.664C71.5142 49.76 71.8782 49.896 72.1662 50.072L71.5902 51.212C71.2862 51.028 70.9782 50.904 70.6662 50.84C70.3622 50.768 70.0582 50.732 69.7542 50.732C69.2982 50.732 68.9582 50.8 68.7342 50.936C68.5182 51.072 68.4102 51.244 68.4102 51.452C68.4102 51.644 68.4822 51.788 68.6262 51.884C68.7702 51.98 68.9582 52.056 69.1902 52.112C69.4222 52.168 69.6782 52.216 69.9582 52.256C70.2462 52.288 70.5302 52.34 70.8102 52.412C71.0902 52.484 71.3462 52.584 71.5782 52.712C71.8182 52.832 72.0102 53.004 72.1542 53.228C72.2982 53.452 72.3702 53.744 72.3702 54.104C72.3702 54.504 72.2502 54.852 72.0102 55.148C71.7782 55.444 71.4462 55.676 71.0142 55.844C70.5822 56.004 70.0662 56.084 69.4662 56.084ZM76.0184 56V47.096H77.5184V56H76.0184ZM82.0191 56.084C81.3071 56.084 80.6831 55.944 80.1471 55.664C79.6191 55.376 79.2071 54.984 78.9111 54.488C78.6231 53.992 78.4791 53.428 78.4791 52.796C78.4791 52.156 78.6191 51.592 78.8991 51.104C79.1871 50.608 79.5791 50.22 80.0751 49.94C80.5791 49.66 81.1511 49.52 81.7911 49.52C82.4151 49.52 82.9711 49.656 83.4591 49.928C83.9471 50.2 84.3311 50.584 84.6111 51.08C84.8911 51.576 85.0311 52.16 85.0311 52.832C85.0311 52.896 85.0271 52.968 85.0191 53.048C85.0191 53.128 85.0151 53.204 85.0071 53.276H79.6671V52.28H84.2151L83.6271 52.592C83.6351 52.224 83.5591 51.9 83.3991 51.62C83.2391 51.34 83.0191 51.12 82.7391 50.96C82.4671 50.8 82.1511 50.72 81.7911 50.72C81.4231 50.72 81.0991 50.8 80.8191 50.96C80.5471 51.12 80.3311 51.344 80.1711 51.632C80.0191 51.912 79.9431 52.244 79.9431 52.628V52.868C79.9431 53.252 80.0311 53.592 80.2071 53.888C80.3831 54.184 80.6311 54.412 80.9511 54.572C81.2711 54.732 81.6391 54.812 82.0551 54.812C82.4151 54.812 82.7391 54.756 83.0271 54.644C83.3151 54.532 83.5711 54.356 83.7951 54.116L84.5991 55.04C84.3111 55.376 83.9471 55.636 83.5071 55.82C83.0751 55.996 82.5791 56.084 82.0191 56.084ZM86.196 56V49.232C86.196 48.56 86.392 48.024 86.784 47.624C87.184 47.216 87.752 47.012 88.488 47.012C88.752 47.012 89 47.04 89.232 47.096C89.472 47.152 89.672 47.24 89.832 47.36L89.424 48.488C89.312 48.4 89.184 48.336 89.04 48.296C88.896 48.248 88.748 48.224 88.596 48.224C88.284 48.224 88.048 48.312 87.888 48.488C87.728 48.656 87.648 48.912 87.648 49.256V49.976L87.696 50.648V56H86.196ZM85.14 50.84V49.64H89.412V50.84H85.14ZM92.3537 56.084C91.6497 56.084 91.1057 55.904 90.7217 55.544C90.3377 55.176 90.1457 54.636 90.1457 53.924V48.176H91.6457V53.888C91.6457 54.192 91.7217 54.428 91.8737 54.596C92.0337 54.764 92.2537 54.848 92.5337 54.848C92.8697 54.848 93.1497 54.76 93.3737 54.584L93.7937 55.652C93.6177 55.796 93.4017 55.904 93.1457 55.976C92.8897 56.048 92.6257 56.084 92.3537 56.084ZM89.0897 50.84V49.64H93.3617V50.84H89.0897Z" fill="#999999"/>
<rect x="0.799805" y="96.4023" width="119.401" height="33.7004" rx="8.70041" fill="#5552D9" fill-opacity="0.08"/>
<path d="M11.4928 119.753V107.153H16.6768C17.7928 107.153 18.7468 107.333 19.5388 107.693C20.3428 108.053 20.9608 108.569 21.3928 109.241C21.8248 109.913 22.0408 110.711 22.0408 111.635C22.0408 112.559 21.8248 113.357 21.3928 114.029C20.9608 114.701 20.3428 115.217 19.5388 115.577C18.7468 115.937 17.7928 116.117 16.6768 116.117H12.7888L13.8328 115.019V119.753H11.4928ZM13.8328 115.271L12.7888 114.137H16.5688C17.6008 114.137 18.3748 113.921 18.8908 113.489C19.4188 113.045 19.6828 112.427 19.6828 111.635C19.6828 110.831 19.4188 110.213 18.8908 109.781C18.3748 109.349 17.6008 109.133 16.5688 109.133H12.7888L13.8328 107.981V115.271ZM23.3537 119.753V110.141H25.4957V112.787L25.2437 112.013C25.5317 111.365 25.9817 110.873 26.5937 110.537C27.2177 110.201 27.9917 110.033 28.9157 110.033V112.175C28.8197 112.151 28.7297 112.139 28.6457 112.139C28.5617 112.127 28.4777 112.121 28.3937 112.121C27.5417 112.121 26.8637 112.373 26.3597 112.877C25.8557 113.369 25.6037 114.107 25.6037 115.091V119.753H23.3537ZM34.3365 119.879C33.3525 119.879 32.4765 119.669 31.7085 119.249C30.9405 118.817 30.3345 118.229 29.8905 117.485C29.4465 116.741 29.2245 115.895 29.2245 114.947C29.2245 113.987 29.4465 113.141 29.8905 112.409C30.3345 111.665 30.9405 111.083 31.7085 110.663C32.4765 110.243 33.3525 110.033 34.3365 110.033C35.3325 110.033 36.2145 110.243 36.9825 110.663C37.7625 111.083 38.3685 111.659 38.8005 112.391C39.2445 113.123 39.4665 113.975 39.4665 114.947C39.4665 115.895 39.2445 116.741 38.8005 117.485C38.3685 118.229 37.7625 118.817 36.9825 119.249C36.2145 119.669 35.3325 119.879 34.3365 119.879ZM34.3365 117.953C34.8885 117.953 35.3805 117.833 35.8125 117.593C36.2445 117.353 36.5805 117.005 36.8205 116.549C37.0725 116.093 37.1985 115.559 37.1985 114.947C37.1985 114.323 37.0725 113.789 36.8205 113.345C36.5805 112.889 36.2445 112.541 35.8125 112.301C35.3805 112.061 34.8945 111.941 34.3545 111.941C33.8025 111.941 33.3105 112.061 32.8785 112.301C32.4585 112.541 32.1225 112.889 31.8705 113.345C31.6185 113.789 31.4925 114.323 31.4925 114.947C31.4925 115.559 31.6185 116.093 31.8705 116.549C32.1225 117.005 32.4585 117.353 32.8785 117.593C33.3105 117.833 33.7965 117.953 34.3365 117.953ZM41.2041 119.753V109.601C41.2041 108.593 41.4981 107.789 42.0861 107.189C42.6861 106.577 43.5381 106.271 44.6421 106.271C45.0381 106.271 45.4101 106.313 45.7581 106.397C46.1181 106.481 46.4181 106.613 46.6581 106.793L46.0461 108.485C45.8781 108.353 45.6861 108.257 45.4701 108.197C45.2541 108.125 45.0321 108.089 44.8041 108.089C44.3361 108.089 43.9821 108.221 43.7421 108.485C43.5021 108.737 43.3821 109.121 43.3821 109.637V110.717L43.4541 111.725V119.753H41.2041ZM39.6201 112.013V110.213H46.0281V112.013H39.6201ZM47.6121 119.753V110.141H49.8621V119.753H47.6121ZM48.7461 108.557C48.3261 108.557 47.9781 108.425 47.7021 108.161C47.4381 107.897 47.3061 107.579 47.3061 107.207C47.3061 106.823 47.4381 106.505 47.7021 106.253C47.9781 105.989 48.3261 105.857 48.7461 105.857C49.1661 105.857 49.5081 105.983 49.7721 106.235C50.0481 106.475 50.1861 106.781 50.1861 107.153C50.1861 107.549 50.0541 107.885 49.7901 108.161C49.5261 108.425 49.1781 108.557 48.7461 108.557ZM55.714 119.879C54.658 119.879 53.842 119.609 53.266 119.069C52.69 118.517 52.402 117.707 52.402 116.639V108.017H54.652V116.585C54.652 117.041 54.766 117.395 54.994 117.647C55.234 117.899 55.564 118.025 55.984 118.025C56.488 118.025 56.908 117.893 57.244 117.629L57.874 119.231C57.61 119.447 57.286 119.609 56.902 119.717C56.518 119.825 56.122 119.879 55.714 119.879ZM50.818 112.013V110.213H57.226V112.013H50.818ZM67.1116 119.933C66.2356 119.933 65.4496 119.789 64.7536 119.501C64.0576 119.213 63.5116 118.817 63.1156 118.313C62.7196 117.809 62.5216 117.227 62.5216 116.567C62.5216 115.967 62.6536 115.427 62.9176 114.947C63.1816 114.467 63.6016 114.011 64.1776 113.579C64.7536 113.135 65.4916 112.691 66.3916 112.247C67.0996 111.899 67.6516 111.593 68.0476 111.329C68.4556 111.065 68.7376 110.813 68.8936 110.573C69.0616 110.333 69.1456 110.081 69.1456 109.817C69.1456 109.457 69.0196 109.169 68.7676 108.953C68.5156 108.725 68.1556 108.611 67.6876 108.611C67.1836 108.611 66.7876 108.737 66.4996 108.989C66.2236 109.229 66.0856 109.547 66.0856 109.943C66.0856 110.147 66.1216 110.345 66.1936 110.537C66.2776 110.729 66.4216 110.945 66.6256 111.185C66.8296 111.425 67.1236 111.731 67.5076 112.103L74.1676 118.493L72.9256 119.951L65.7256 113.039C65.3176 112.643 64.9876 112.277 64.7356 111.941C64.4836 111.605 64.3036 111.281 64.1956 110.969C64.0876 110.645 64.0336 110.315 64.0336 109.979C64.0336 109.391 64.1836 108.875 64.4836 108.431C64.7836 107.975 65.2096 107.627 65.7616 107.387C66.3136 107.135 66.9556 107.009 67.6876 107.009C68.3716 107.009 68.9596 107.123 69.4516 107.351C69.9556 107.567 70.3456 107.885 70.6216 108.305C70.9096 108.713 71.0536 109.205 71.0536 109.781C71.0536 110.285 70.9276 110.753 70.6756 111.185C70.4236 111.605 70.0276 112.007 69.4876 112.391C68.9596 112.775 68.2516 113.177 67.3636 113.597C66.7036 113.921 66.1816 114.227 65.7976 114.515C65.4136 114.803 65.1376 115.091 64.9696 115.379C64.8016 115.667 64.7176 115.985 64.7176 116.333C64.7176 116.681 64.8196 116.987 65.0236 117.251C65.2396 117.515 65.5396 117.725 65.9236 117.881C66.3076 118.025 66.7576 118.097 67.2736 118.097C68.0416 118.097 68.7376 117.929 69.3616 117.593C69.9976 117.245 70.5316 116.729 70.9636 116.045C71.3956 115.361 71.7076 114.515 71.8996 113.507L73.7176 114.101C73.4656 115.313 73.0276 116.357 72.4036 117.233C71.7916 118.097 71.0356 118.763 70.1356 119.231C69.2356 119.699 68.2276 119.933 67.1116 119.933ZM79.5031 119.753V106.397H81.7531V119.753H79.5031ZM88.3063 119.879C87.3223 119.879 86.4463 119.669 85.6783 119.249C84.9103 118.817 84.3043 118.229 83.8603 117.485C83.4163 116.741 83.1943 115.895 83.1943 114.947C83.1943 113.987 83.4163 113.141 83.8603 112.409C84.3043 111.665 84.9103 111.083 85.6783 110.663C86.4463 110.243 87.3223 110.033 88.3063 110.033C89.3023 110.033 90.1843 110.243 90.9523 110.663C91.7323 111.083 92.3383 111.659 92.7703 112.391C93.2143 113.123 93.4363 113.975 93.4363 114.947C93.4363 115.895 93.2143 116.741 92.7703 117.485C92.3383 118.229 91.7323 118.817 90.9523 119.249C90.1843 119.669 89.3023 119.879 88.3063 119.879ZM88.3063 117.953C88.8583 117.953 89.3503 117.833 89.7823 117.593C90.2143 117.353 90.5503 117.005 90.7903 116.549C91.0423 116.093 91.1683 115.559 91.1683 114.947C91.1683 114.323 91.0423 113.789 90.7903 113.345C90.5503 112.889 90.2143 112.541 89.7823 112.301C89.3503 112.061 88.8643 111.941 88.3243 111.941C87.7723 111.941 87.2803 112.061 86.8483 112.301C86.4283 112.541 86.0923 112.889 85.8403 113.345C85.5883 113.789 85.4623 114.323 85.4623 114.947C85.4623 115.559 85.5883 116.093 85.8403 116.549C86.0923 117.005 86.4283 117.353 86.8483 117.593C87.2803 117.833 87.7663 117.953 88.3063 117.953ZM97.8378 119.879C97.0338 119.879 96.2598 119.777 95.5158 119.573C94.7838 119.357 94.2018 119.099 93.7698 118.799L94.6338 117.089C95.0658 117.365 95.5818 117.593 96.1818 117.773C96.7818 117.953 97.3818 118.043 97.9818 118.043C98.6898 118.043 99.1998 117.947 99.5118 117.755C99.8358 117.563 99.9978 117.305 99.9978 116.981C99.9978 116.717 99.8898 116.519 99.6738 116.387C99.4578 116.243 99.1758 116.135 98.8278 116.063C98.4798 115.991 98.0898 115.925 97.6578 115.865C97.2378 115.805 96.8118 115.727 96.3798 115.631C95.9598 115.523 95.5758 115.373 95.2278 115.181C94.8798 114.977 94.5978 114.707 94.3818 114.371C94.1658 114.035 94.0578 113.591 94.0578 113.039C94.0578 112.427 94.2318 111.899 94.5798 111.455C94.9278 110.999 95.4138 110.651 96.0378 110.411C96.6738 110.159 97.4238 110.033 98.2878 110.033C98.9358 110.033 99.5898 110.105 100.25 110.249C100.91 110.393 101.456 110.597 101.888 110.861L101.024 112.571C100.568 112.295 100.106 112.109 99.6378 112.013C99.1818 111.905 98.7258 111.851 98.2698 111.851C97.5858 111.851 97.0758 111.953 96.7398 112.157C96.4158 112.361 96.2538 112.619 96.2538 112.931C96.2538 113.219 96.3618 113.435 96.5778 113.579C96.7938 113.723 97.0758 113.837 97.4238 113.921C97.7718 114.005 98.1558 114.077 98.5758 114.137C99.0078 114.185 99.4338 114.263 99.8538 114.371C100.274 114.479 100.658 114.629 101.006 114.821C101.366 115.001 101.654 115.259 101.87 115.595C102.086 115.931 102.194 116.369 102.194 116.909C102.194 117.509 102.014 118.031 101.654 118.475C101.306 118.919 100.808 119.267 100.16 119.519C99.5118 119.759 98.7378 119.879 97.8378 119.879ZM106.382 119.879C105.578 119.879 104.804 119.777 104.06 119.573C103.328 119.357 102.746 119.099 102.314 118.799L103.178 117.089C103.61 117.365 104.126 117.593 104.726 117.773C105.326 117.953 105.926 118.043 106.526 118.043C107.234 118.043 107.744 117.947 108.056 117.755C108.38 117.563 108.542 117.305 108.542 116.981C108.542 116.717 108.434 116.519 108.218 116.387C108.002 116.243 107.72 116.135 107.372 116.063C107.024 115.991 106.634 115.925 106.202 115.865C105.782 115.805 105.356 115.727 104.924 115.631C104.504 115.523 104.12 115.373 103.772 115.181C103.424 114.977 103.142 114.707 102.926 114.371C102.71 114.035 102.602 113.591 102.602 113.039C102.602 112.427 102.776 111.899 103.124 111.455C103.472 110.999 103.958 110.651 104.582 110.411C105.218 110.159 105.968 110.033 106.832 110.033C107.48 110.033 108.134 110.105 108.794 110.249C109.454 110.393 110 110.597 110.432 110.861L109.568 112.571C109.112 112.295 108.65 112.109 108.182 112.013C107.726 111.905 107.27 111.851 106.814 111.851C106.13 111.851 105.62 111.953 105.284 112.157C104.96 112.361 104.798 112.619 104.798 112.931C104.798 113.219 104.906 113.435 105.122 113.579C105.338 113.723 105.62 113.837 105.968 113.921C106.316 114.005 106.7 114.077 107.12 114.137C107.552 114.185 107.978 114.263 108.398 114.371C108.818 114.479 109.202 114.629 109.55 114.821C109.91 115.001 110.198 115.259 110.414 115.595C110.63 115.931 110.738 116.369 110.738 116.909C110.738 117.509 110.558 118.031 110.198 118.475C109.85 118.919 109.352 119.267 108.704 119.519C108.056 119.759 107.282 119.879 106.382 119.879Z" fill="#5552D9"/>
</svg>
