<svg width="100" height="100" viewBox="0 0 100 100" fill="none" xmlns="http://www.w3.org/2000/svg">
<circle cx="50" cy="50" r="47.5" fill="white" stroke="#CDCDCD" stroke-width="5"/>
<path d="M57.8327 33.668H41.166L46.896 28.668M41.166 40.3346H57.8327L52.1027 45.3346" stroke="#7D8089" stroke-width="3" stroke-linecap="round" stroke-linejoin="round"/>
<path d="M41.1663 22.564C43.6989 21.0988 46.5739 20.3295 49.4997 20.334C58.7047 20.334 66.1663 27.7957 66.1663 37.0007C66.1663 46.2057 58.7047 53.6673 49.4997 53.6673C40.2947 53.6673 32.833 46.2057 32.833 37.0007C32.833 33.9657 33.6447 31.1173 35.063 28.6673" stroke="#7D8089" stroke-width="3" stroke-linecap="round"/>
<path d="M21.776 78V68.56H18.064V66.8H27.568V68.56H23.856V78H21.776ZM28.0939 78V69.456H29.9979V71.808L29.7739 71.12C30.0299 70.544 30.4299 70.1067 30.9739 69.808C31.5285 69.5093 32.2165 69.36 33.0379 69.36V71.264C32.9525 71.2427 32.8725 71.232 32.7979 71.232C32.7232 71.2213 32.6485 71.216 32.5739 71.216C31.8165 71.216 31.2139 71.44 30.7659 71.888C30.3179 72.3253 30.0939 72.9813 30.0939 73.856V78H28.0939ZM38.7491 78V76.272L38.6371 75.904V72.88C38.6371 72.2933 38.4611 71.84 38.1091 71.52C37.7571 71.1893 37.2238 71.024 36.5091 71.024C36.0291 71.024 35.5545 71.0987 35.0851 71.248C34.6265 71.3973 34.2371 71.6053 33.9171 71.872L33.1331 70.416C33.5918 70.064 34.1358 69.8027 34.7651 69.632C35.4051 69.4507 36.0665 69.36 36.7491 69.36C37.9865 69.36 38.9411 69.6587 39.6131 70.256C40.2958 70.8427 40.6371 71.7547 40.6371 72.992V78H38.7491ZM36.0611 78.112C35.4211 78.112 34.8611 78.0053 34.3811 77.792C33.9011 77.568 33.5278 77.264 33.2611 76.88C33.0051 76.4853 32.8771 76.0427 32.8771 75.552C32.8771 75.072 32.9891 74.64 33.2131 74.256C33.4478 73.872 33.8265 73.568 34.3491 73.344C34.8718 73.12 35.5651 73.008 36.4291 73.008H38.9091V74.336H36.5731C35.8905 74.336 35.4318 74.448 35.1971 74.672C34.9625 74.8853 34.8451 75.152 34.8451 75.472C34.8451 75.8347 34.9891 76.1227 35.2771 76.336C35.5651 76.5493 35.9651 76.656 36.4771 76.656C36.9678 76.656 37.4051 76.544 37.7891 76.32C38.1838 76.096 38.4665 75.7653 38.6371 75.328L38.9731 76.528C38.7811 77.0293 38.4345 77.4187 37.9331 77.696C37.4425 77.9733 36.8185 78.112 36.0611 78.112ZM47.4119 69.36C48.0945 69.36 48.7025 69.4933 49.2359 69.76C49.7799 70.0267 50.2065 70.4373 50.5159 70.992C50.8252 71.536 50.9799 72.24 50.9799 73.104V78H48.9799V73.36C48.9799 72.6027 48.7985 72.0373 48.4359 71.664C48.0839 71.2907 47.5879 71.104 46.9479 71.104C46.4785 71.104 46.0625 71.2 45.6999 71.392C45.3372 71.584 45.0545 71.872 44.8519 72.256C44.6599 72.6293 44.5639 73.104 44.5639 73.68V78H42.5639V69.456H44.4679V71.76L44.1319 71.056C44.4305 70.512 44.8625 70.096 45.4279 69.808C46.0039 69.5093 46.6652 69.36 47.4119 69.36ZM55.517 78.112C54.8023 78.112 54.1143 78.0213 53.453 77.84C52.8023 77.648 52.285 77.4187 51.901 77.152L52.669 75.632C53.053 75.8773 53.5117 76.08 54.045 76.24C54.5783 76.4 55.1117 76.48 55.645 76.48C56.2743 76.48 56.7277 76.3947 57.005 76.224C57.293 76.0533 57.437 75.824 57.437 75.536C57.437 75.3013 57.341 75.1253 57.149 75.008C56.957 74.88 56.7063 74.784 56.397 74.72C56.0877 74.656 55.741 74.5973 55.357 74.544C54.9837 74.4907 54.605 74.4213 54.221 74.336C53.8477 74.24 53.5063 74.1067 53.197 73.936C52.8877 73.7547 52.637 73.5147 52.445 73.216C52.253 72.9173 52.157 72.5227 52.157 72.032C52.157 71.488 52.3117 71.0187 52.621 70.624C52.9303 70.2187 53.3623 69.9093 53.917 69.696C54.4823 69.472 55.149 69.36 55.917 69.36C56.493 69.36 57.0743 69.424 57.661 69.552C58.2477 69.68 58.733 69.8613 59.117 70.096L58.349 71.616C57.9437 71.3707 57.533 71.2053 57.117 71.12C56.7117 71.024 56.3063 70.976 55.901 70.976C55.293 70.976 54.8397 71.0667 54.541 71.248C54.253 71.4293 54.109 71.6587 54.109 71.936C54.109 72.192 54.205 72.384 54.397 72.512C54.589 72.64 54.8397 72.7413 55.149 72.816C55.4583 72.8907 55.7997 72.9547 56.173 73.008C56.557 73.0507 56.9357 73.12 57.309 73.216C57.6823 73.312 58.0237 73.4453 58.333 73.616C58.653 73.776 58.909 74.0053 59.101 74.304C59.293 74.6027 59.389 74.992 59.389 75.472C59.389 76.0053 59.229 76.4693 58.909 76.864C58.5997 77.2587 58.157 77.568 57.581 77.792C57.005 78.0053 56.317 78.112 55.517 78.112ZM60.7434 78V68.976C60.7434 68.08 61.0047 67.3653 61.5274 66.832C62.0607 66.288 62.818 66.016 63.7994 66.016C64.1514 66.016 64.482 66.0533 64.7914 66.128C65.1114 66.2027 65.378 66.32 65.5914 66.48L65.0474 67.984C64.898 67.8667 64.7274 67.7813 64.5354 67.728C64.3434 67.664 64.146 67.632 63.9434 67.632C63.5274 67.632 63.2127 67.7493 62.9994 67.984C62.786 68.208 62.6794 68.5493 62.6794 69.008V69.968L62.7434 70.864V78H60.7434ZM59.3354 71.12V69.52H65.0314V71.12H59.3354ZM69.6286 78.112C68.6793 78.112 67.8473 77.9253 67.1326 77.552C66.4286 77.168 65.8793 76.6453 65.4846 75.984C65.1006 75.3227 64.9086 74.5707 64.9086 73.728C64.9086 72.8747 65.0953 72.1227 65.4686 71.472C65.8526 70.8107 66.3753 70.2933 67.0366 69.92C67.7086 69.5467 68.4713 69.36 69.3246 69.36C70.1566 69.36 70.898 69.5413 71.5486 69.904C72.1993 70.2667 72.7113 70.7787 73.0846 71.44C73.458 72.1013 73.6446 72.88 73.6446 73.776C73.6446 73.8613 73.6393 73.9573 73.6286 74.064C73.6286 74.1707 73.6233 74.272 73.6126 74.368H66.4926V73.04H72.5566L71.7726 73.456C71.7833 72.9653 71.682 72.5333 71.4686 72.16C71.2553 71.7867 70.962 71.4933 70.5886 71.28C70.226 71.0667 69.8046 70.96 69.3246 70.96C68.834 70.96 68.402 71.0667 68.0286 71.28C67.666 71.4933 67.378 71.792 67.1646 72.176C66.962 72.5493 66.8606 72.992 66.8606 73.504V73.824C66.8606 74.336 66.978 74.7893 67.2126 75.184C67.4473 75.5787 67.778 75.8827 68.2046 76.096C68.6313 76.3093 69.122 76.416 69.6766 76.416C70.1566 76.416 70.5886 76.3413 70.9726 76.192C71.3566 76.0427 71.698 75.808 71.9966 75.488L73.0686 76.72C72.6846 77.168 72.1993 77.5147 71.6126 77.76C71.0366 77.9947 70.3753 78.112 69.6286 78.112ZM74.9258 78V69.456H76.8298V71.808L76.6058 71.12C76.8618 70.544 77.2618 70.1067 77.8058 69.808C78.3604 69.5093 79.0484 69.36 79.8698 69.36V71.264C79.7844 71.2427 79.7044 71.232 79.6298 71.232C79.5551 71.2213 79.4804 71.216 79.4058 71.216C78.6484 71.216 78.0458 71.44 77.5978 71.888C77.1498 72.3253 76.9258 72.9813 76.9258 73.856V78H74.9258Z" fill="#7D8089"/>
</svg>
