<svg width="147" height="53" viewBox="0 0 147 53" fill="none" xmlns="http://www.w3.org/2000/svg">
<mask id="path-1-inside-1_3693_98992" fill="white">
<path d="M0 26.5C0 12.1406 11.6406 0.5 26 0.5H121C135.359 0.5 147 12.1406 147 26.5C147 40.8594 135.359 52.5 121 52.5H26C11.6406 52.5 0 40.8594 0 26.5Z"/>
</mask>
<path d="M0 26.5C0 12.1406 11.6406 0.5 26 0.5H121C135.359 0.5 147 12.1406 147 26.5C147 40.8594 135.359 52.5 121 52.5H26C11.6406 52.5 0 40.8594 0 26.5Z" fill="#718ACA"/>
<path d="M43 28.5H37C36.7348 28.5 36.4804 28.3946 36.2929 28.2071C36.1054 28.0196 36 27.7652 36 27.5C36 27.2348 36.1054 26.9804 36.2929 26.7929C36.4804 26.6054 36.7348 26.5 37 26.5H40H43C43.2652 26.5 43.5196 26.6054 43.7071 26.7929C43.8946 26.9804 44 27.2348 44 27.5C44 27.7652 43.8946 28.0196 43.7071 28.2071C43.5196 28.3946 43.2652 28.5 43 28.5ZM40 28.5C39.7348 28.5 39.7416 28.5 39.5 28.5C39 28.5 39.5 28.5 39 28.5V26.5C39.5 26.5 39 26.5 39.5 26.5C40 26.5 39.7348 26.5 40 26.5C40.2652 26.5 40.5 26.5 40 26.5C40.4473 26.5 40.5 26.5 40.5 26.5V28.5C40 28.5 40.2652 28.5 40 28.5ZM31 20.5C32.654 20.5 34 21.846 34 23.5C34 25.154 32.654 26.5 31 26.5C29.346 26.5 28 25.154 28 23.5C28 21.846 29.346 20.5 31 20.5ZM31 18.5C28.236 18.5 26 20.738 26 23.5C26 26.262 28.236 28.5 31 28.5C33.764 28.5 36 26.262 36 23.5C36 20.738 33.764 18.5 31 18.5ZM31 31.5C33.021 31.5 34.301 32.271 34.783 32.945C34.1 33.205 32.814 33.5 31 33.5C29.016 33.5 27.794 33.195 27.182 32.958C27.641 32.243 28.959 31.5 31 31.5ZM31 29.5C27.25 29.5 25 31.5 25 33.5C25 34.5 27.25 35.5 31 35.5C34.518 35.5 37 34.5 37 33.5C37 31.5 34.646 29.5 31 29.5Z" fill="white"/>
<path d="M60.304 32.692C58.7147 32.692 57.472 32.2493 56.576 31.364C55.68 30.4787 55.232 29.2147 55.232 27.572V21.3H57.824V27.476C57.824 28.5427 58.0427 29.3107 58.48 29.78C58.9173 30.2493 59.5307 30.484 60.32 30.484C61.1093 30.484 61.7227 30.2493 62.16 29.78C62.5973 29.3107 62.816 28.5427 62.816 27.476V21.3H65.376V27.572C65.376 29.2147 64.928 30.4787 64.032 31.364C63.136 32.2493 61.8933 32.692 60.304 32.692ZM72.3534 23.764C73.036 23.764 73.644 23.9027 74.1774 24.18C74.7214 24.4467 75.148 24.8627 75.4574 25.428C75.7667 25.9827 75.9214 26.6973 75.9214 27.572V32.5H73.4254V27.956C73.4254 27.2627 73.2707 26.7507 72.9614 26.42C72.6627 26.0893 72.236 25.924 71.6814 25.924C71.2867 25.924 70.9294 26.0093 70.6094 26.18C70.3 26.34 70.0547 26.5907 69.8734 26.932C69.7027 27.2733 69.6174 27.7107 69.6174 28.244V32.5H67.1214V23.892H69.5054V26.276L69.0574 25.556C69.3667 24.98 69.8094 24.5373 70.3854 24.228C70.9614 23.9187 71.6174 23.764 72.3534 23.764ZM77.8479 32.5V23.7C77.8479 22.7293 78.1359 21.956 78.7119 21.38C79.2879 20.7933 80.1092 20.5 81.1759 20.5C81.5385 20.5 81.8852 20.5373 82.2159 20.612C82.5572 20.6867 82.8452 20.804 83.0799 20.964L82.4239 22.772C82.2852 22.676 82.1305 22.6013 81.9599 22.548C81.7892 22.4947 81.6079 22.468 81.4159 22.468C81.0532 22.468 80.7705 22.5747 80.5679 22.788C80.3759 22.9907 80.2799 23.3 80.2799 23.716V24.516L80.3439 25.588V32.5H77.8479ZM76.5199 26.004V24.084H82.4879V26.004H76.5199ZM87.078 32.628C86.1607 32.628 85.3447 32.436 84.63 32.052C83.926 31.668 83.366 31.1453 82.95 30.484C82.5447 29.812 82.342 29.0493 82.342 28.196C82.342 27.332 82.5447 26.5693 82.95 25.908C83.366 25.236 83.926 24.7133 84.63 24.34C85.3447 23.956 86.1607 23.764 87.078 23.764C87.9847 23.764 88.7953 23.956 89.51 24.34C90.2247 24.7133 90.7847 25.2307 91.19 25.892C91.5953 26.5533 91.798 27.3213 91.798 28.196C91.798 29.0493 91.5953 29.812 91.19 30.484C90.7847 31.1453 90.2247 31.668 89.51 32.052C88.7953 32.436 87.9847 32.628 87.078 32.628ZM87.078 30.58C87.494 30.58 87.8673 30.484 88.198 30.292C88.5287 30.1 88.79 29.828 88.982 29.476C89.174 29.1133 89.27 28.6867 89.27 28.196C89.27 27.6947 89.174 27.268 88.982 26.916C88.79 26.564 88.5287 26.292 88.198 26.1C87.8673 25.908 87.494 25.812 87.078 25.812C86.662 25.812 86.2887 25.908 85.958 26.1C85.6273 26.292 85.3607 26.564 85.158 26.916C84.966 27.268 84.87 27.6947 84.87 28.196C84.87 28.6867 84.966 29.1133 85.158 29.476C85.3607 29.828 85.6273 30.1 85.958 30.292C86.2887 30.484 86.662 30.58 87.078 30.58ZM92.8264 32.5V20.628H95.3224V32.5H92.8264ZM96.9989 32.5V20.628H99.4949V32.5H96.9989ZM105.267 32.628C104.35 32.628 103.534 32.436 102.819 32.052C102.115 31.668 101.555 31.1453 101.139 30.484C100.734 29.812 100.531 29.0493 100.531 28.196C100.531 27.332 100.734 26.5693 101.139 25.908C101.555 25.236 102.115 24.7133 102.819 24.34C103.534 23.956 104.35 23.764 105.267 23.764C106.174 23.764 106.985 23.956 107.699 24.34C108.414 24.7133 108.974 25.2307 109.379 25.892C109.785 26.5533 109.987 27.3213 109.987 28.196C109.987 29.0493 109.785 29.812 109.379 30.484C108.974 31.1453 108.414 31.668 107.699 32.052C106.985 32.436 106.174 32.628 105.267 32.628ZM105.267 30.58C105.683 30.58 106.057 30.484 106.387 30.292C106.718 30.1 106.979 29.828 107.171 29.476C107.363 29.1133 107.459 28.6867 107.459 28.196C107.459 27.6947 107.363 27.268 107.171 26.916C106.979 26.564 106.718 26.292 106.387 26.1C106.057 25.908 105.683 25.812 105.267 25.812C104.851 25.812 104.478 25.908 104.147 26.1C103.817 26.292 103.55 26.564 103.347 26.916C103.155 27.268 103.059 27.6947 103.059 28.196C103.059 28.6867 103.155 29.1133 103.347 29.476C103.55 29.828 103.817 30.1 104.147 30.292C104.478 30.484 104.851 30.58 105.267 30.58ZM112.749 32.5L109.645 23.892H111.997L114.573 31.3H113.453L116.141 23.892H118.253L120.861 31.3H119.741L122.397 23.892H124.605L121.485 32.5H119.069L116.781 26.148H117.517L115.149 32.5H112.749Z" fill="white"/>
<path d="M0 0.5H147H0ZM149 28C149 43.1878 136.688 55.5 121.5 55.5H29C12.9837 55.5 0 42.5163 0 26.5C0 39.2025 11.6406 49.5 26 49.5H121C134.255 49.5 145 39.2025 145 26.5L149 28ZM0 52.5V0.5V52.5ZM121.5 0.5C136.688 0.5 149 12.8122 149 28C149 43.1878 136.688 55.5 121.5 55.5L121 49.5C134.255 49.5 145 39.2025 145 26.5C145 12.1406 134.255 0.5 121 0.5H121.5Z" fill="#475780" mask="url(#path-1-inside-1_3693_98992)"/>
</svg>
