<svg width="466" height="96" viewBox="0 0 466 96" fill="none" xmlns="http://www.w3.org/2000/svg">
<circle cx="28" cy="48" r="26.5" fill="white" stroke="#718ACA" stroke-width="3"/>
<circle cx="28" cy="48" r="20" fill="#B3C3ED" stroke="#899CCC" stroke-width="2"/>
<path d="M26.808 55V43.3L27.834 44.362H24.144V42.4H29.148V55H26.808Z" fill="black"/>
<line x1="68" y1="47.5" x2="193" y2="47.5" stroke="#718ACA"/>
<circle cx="233" cy="48" r="26.5" fill="white" stroke="#E4EBFF" stroke-width="3"/>
<circle cx="233" cy="48" r="20" fill="#F7F8FA" stroke="#E4EBFF" stroke-width="2"/>
<path d="M227.63 55V53.434L232.634 48.682C233.054 48.286 233.366 47.938 233.57 47.638C233.774 47.338 233.906 47.062 233.966 46.81C234.038 46.546 234.074 46.3 234.074 46.072C234.074 45.496 233.876 45.052 233.48 44.74C233.084 44.416 232.502 44.254 231.734 44.254C231.122 44.254 230.564 44.362 230.06 44.578C229.568 44.794 229.142 45.124 228.782 45.568L227.144 44.308C227.636 43.648 228.296 43.138 229.124 42.778C229.964 42.406 230.9 42.22 231.932 42.22C232.844 42.22 233.636 42.37 234.308 42.67C234.992 42.958 235.514 43.372 235.874 43.912C236.246 44.452 236.432 45.094 236.432 45.838C236.432 46.246 236.378 46.654 236.27 47.062C236.162 47.458 235.958 47.878 235.658 48.322C235.358 48.766 234.92 49.264 234.344 49.816L230.042 53.902L229.556 53.02H236.918V55H227.63Z" fill="black"/>
<line x1="273" y1="47.5" x2="398" y2="47.5" stroke="#718ACA"/>
<circle cx="438" cy="48" r="26.5" fill="white" stroke="#E4EBFF" stroke-width="3"/>
<circle cx="438" cy="48" r="20" fill="#F7F8FA" stroke="#E4EBFF" stroke-width="2"/>
<path d="M436.752 55.18C435.864 55.18 434.994 55.054 434.142 54.802C433.302 54.538 432.594 54.178 432.018 53.722L433.026 51.904C433.482 52.276 434.034 52.576 434.682 52.804C435.33 53.032 436.008 53.146 436.716 53.146C437.556 53.146 438.21 52.978 438.678 52.642C439.146 52.294 439.38 51.826 439.38 51.238C439.38 50.662 439.164 50.206 438.732 49.87C438.3 49.534 437.604 49.366 436.644 49.366H435.492V47.764L439.092 43.48L439.398 44.362H432.63V42.4H441.216V43.966L437.616 48.25L436.392 47.53H437.094C438.642 47.53 439.8 47.878 440.568 48.574C441.348 49.258 441.738 50.14 441.738 51.22C441.738 51.928 441.558 52.582 441.198 53.182C440.838 53.782 440.286 54.268 439.542 54.64C438.81 55 437.88 55.18 436.752 55.18Z" fill="black"/>
</svg>
