<svg width="16" height="21" viewBox="0 0 16 21" fill="none" xmlns="http://www.w3.org/2000/svg">
<path opacity="0.3" d="M15 20.0137H1C0.4 20.0137 0 19.6137 0 19.0137V1.01367C0 0.413672 0.4 0.0136719 1 0.0136719H10L16 6.01367V19.0137C16 19.6137 15.6 20.0137 15 20.0137ZM11 15.0137C11 14.4137 10.6 14.0137 10 14.0137H4C3.4 14.0137 3 14.4137 3 15.0137C3 15.6137 3.4 16.0137 4 16.0137H10C10.6 16.0137 11 15.6137 11 15.0137ZM13 10.0137C13 9.41367 12.6 9.01367 12 9.01367H4C3.4 9.01367 3 9.41367 3 10.0137C3 10.6137 3.4 11.0137 4 11.0137H12C12.6 11.0137 13 10.6137 13 10.0137ZM13 5.01367C13 4.41367 12.6 4.01367 12 4.01367H4C3.4 4.01367 3 4.41367 3 5.01367C3 5.61367 3.4 6.01367 4 6.01367H12C12.6 6.01367 13 5.61367 13 5.01367Z" fill="#8A92A6"/>
</svg>
