<svg width="86" height="91" viewBox="0 0 86 91" fill="none" xmlns="http://www.w3.org/2000/svg">
<path d="M44.4591 8.179C44.5206 6.49633 43.205 5.07108 41.5222 5.12886C33.9539 5.38874 26.5686 7.64182 20.1257 11.6846C12.8201 16.2686 7.06402 22.9417 3.60569 30.8365C0.147358 38.7312 -0.853289 47.4825 0.733814 55.9527C2.32092 64.423 6.42237 72.2206 12.5051 78.3318C18.5877 84.4431 26.3703 88.5855 34.8413 90.2205C43.3122 91.8556 52.0797 90.9076 60.0041 87.5C67.9285 84.0923 74.6433 78.3825 79.2758 71.1127C83.36 64.7034 85.6591 57.3428 85.9649 49.7876C86.0331 48.1033 84.6141 46.7779 82.9292 46.8295C81.2442 46.8811 79.9333 48.291 79.8453 49.9745C79.5143 56.305 77.5522 62.4621 74.1259 67.8389C70.1511 74.0767 64.3895 78.9759 57.5901 81.8998C50.7907 84.8237 43.2679 85.637 35.9995 84.2341C28.7312 82.8312 22.0534 79.2769 16.8343 74.0332C11.6151 68.7895 8.09591 62.0989 6.73412 54.8311C5.37233 47.5633 6.23092 40.0544 9.19829 33.2805C12.1657 26.5065 17.1046 20.7808 23.3731 16.8475C28.7786 13.4556 34.9573 11.532 41.3 11.2398C42.9818 11.1623 44.3975 9.86146 44.4591 8.179Z" fill="#644DED"/>
<path d="M40.0117 54.5643L76.8682 18.1495C78.1777 16.8557 80.2719 16.8169 81.6284 18.0614C83.0868 19.3993 83.124 21.687 81.71 23.0717L40.0116 63.9056L21.8368 46.082C20.6246 44.8933 20.615 42.9441 21.8154 41.7435C22.9745 40.5842 24.8424 40.5472 26.0464 41.6598L40.0117 54.5643Z" fill="#644DED"/>
</svg>
