<svg width="19" height="18" viewBox="0 0 19 18" fill="none" xmlns="http://www.w3.org/2000/svg">
<path opacity="0.3" fill-rule="evenodd" clip-rule="evenodd" d="M9.33301 16.5C13.4751 16.5 16.833 13.1421 16.833 9C16.833 4.85786 13.4751 1.5 9.33301 1.5C5.19087 1.5 1.83301 4.85786 1.83301 9C1.83301 13.1421 5.19087 16.5 9.33301 16.5Z" fill="#50CD89"/>
<path d="M12.9097 5.86326C13.1924 5.56045 13.6669 5.54409 13.9698 5.82671C14.2726 6.10934 14.2889 6.58393 14.0063 6.88674L8.75631 12.5117C8.4821 12.8055 8.02505 12.831 7.71993 12.5694L5.09493 10.3194C4.78043 10.0499 4.74401 9.5764 5.01358 9.26191C5.28315 8.94741 5.75662 8.91099 6.07111 9.18056L8.15027 10.9627L12.9097 5.86326Z" fill="#50CD89"/>
</svg>
