<svg width="24" height="25" viewBox="0 0 24 25" fill="none" xmlns="http://www.w3.org/2000/svg">
<path opacity="0.3" d="M21 22.0137H14C13.4 22.0137 13 21.6137 13 21.0137V3.01367C13 2.41367 13.4 2.01367 14 2.01367H21C21.6 2.01367 22 2.41367 22 3.01367V21.0137C22 21.6137 21.6 22.0137 21 22.0137Z" fill="white"/>
<path d="M10 22.0137H3C2.4 22.0137 2 21.6137 2 21.0137V3.01367C2 2.41367 2.4 2.01367 3 2.01367H10C10.6 2.01367 11 2.41367 11 3.01367V21.0137C11 21.6137 10.6 22.0137 10 22.0137Z" fill="white"/>
</svg>
