<svg width="81" height="48" viewBox="0 0 81 48" fill="none" xmlns="http://www.w3.org/2000/svg">
<rect x="0.5" width="80" height="48" rx="6" fill="#F6F8FA"/>
<g clip-path="url(#clip0_1069_244905)">
<path d="M47.629 35.9643H34.3779V12.2266H47.6292L47.629 35.9643Z" fill="#FF5F00"/>
<path d="M35.218 24.0967C35.218 19.2815 37.4798 14.9921 41.002 12.2278C38.3359 10.1323 35.0384 8.99502 31.6432 9.00002C23.2796 9.00002 16.5 15.7589 16.5 24.0967C16.5 32.4345 23.2796 39.1934 31.6432 39.1934C35.0385 39.1984 38.3361 38.0611 41.0022 35.9656C37.4803 33.2018 35.218 28.9121 35.218 24.0967Z" fill="#EB001B"/>
<path d="M65.5061 24.0967C65.5061 32.4345 58.7265 39.1934 50.3629 39.1934C46.9673 39.1984 43.6693 38.0611 41.0027 35.9656C44.5258 33.2013 46.7876 28.9121 46.7876 24.0967C46.7876 19.2813 44.5258 14.9921 41.0027 12.2278C43.6693 10.1324 46.9671 8.9951 50.3627 9.00002C58.7263 9.00002 65.5059 15.7589 65.5059 24.0967" fill="#F79E1B"/>
</g>
<defs>
<clipPath id="clip0_1069_244905">
<rect width="49" height="38" fill="white" transform="translate(16.5 9)"/>
</clipPath>
</defs>
</svg>
