<svg width="16" height="16" viewBox="0 0 16 16" fill="none" xmlns="http://www.w3.org/2000/svg">
<path fill-rule="evenodd" clip-rule="evenodd" d="M8.5 7.5H12C12.2761 7.5 12.5 7.72386 12.5 8C12.5 8.27614 12.2761 8.5 12 8.5H8.5V12C8.5 12.2761 8.27614 12.5 8 12.5C7.72386 12.5 7.5 12.2761 7.5 12V8.5H4C3.72386 8.5 3.5 8.27614 3.5 8C3.5 7.72386 3.72386 7.5 4 7.5H7.5V4C7.5 3.72386 7.72386 3.5 8 3.5C8.27614 3.5 8.5 3.72386 8.5 4V7.5ZM8 0.5C12.1356 0.5 15.5 3.86441 15.5 8C15.5 12.1356 12.1356 15.5 8 15.5C3.86441 15.5 0.5 12.1356 0.5 8C0.5 3.86441 3.86441 0.5 8 0.5ZM8 1.38235C4.34529 1.38235 1.38235 4.34529 1.38235 8C1.38235 11.6547 4.34529 14.6176 8 14.6176C11.6547 14.6176 14.6176 11.6547 14.6176 8C14.6176 4.34529 11.6547 1.38235 8 1.38235Z" fill="#5D42FF"/>
</svg>
