<svg width="81" height="48" viewBox="0 0 81 48" fill="none" xmlns="http://www.w3.org/2000/svg">
<rect x="0.5" width="80" height="48" rx="6" fill="#F6F8FA"/>
<path d="M37.21 33.6833H32.559L35.4658 15.328H40.1174L37.21 33.6833ZM28.6462 15.328L24.212 27.9529L23.6874 25.2343L23.6878 25.2353L22.1228 16.9807C22.1228 16.9807 21.9336 15.328 19.9165 15.328H12.586L12.5 15.6388C12.5 15.6388 14.7417 16.118 17.3652 17.7368L21.406 33.6838H26.2521L33.6518 15.328H28.6462ZM65.2293 33.6833H69.5L65.7765 15.3275H62.0376C60.3111 15.3275 59.8906 16.6954 59.8906 16.6954L52.9538 33.6833H57.8023L58.7719 30.9568H64.6845L65.2293 33.6833ZM60.1113 27.1904L62.5552 20.3214L63.93 27.1904H60.1113ZM53.3175 19.742L53.9813 15.8003C53.9813 15.8003 51.9331 15 49.798 15C47.4899 15 42.0088 16.0365 42.0088 21.0765C42.0088 25.8186 48.4418 25.8775 48.4418 28.3683C48.4418 30.8591 42.6716 30.4128 40.7673 28.8421L40.0758 32.9635C40.0758 32.9635 42.1526 34 45.3257 34C48.4996 34 53.2879 32.3115 53.2879 27.7158C53.2879 22.9433 46.797 22.499 46.797 20.424C46.7975 18.3486 51.3272 18.6152 53.3175 19.742Z" fill="#2566AF"/>
<path d="M23.6878 25.2354L22.1228 16.9808C22.1228 16.9808 21.9336 15.3281 19.9165 15.3281H12.586L12.5 15.6389C12.5 15.6389 16.0233 16.3892 19.4028 19.2001C22.6341 21.8868 23.6878 25.2354 23.6878 25.2354Z" fill="#E6A540"/>
</svg>
