<svg width="14" height="14" viewBox="0 0 14 14" fill="none" xmlns="http://www.w3.org/2000/svg">
<path opacity="0.25" fill-rule="evenodd" clip-rule="evenodd" d="M7.00008 2.33268C4.42275 2.33268 2.33341 4.42202 2.33341 6.99935C2.33341 9.57668 4.42275 11.666 7.00008 11.666C7.74616 11.666 8.44978 11.4914 9.07381 11.1812C9.36232 11.0379 9.71242 11.1555 9.8558 11.444C9.99917 11.7325 9.88152 12.0826 9.59302 12.226C8.81126 12.6145 7.93032 12.8327 7.00008 12.8327C3.77842 12.8327 1.16675 10.221 1.16675 6.99935C1.16675 3.77769 3.77842 1.16602 7.00008 1.16602C10.2217 1.16602 12.8334 3.77769 12.8334 6.99935V7.00455C12.8334 7.16341 12.8336 7.82272 12.6212 8.45986C12.5128 8.78501 12.3359 9.14601 12.0378 9.43086C11.7259 9.72898 11.3087 9.91602 10.7917 9.91602C10.4696 9.91602 10.2084 9.65485 10.2084 9.33268C10.2084 9.01052 10.4696 8.74935 10.7917 8.74935C11.004 8.74935 11.1337 8.68118 11.2318 8.58737C11.3439 8.48029 11.4405 8.31265 11.5144 8.09092C11.6642 7.64152 11.6667 7.14189 11.6667 6.99935C11.6667 4.42202 9.57741 2.33268 7.00008 2.33268Z" fill="#5E6278"/>
<path fill-rule="evenodd" clip-rule="evenodd" d="M8.74992 7.00065C8.74992 7.96715 7.96642 8.75065 6.99992 8.75065C6.03342 8.75065 5.24992 7.96715 5.24992 7.00065C5.24992 6.03415 6.03342 5.25065 6.99992 5.25065C7.96642 5.25065 8.74992 6.03415 8.74992 7.00065ZM9.18774 8.92954C8.65329 9.53526 7.87122 9.91732 6.99992 9.91732C5.38909 9.91732 4.08325 8.61148 4.08325 7.00065C4.08325 5.38982 5.38909 4.08398 6.99992 4.08398C7.65652 4.08398 8.26245 4.30095 8.74992 4.66711C8.75004 4.34504 9.01116 4.08398 9.33326 4.08398C9.65542 4.08398 9.91659 4.34515 9.91659 4.66732C9.91659 6.15662 9.9202 7.24276 10.0844 7.96512C10.1647 8.31847 10.2684 8.50785 10.3655 8.60705C10.4427 8.68603 10.5561 8.75065 10.7916 8.75065C11.1138 8.75065 11.3749 9.01182 11.3749 9.33398C11.3749 9.65615 11.1138 9.91732 10.7916 9.91732C10.298 9.91732 9.8644 9.76319 9.5315 9.4229C9.38992 9.27817 9.27767 9.11088 9.18774 8.92954Z" fill="#5E6278"/>
</svg>
