<svg width="17" height="15" viewBox="0 0 17 15" fill="none" xmlns="http://www.w3.org/2000/svg">
<path opacity="0.25" d="M9.18711 9.67027C9.30172 8.92033 9.95463 8.33526 10.7915 8.23256C11.2715 8.17365 11.7929 8.125 12.2057 8.125C12.6185 8.125 13.1398 8.17365 13.6198 8.23256C14.4567 8.33526 15.1096 8.92033 15.2243 9.67027C15.29 10.1004 15.3443 10.5676 15.3443 10.9375C15.3443 11.3074 15.29 11.7746 15.2243 12.2047C15.1096 12.9547 14.4567 13.5397 13.6198 13.6424C13.1398 13.7014 12.6185 13.75 12.2057 13.75C11.7929 13.75 11.2715 13.7014 10.7915 13.6424C9.95463 13.5397 9.30172 12.9547 9.18711 12.2047C9.12137 11.7746 9.06708 11.3074 9.06708 10.9375C9.06708 10.5676 9.12137 10.1004 9.18711 9.67027Z" fill="#644DED"/>
<path opacity="0.25" d="M1.51496 9.67027C1.62957 8.92033 2.28248 8.33526 3.11937 8.23256C3.59937 8.17365 4.12074 8.125 4.53353 8.125C4.94632 8.125 5.46769 8.17365 5.94769 8.23256C6.78458 8.33526 7.43749 8.92033 7.5521 9.67027C7.61784 10.1004 7.67213 10.5676 7.67213 10.9375C7.67213 11.3074 7.61784 11.7746 7.5521 12.2047C7.43749 12.9547 6.78458 13.5397 5.94769 13.6424C5.46769 13.7014 4.94632 13.75 4.53353 13.75C4.12074 13.75 3.59937 13.7014 3.11937 13.6424C2.28248 13.5397 1.62957 12.9547 1.51496 12.2047C1.44922 11.7746 1.39493 11.3074 1.39493 10.9375C1.39493 10.5676 1.44922 10.1004 1.51496 9.67027Z" fill="#644DED"/>
<path opacity="0.25" d="M9.18711 2.79527C9.30172 2.04533 9.95463 1.46026 10.7915 1.35756C11.2715 1.29865 11.7929 1.25 12.2057 1.25C12.6185 1.25 13.1398 1.29865 13.6198 1.35756C14.4567 1.46026 15.1096 2.04533 15.2243 2.79527C15.29 3.2254 15.3443 3.6926 15.3443 4.0625C15.3443 4.4324 15.29 4.8996 15.2243 5.32973C15.1096 6.07967 14.4567 6.66474 13.6198 6.76744C13.1398 6.82635 12.6185 6.875 12.2057 6.875C11.7929 6.875 11.2715 6.82635 10.7915 6.76744C9.95463 6.66474 9.30172 6.07967 9.18711 5.32973C9.12137 4.8996 9.06708 4.4324 9.06708 4.0625C9.06708 3.6926 9.12137 3.2254 9.18711 2.79527Z" fill="#644DED"/>
<path d="M1.51496 2.79527C1.62957 2.04533 2.28248 1.46026 3.11937 1.35756C3.59937 1.29865 4.12074 1.25 4.53353 1.25C4.94632 1.25 5.46769 1.29865 5.94769 1.35756C6.78458 1.46026 7.43749 2.04533 7.5521 2.79527C7.61784 3.2254 7.67213 3.6926 7.67213 4.0625C7.67213 4.4324 7.61784 4.8996 7.5521 5.32973C7.43749 6.07967 6.78458 6.66474 5.94769 6.76744C5.46769 6.82635 4.94632 6.875 4.53353 6.875C4.12074 6.875 3.59937 6.82635 3.11937 6.76744C2.28248 6.66474 1.62957 6.07967 1.51496 5.32973C1.44922 4.8996 1.39493 4.4324 1.39493 4.0625C1.39493 3.6926 1.44922 3.2254 1.51496 2.79527Z" fill="#644DED"/>
</svg>
