<svg width="18" height="15" viewBox="0 0 18 15" fill="none" xmlns="http://www.w3.org/2000/svg">
<path d="M14.3519 1.4138C15.1935 1.47902 15.8488 2.04533 15.9634 2.79527C16.0292 3.2254 16.0835 3.6926 16.0835 4.0625C16.0835 4.4324 16.0292 4.8996 15.9634 5.32973C15.8488 6.07967 15.1935 6.64598 14.3519 6.7112C13.3124 6.79176 11.6286 6.875 9.10879 6.875C6.58895 6.875 4.90517 6.79176 3.86567 6.7112C3.02411 6.64597 2.36877 6.07967 2.25415 5.32973C2.18841 4.8996 2.13412 4.4324 2.13412 4.0625C2.13412 3.6926 2.18841 3.2254 2.25415 2.79527C2.36877 2.04533 3.02411 1.47902 3.86567 1.4138C4.90517 1.33324 6.58895 1.25 9.10879 1.25C11.6286 1.25 13.3124 1.33324 14.3519 1.4138Z" fill="#A1A5B7"/>
<path opacity="0.25" d="M14.3519 8.2888C15.1935 8.35402 15.8488 8.92033 15.9634 9.67027C16.0292 10.1004 16.0835 10.5676 16.0835 10.9375C16.0835 11.3074 16.0292 11.7746 15.9634 12.2047C15.8488 12.9547 15.1935 13.521 14.3519 13.5862C13.3124 13.6668 11.6286 13.75 9.10879 13.75C6.58895 13.75 4.90517 13.6668 3.86567 13.5862C3.02411 13.521 2.36877 12.9547 2.25415 12.2047C2.18841 11.7746 2.13412 11.3074 2.13412 10.9375C2.13412 10.5676 2.18841 10.1004 2.25415 9.67027C2.36877 8.92033 3.02411 8.35402 3.86567 8.2888C4.90517 8.20824 6.58895 8.125 9.10879 8.125C11.6286 8.125 13.3124 8.20824 14.3519 8.2888Z" fill="#A1A5B7"/>
</svg>
