<svg width="14" height="14" viewBox="0 0 14 14" fill="none" xmlns="http://www.w3.org/2000/svg">
<path opacity="0.25" d="M12.25 5.83398C12.25 9.03747 9.4352 11.7718 7.92773 13.0065C7.38118 13.4541 6.61882 13.4541 6.07227 13.0065C4.5648 11.7718 1.75 9.03747 1.75 5.83398C1.75 2.93449 4.1005 0.583984 7 0.583984C9.8995 0.583984 12.25 2.93449 12.25 5.83398Z" fill="#5E6278"/>
<path d="M8.75 5.25C8.75 6.2165 7.9665 7 7 7C6.0335 7 5.25 6.2165 5.25 5.25C5.25 4.2835 6.0335 3.5 7 3.5C7.9665 3.5 8.75 4.2835 8.75 5.25Z" fill="#5E6278"/>
</svg>
