<svg width="13" height="12" viewBox="0 0 13 12" fill="none" xmlns="http://www.w3.org/2000/svg">
<path opacity="0.6" d="M5.19564 6.10256C4.04305 6.10256 3.10869 5.18417 3.10869 4.05128C3.10869 2.91839 4.04305 2 5.19564 2C6.34824 2 7.2826 2.91839 7.2826 4.05128C7.2826 5.18417 6.34824 6.10256 5.19564 6.10256Z" fill="#A1A5B7"/>
<path d="M0.500334 10.8618C0.699107 8.65899 2.6856 7.53906 5.10684 7.53906C7.56216 7.53906 9.57943 8.59746 9.7297 10.8621C9.73569 10.9524 9.7297 11.2314 9.34446 11.2314C7.44417 11.2314 4.62037 11.2314 0.873078 11.2314C0.744468 11.2314 0.489507 10.9818 0.500334 10.8618Z" fill="#A1A5B7"/>
</svg>
