<svg width="412" height="70" viewBox="0 0 412 70" fill="none" xmlns="http://www.w3.org/2000/svg">
<circle cx="35.5" cy="35" r="34" stroke="#5D42FF" stroke-width="2"/>
<rect x="18.4568" y="15.8262" width="23.4348" height="6.08696" rx="3.04348" fill="#644DED"/>
<rect x="18.4568" y="23.8914" width="12.7826" height="6.08696" rx="3.04348" fill="#644DED"/>
<rect x="18.4568" y="31.9565" width="22.3696" height="6.08696" rx="3.04348" fill="#AD9FFF"/>
<rect x="18.4568" y="40.0217" width="15.2174" height="6.08696" rx="3.04348" fill="#8960FF"/>
<rect x="18.4568" y="48.0869" width="10.1957" height="6.08696" rx="3.04348" fill="#644DED"/>
<rect x="30.9351" y="48.0869" width="10.9565" height="6.08696" rx="3.04348" fill="#644DED"/>
<rect x="35.9568" y="40.0217" width="12.4783" height="6.08696" rx="3.04348" fill="#AD9FFF"/>
<rect x="43.109" y="31.9565" width="9.43478" height="6.08696" rx="3.04348" fill="#644DED"/>
<rect x="33.2177" y="23.8914" width="16.1304" height="6.08696" rx="3.04348" fill="#8960FF"/>
<path d="M107.068 26.152V43H102.964V32.896L99.196 43H95.884L92.092 32.872V43H87.988V26.152H92.836L97.564 37.816L102.244 26.152H107.068ZM109.203 36.28C109.203 34.904 109.459 33.696 109.971 32.656C110.499 31.616 111.211 30.816 112.107 30.256C113.003 29.696 114.003 29.416 115.107 29.416C116.051 29.416 116.875 29.608 117.579 29.992C118.299 30.376 118.851 30.88 119.235 31.504V29.608H123.339V43H119.235V41.104C118.835 41.728 118.275 42.232 117.555 42.616C116.851 43 116.027 43.192 115.083 43.192C113.995 43.192 113.003 42.912 112.107 42.352C111.211 41.776 110.499 40.968 109.971 39.928C109.459 38.872 109.203 37.656 109.203 36.28ZM119.235 36.304C119.235 35.28 118.947 34.472 118.371 33.88C117.811 33.288 117.123 32.992 116.307 32.992C115.491 32.992 114.795 33.288 114.219 33.88C113.659 34.456 113.379 35.256 113.379 36.28C113.379 37.304 113.659 38.12 114.219 38.728C114.795 39.32 115.491 39.616 116.307 39.616C117.123 39.616 117.811 39.32 118.371 38.728C118.947 38.136 119.235 37.328 119.235 36.304ZM131.756 43.192C130.588 43.192 129.548 42.992 128.636 42.592C127.724 42.192 127.004 41.648 126.476 40.96C125.948 40.256 125.652 39.472 125.588 38.608H129.644C129.692 39.072 129.908 39.448 130.292 39.736C130.676 40.024 131.148 40.168 131.708 40.168C132.22 40.168 132.612 40.072 132.884 39.88C133.172 39.672 133.316 39.408 133.316 39.088C133.316 38.704 133.116 38.424 132.716 38.248C132.316 38.056 131.668 37.848 130.772 37.624C129.812 37.4 129.012 37.168 128.372 36.928C127.732 36.672 127.18 36.28 126.716 35.752C126.252 35.208 126.02 34.48 126.02 33.568C126.02 32.8 126.228 32.104 126.644 31.48C127.076 30.84 127.7 30.336 128.516 29.968C129.348 29.6 130.332 29.416 131.468 29.416C133.148 29.416 134.468 29.832 135.428 30.664C136.404 31.496 136.964 32.6 137.108 33.976H133.316C133.252 33.512 133.044 33.144 132.692 32.872C132.356 32.6 131.908 32.464 131.348 32.464C130.868 32.464 130.5 32.56 130.244 32.752C129.988 32.928 129.86 33.176 129.86 33.496C129.86 33.88 130.06 34.168 130.46 34.36C130.876 34.552 131.516 34.744 132.38 34.936C133.372 35.192 134.18 35.448 134.804 35.704C135.428 35.944 135.972 36.344 136.436 36.904C136.916 37.448 137.164 38.184 137.18 39.112C137.18 39.896 136.956 40.6 136.508 41.224C136.076 41.832 135.444 42.312 134.612 42.664C133.796 43.016 132.844 43.192 131.756 43.192ZM147.155 39.52V43H145.067C143.579 43 142.419 42.64 141.587 41.92C140.755 41.184 140.339 39.992 140.339 38.344V33.016H138.707V29.608H140.339V26.344H144.443V29.608H147.131V33.016H144.443V38.392C144.443 38.792 144.539 39.08 144.731 39.256C144.923 39.432 145.243 39.52 145.691 39.52H147.155ZM162.065 36.088C162.065 36.472 162.041 36.872 161.993 37.288H152.705C152.769 38.12 153.033 38.76 153.497 39.208C153.977 39.64 154.561 39.856 155.249 39.856C156.273 39.856 156.985 39.424 157.385 38.56H161.753C161.529 39.44 161.121 40.232 160.529 40.936C159.953 41.64 159.225 42.192 158.345 42.592C157.465 42.992 156.481 43.192 155.393 43.192C154.081 43.192 152.913 42.912 151.889 42.352C150.865 41.792 150.065 40.992 149.489 39.952C148.913 38.912 148.625 37.696 148.625 36.304C148.625 34.912 148.905 33.696 149.465 32.656C150.041 31.616 150.841 30.816 151.865 30.256C152.889 29.696 154.065 29.416 155.393 29.416C156.689 29.416 157.841 29.688 158.849 30.232C159.857 30.776 160.641 31.552 161.201 32.56C161.777 33.568 162.065 34.744 162.065 36.088ZM157.865 35.008C157.865 34.304 157.625 33.744 157.145 33.328C156.665 32.912 156.065 32.704 155.345 32.704C154.657 32.704 154.073 32.904 153.593 33.304C153.129 33.704 152.841 34.272 152.729 35.008H157.865ZM168.334 31.84C168.814 31.104 169.414 30.528 170.134 30.112C170.854 29.68 171.654 29.464 172.534 29.464V33.808H171.406C170.382 33.808 169.614 34.032 169.102 34.48C168.59 34.912 168.334 35.68 168.334 36.784V43H164.23V29.608H168.334V31.84ZM185.894 26.152C187.67 26.152 189.222 26.504 190.55 27.208C191.878 27.912 192.902 28.904 193.622 30.184C194.358 31.448 194.726 32.912 194.726 34.576C194.726 36.224 194.358 37.688 193.622 38.968C192.902 40.248 191.87 41.24 190.526 41.944C189.198 42.648 187.654 43 185.894 43H179.582V26.152H185.894ZM185.63 39.448C187.182 39.448 188.39 39.024 189.254 38.176C190.118 37.328 190.55 36.128 190.55 34.576C190.55 33.024 190.118 31.816 189.254 30.952C188.39 30.088 187.182 29.656 185.63 29.656H183.686V39.448H185.63ZM196.203 36.28C196.203 34.904 196.459 33.696 196.971 32.656C197.499 31.616 198.211 30.816 199.107 30.256C200.003 29.696 201.003 29.416 202.107 29.416C203.051 29.416 203.875 29.608 204.579 29.992C205.299 30.376 205.851 30.88 206.235 31.504V29.608H210.339V43H206.235V41.104C205.835 41.728 205.275 42.232 204.555 42.616C203.851 43 203.027 43.192 202.083 43.192C200.995 43.192 200.003 42.912 199.107 42.352C198.211 41.776 197.499 40.968 196.971 39.928C196.459 38.872 196.203 37.656 196.203 36.28ZM206.235 36.304C206.235 35.28 205.947 34.472 205.371 33.88C204.811 33.288 204.123 32.992 203.307 32.992C202.491 32.992 201.795 33.288 201.219 33.88C200.659 34.456 200.379 35.256 200.379 36.28C200.379 37.304 200.659 38.12 201.219 38.728C201.795 39.32 202.491 39.616 203.307 39.616C204.123 39.616 204.811 39.32 205.371 38.728C205.947 38.136 206.235 37.328 206.235 36.304ZM220.772 39.52V43H218.684C217.196 43 216.036 42.64 215.204 41.92C214.372 41.184 213.956 39.992 213.956 38.344V33.016H212.324V29.608H213.956V26.344H218.06V29.608H220.748V33.016H218.06V38.392C218.06 38.792 218.156 39.08 218.348 39.256C218.54 39.432 218.86 39.52 219.308 39.52H220.772ZM222.242 36.28C222.242 34.904 222.498 33.696 223.01 32.656C223.538 31.616 224.25 30.816 225.146 30.256C226.042 29.696 227.042 29.416 228.146 29.416C229.09 29.416 229.914 29.608 230.618 29.992C231.338 30.376 231.89 30.88 232.274 31.504V29.608H236.378V43H232.274V41.104C231.874 41.728 231.314 42.232 230.594 42.616C229.89 43 229.066 43.192 228.122 43.192C227.034 43.192 226.042 42.912 225.146 42.352C224.25 41.776 223.538 40.968 223.01 39.928C222.498 38.872 222.242 37.656 222.242 36.28ZM232.274 36.304C232.274 35.28 231.986 34.472 231.41 33.88C230.85 33.288 230.162 32.992 229.346 32.992C228.53 32.992 227.834 33.288 227.258 33.88C226.698 34.456 226.418 35.256 226.418 36.28C226.418 37.304 226.698 38.12 227.258 38.728C227.834 39.32 228.53 39.616 229.346 39.616C230.162 39.616 230.85 39.32 231.41 38.728C231.986 38.136 232.274 37.328 232.274 36.304ZM263.513 26.152V43H259.409V32.896L255.641 43H252.329L248.537 32.872V43H244.433V26.152H249.281L254.009 37.816L258.689 26.152H263.513ZM265.649 36.28C265.649 34.904 265.905 33.696 266.417 32.656C266.945 31.616 267.657 30.816 268.553 30.256C269.449 29.696 270.449 29.416 271.553 29.416C272.497 29.416 273.321 29.608 274.025 29.992C274.745 30.376 275.297 30.88 275.681 31.504V29.608H279.785V43H275.681V41.104C275.281 41.728 274.721 42.232 274.001 42.616C273.297 43 272.473 43.192 271.529 43.192C270.441 43.192 269.449 42.912 268.553 42.352C267.657 41.776 266.945 40.968 266.417 39.928C265.905 38.872 265.649 37.656 265.649 36.28ZM275.681 36.304C275.681 35.28 275.393 34.472 274.817 33.88C274.257 33.288 273.569 32.992 272.753 32.992C271.937 32.992 271.241 33.288 270.665 33.88C270.105 34.456 269.825 35.256 269.825 36.28C269.825 37.304 270.105 38.12 270.665 38.728C271.241 39.32 271.937 39.616 272.753 39.616C273.569 39.616 274.257 39.32 274.817 38.728C275.393 38.136 275.681 37.328 275.681 36.304ZM290.914 29.464C292.482 29.464 293.73 29.976 294.658 31C295.602 32.008 296.074 33.4 296.074 35.176V43H291.994V35.728C291.994 34.832 291.762 34.136 291.298 33.64C290.834 33.144 290.21 32.896 289.426 32.896C288.642 32.896 288.018 33.144 287.554 33.64C287.09 34.136 286.858 34.832 286.858 35.728V43H282.754V29.608H286.858V31.384C287.274 30.792 287.834 30.328 288.538 29.992C289.242 29.64 290.034 29.464 290.914 29.464ZM298.11 36.28C298.11 34.904 298.366 33.696 298.878 32.656C299.406 31.616 300.118 30.816 301.014 30.256C301.91 29.696 302.91 29.416 304.014 29.416C304.958 29.416 305.782 29.608 306.486 29.992C307.206 30.376 307.758 30.88 308.142 31.504V29.608H312.246V43H308.142V41.104C307.742 41.728 307.182 42.232 306.462 42.616C305.758 43 304.934 43.192 303.99 43.192C302.902 43.192 301.91 42.912 301.014 42.352C300.118 41.776 299.406 40.968 298.878 39.928C298.366 38.872 298.11 37.656 298.11 36.28ZM308.142 36.304C308.142 35.28 307.854 34.472 307.278 33.88C306.718 33.288 306.03 32.992 305.214 32.992C304.398 32.992 303.702 33.288 303.126 33.88C302.566 34.456 302.286 35.256 302.286 36.28C302.286 37.304 302.566 38.12 303.126 38.728C303.702 39.32 304.398 39.616 305.214 39.616C306.03 39.616 306.718 39.32 307.278 38.728C307.854 38.136 308.142 37.328 308.142 36.304ZM320.303 29.416C321.247 29.416 322.071 29.608 322.775 29.992C323.495 30.376 324.047 30.88 324.431 31.504V29.608H328.535V42.976C328.535 44.208 328.287 45.32 327.791 46.312C327.311 47.32 326.567 48.12 325.559 48.712C324.567 49.304 323.327 49.6 321.839 49.6C319.855 49.6 318.247 49.128 317.015 48.184C315.783 47.256 315.079 45.992 314.903 44.392H318.959C319.087 44.904 319.391 45.304 319.871 45.592C320.351 45.896 320.943 46.048 321.647 46.048C322.495 46.048 323.167 45.8 323.663 45.304C324.175 44.824 324.431 44.048 324.431 42.976V41.08C324.031 41.704 323.479 42.216 322.775 42.616C322.071 43 321.247 43.192 320.303 43.192C319.199 43.192 318.199 42.912 317.303 42.352C316.407 41.776 315.695 40.968 315.167 39.928C314.655 38.872 314.399 37.656 314.399 36.28C314.399 34.904 314.655 33.696 315.167 32.656C315.695 31.616 316.407 30.816 317.303 30.256C318.199 29.696 319.199 29.416 320.303 29.416ZM324.431 36.304C324.431 35.28 324.143 34.472 323.567 33.88C323.007 33.288 322.319 32.992 321.503 32.992C320.687 32.992 319.991 33.288 319.415 33.88C318.855 34.456 318.575 35.256 318.575 36.28C318.575 37.304 318.855 38.12 319.415 38.728C319.991 39.32 320.687 39.616 321.503 39.616C322.319 39.616 323.007 39.32 323.567 38.728C324.143 38.136 324.431 37.328 324.431 36.304ZM344.128 36.088C344.128 36.472 344.104 36.872 344.056 37.288H334.768C334.832 38.12 335.096 38.76 335.56 39.208C336.04 39.64 336.624 39.856 337.312 39.856C338.336 39.856 339.048 39.424 339.448 38.56H343.816C343.592 39.44 343.184 40.232 342.592 40.936C342.016 41.64 341.288 42.192 340.408 42.592C339.528 42.992 338.544 43.192 337.456 43.192C336.144 43.192 334.976 42.912 333.952 42.352C332.928 41.792 332.128 40.992 331.552 39.952C330.976 38.912 330.688 37.696 330.688 36.304C330.688 34.912 330.968 33.696 331.528 32.656C332.104 31.616 332.904 30.816 333.928 30.256C334.952 29.696 336.128 29.416 337.456 29.416C338.752 29.416 339.904 29.688 340.912 30.232C341.92 30.776 342.704 31.552 343.264 32.56C343.84 33.568 344.128 34.744 344.128 36.088ZM339.928 35.008C339.928 34.304 339.688 33.744 339.208 33.328C338.728 32.912 338.128 32.704 337.408 32.704C336.72 32.704 336.136 32.904 335.656 33.304C335.192 33.704 334.904 34.272 334.792 35.008H339.928ZM363.381 29.464C365.045 29.464 366.365 29.968 367.341 30.976C368.333 31.984 368.829 33.384 368.829 35.176V43H364.749V35.728C364.749 34.864 364.517 34.2 364.053 33.736C363.605 33.256 362.981 33.016 362.181 33.016C361.381 33.016 360.749 33.256 360.285 33.736C359.837 34.2 359.613 34.864 359.613 35.728V43H355.533V35.728C355.533 34.864 355.301 34.2 354.837 33.736C354.389 33.256 353.765 33.016 352.965 33.016C352.165 33.016 351.533 33.256 351.069 33.736C350.621 34.2 350.397 34.864 350.397 35.728V43H346.293V29.608H350.397V31.288C350.813 30.728 351.357 30.288 352.029 29.968C352.701 29.632 353.461 29.464 354.309 29.464C355.317 29.464 356.213 29.68 356.997 30.112C357.797 30.544 358.421 31.16 358.869 31.96C359.333 31.224 359.965 30.624 360.765 30.16C361.565 29.696 362.437 29.464 363.381 29.464ZM384.323 36.088C384.323 36.472 384.299 36.872 384.251 37.288H374.963C375.027 38.12 375.291 38.76 375.755 39.208C376.235 39.64 376.819 39.856 377.507 39.856C378.531 39.856 379.243 39.424 379.643 38.56H384.011C383.787 39.44 383.379 40.232 382.787 40.936C382.211 41.64 381.483 42.192 380.603 42.592C379.723 42.992 378.739 43.192 377.651 43.192C376.339 43.192 375.171 42.912 374.147 42.352C373.123 41.792 372.323 40.992 371.747 39.952C371.171 38.912 370.883 37.696 370.883 36.304C370.883 34.912 371.163 33.696 371.723 32.656C372.299 31.616 373.099 30.816 374.123 30.256C375.147 29.696 376.323 29.416 377.651 29.416C378.947 29.416 380.099 29.688 381.107 30.232C382.115 30.776 382.899 31.552 383.459 32.56C384.035 33.568 384.323 34.744 384.323 36.088ZM380.123 35.008C380.123 34.304 379.883 33.744 379.403 33.328C378.923 32.912 378.323 32.704 377.603 32.704C376.915 32.704 376.331 32.904 375.851 33.304C375.387 33.704 375.099 34.272 374.987 35.008H380.123ZM394.648 29.464C396.216 29.464 397.464 29.976 398.392 31C399.336 32.008 399.808 33.4 399.808 35.176V43H395.728V35.728C395.728 34.832 395.496 34.136 395.032 33.64C394.568 33.144 393.944 32.896 393.16 32.896C392.376 32.896 391.752 33.144 391.288 33.64C390.824 34.136 390.592 34.832 390.592 35.728V43H386.488V29.608H390.592V31.384C391.008 30.792 391.568 30.328 392.272 29.992C392.976 29.64 393.768 29.464 394.648 29.464ZM410.124 39.52V43H408.036C406.548 43 405.388 42.64 404.556 41.92C403.724 41.184 403.308 39.992 403.308 38.344V33.016H401.676V29.608H403.308V26.344H407.412V29.608H410.1V33.016H407.412V38.392C407.412 38.792 407.508 39.08 407.7 39.256C407.892 39.432 408.212 39.52 408.66 39.52H410.124Z" fill="#644DED"/>
</svg>
