<svg width="110" height="220" viewBox="0 0 110 220" fill="none" xmlns="http://www.w3.org/2000/svg">
<g filter="url(#filter0_d_337_32923)">
<rect x="30" y="20" width="50" height="160" rx="25" fill="#8833FF"/>
</g>
<path d="M53.2383 90.1855C53.5703 90.1855 53.8242 90.0684 54 89.834C54.1797 89.5996 54.3672 89.1777 54.5625 88.5684C54.7617 87.959 54.957 87.4766 55.1484 87.1211C55.6719 86.1523 56.377 85.668 57.2637 85.668C57.7246 85.668 58.1348 85.7969 58.4941 86.0547C58.8574 86.3164 59.1406 86.6895 59.3438 87.1738C59.5469 87.6621 59.6484 88.209 59.6484 88.8145C59.6484 89.4238 59.5371 89.9668 59.3145 90.4434C59.0957 90.9199 58.7852 91.2891 58.3828 91.5508C57.9805 91.8164 57.5234 91.9492 57.0117 91.9492V90.1914C57.4023 90.1914 57.7051 90.0684 57.9199 89.8223C58.1387 89.5762 58.248 89.2305 58.248 88.7852C58.248 88.3555 58.1562 88.0215 57.9727 87.7832C57.793 87.5449 57.5547 87.4258 57.2578 87.4258C56.9805 87.4258 56.748 87.5645 56.5605 87.8418C56.373 88.123 56.1973 88.5352 56.0332 89.0781C55.7324 90.0781 55.3594 90.8066 54.9141 91.2637C54.4688 91.7207 53.9141 91.9492 53.25 91.9492C52.5117 91.9492 51.9316 91.6699 51.5098 91.1113C51.0918 90.5527 50.8828 89.8008 50.8828 88.8555C50.8828 88.1992 51.002 87.6016 51.2402 87.0625C51.4824 86.5234 51.8125 86.1113 52.2305 85.8262C52.6484 85.5449 53.1328 85.4043 53.6836 85.4043V87.168C52.7422 87.168 52.2715 87.7305 52.2715 88.8555C52.2715 89.2734 52.3555 89.5996 52.5234 89.834C52.6953 90.0684 52.9336 90.1855 53.2383 90.1855ZM58.8984 95.0605H57.3398V96.1445H56.0977V95.0605H52.9336C52.6992 95.0605 52.5312 95.1055 52.4297 95.1953C52.3281 95.2852 52.2773 95.457 52.2773 95.7109C52.2773 95.8984 52.291 96.0645 52.3184 96.209H51.0352C50.9336 95.877 50.8828 95.5352 50.8828 95.1836C50.8828 93.9961 51.4824 93.3906 52.6816 93.3672H56.0977V92.4414H57.3398V93.3672H58.8984V95.0605ZM51 100.762C51.1523 100.684 51.3418 100.627 51.5684 100.592C51.1113 100.182 50.8828 99.6484 50.8828 98.9922C50.8828 98.3711 51.0625 97.8555 51.4219 97.4453C51.7812 97.0391 52.2344 96.8359 52.7812 96.8359C53.4531 96.8359 53.9688 97.084 54.3281 97.5801C54.6875 98.0801 54.8691 98.8008 54.873 99.7422V100.521H55.2363C55.5293 100.521 55.7637 100.445 55.9395 100.293C56.1152 100.145 56.2031 99.9082 56.2031 99.584C56.2031 99.2988 56.1348 99.0742 55.998 98.9102C55.8613 98.75 55.6738 98.6699 55.4355 98.6699V96.9766C55.8027 96.9766 56.1426 97.0898 56.4551 97.3164C56.7676 97.543 57.0117 97.8633 57.1875 98.2773C57.3672 98.6914 57.457 99.1562 57.457 99.6719C57.457 100.453 57.2598 101.072 56.8652 101.529C56.4746 101.99 55.9238 102.221 55.2129 102.221H52.4648C51.8633 102.225 51.4082 102.309 51.0996 102.473H51V100.762ZM52.1777 99.3613C52.1777 99.6113 52.2324 99.8418 52.3418 100.053C52.4551 100.264 52.6055 100.42 52.793 100.521H53.8828V99.8887C53.8828 99.041 53.5898 98.5898 53.0039 98.5352L52.9043 98.5293C52.6934 98.5293 52.5195 98.6035 52.3828 98.752C52.2461 98.9004 52.1777 99.1035 52.1777 99.3613ZM55.752 107.084C55.7832 106.854 55.7988 106.65 55.7988 106.475C55.7988 105.834 55.582 105.414 55.1484 105.215H51V103.521H57.3398V105.121L56.584 105.168C57.166 105.508 57.457 105.979 57.457 106.58C57.457 106.768 57.4316 106.943 57.3809 107.107L55.752 107.084ZM58.8984 110.225H57.3398V111.309H56.0977V110.225H52.9336C52.6992 110.225 52.5312 110.27 52.4297 110.359C52.3281 110.449 52.2773 110.621 52.2773 110.875C52.2773 111.062 52.291 111.229 52.3184 111.373H51.0352C50.9336 111.041 50.8828 110.699 50.8828 110.348C50.8828 109.16 51.4824 108.555 52.6816 108.531H56.0977V107.605H57.3398V108.531H58.8984V110.225ZM53.8418 122.049C52.9238 121.982 52.2012 121.643 51.6738 121.029C51.1465 120.42 50.8828 119.615 50.8828 118.615C50.8828 117.521 51.25 116.66 51.9844 116.031C52.7227 115.406 53.7344 115.094 55.0195 115.094H55.541C56.3613 115.094 57.084 115.238 57.709 115.527C58.334 115.816 58.8125 116.229 59.1445 116.764C59.4805 117.303 59.6484 117.928 59.6484 118.639C59.6484 119.623 59.3848 120.416 58.8574 121.018C58.3301 121.619 57.5898 121.967 56.6367 122.061V120.303C57.1875 120.26 57.5859 120.105 57.832 119.84C58.082 119.578 58.207 119.178 58.207 118.639C58.207 118.053 57.9961 117.613 57.5742 117.32C57.1562 117.031 56.5059 116.883 55.623 116.875H54.9785C54.0566 116.875 53.3828 117.014 52.957 117.291C52.5312 117.572 52.3184 118.014 52.3184 118.615C52.3184 119.158 52.4414 119.562 52.6875 119.828C52.9375 120.098 53.3223 120.252 53.8418 120.291V122.049ZM56.6484 124.744C57.1875 125.193 57.457 125.758 57.457 126.438C57.457 127.812 56.6582 128.51 55.0605 128.529H51V126.836H55.0137C55.377 126.836 55.6445 126.758 55.8164 126.602C55.9922 126.445 56.0801 126.186 56.0801 125.822C56.0801 125.326 55.8887 124.967 55.5059 124.744H51V123.051H60V124.744H56.6484ZM51 133.48C51.1523 133.402 51.3418 133.346 51.5684 133.311C51.1113 132.9 50.8828 132.367 50.8828 131.711C50.8828 131.09 51.0625 130.574 51.4219 130.164C51.7812 129.758 52.2344 129.555 52.7812 129.555C53.4531 129.555 53.9688 129.803 54.3281 130.299C54.6875 130.799 54.8691 131.52 54.873 132.461V133.24H55.2363C55.5293 133.24 55.7637 133.164 55.9395 133.012C56.1152 132.863 56.2031 132.627 56.2031 132.303C56.2031 132.018 56.1348 131.793 55.998 131.629C55.8613 131.469 55.6738 131.389 55.4355 131.389V129.695C55.8027 129.695 56.1426 129.809 56.4551 130.035C56.7676 130.262 57.0117 130.582 57.1875 130.996C57.3672 131.41 57.457 131.875 57.457 132.391C57.457 133.172 57.2598 133.791 56.8652 134.248C56.4746 134.709 55.9238 134.939 55.2129 134.939H52.4648C51.8633 134.943 51.4082 135.027 51.0996 135.191H51V133.48ZM52.1777 132.08C52.1777 132.33 52.2324 132.561 52.3418 132.771C52.4551 132.982 52.6055 133.139 52.793 133.24H53.8828V132.607C53.8828 131.76 53.5898 131.309 53.0039 131.254L52.9043 131.248C52.6934 131.248 52.5195 131.322 52.3828 131.471C52.2461 131.619 52.1777 131.822 52.1777 132.08ZM58.8984 138.268H57.3398V139.352H56.0977V138.268H52.9336C52.6992 138.268 52.5312 138.312 52.4297 138.402C52.3281 138.492 52.2773 138.664 52.2773 138.918C52.2773 139.105 52.291 139.271 52.3184 139.416H51.0352C50.9336 139.084 50.8828 138.742 50.8828 138.391C50.8828 137.203 51.4824 136.598 52.6816 136.574H56.0977V135.648H57.3398V136.574H58.8984V138.268Z" fill="white"/>
<path fill-rule="evenodd" clip-rule="evenodd" d="M63 49.2879H62V57.4091C62 57.9674 61.55 58.4243 61 58.4243H49V59.4394C49 60.5561 49.9 61.4697 51 61.4697H61L65 65.5303V51.3182C65 50.2015 64.1 49.2879 63 49.2879ZM60 54.3637V47.2576C60 46.1409 59.1 45.2273 58 45.2273H47C45.9 45.2273 45 46.1409 45 47.2576V60.4546L49 56.394H58C59.1 56.394 60 55.4803 60 54.3637Z" fill="white"/>
<defs>
<filter id="filter0_d_337_32923" x="0" y="0" width="110" height="220" filterUnits="userSpaceOnUse" color-interpolation-filters="sRGB">
<feFlood flood-opacity="0" result="BackgroundImageFix"/>
<feColorMatrix in="SourceAlpha" type="matrix" values="0 0 0 0 0 0 0 0 0 0 0 0 0 0 0 0 0 0 127 0" result="hardAlpha"/>
<feOffset dy="10"/>
<feGaussianBlur stdDeviation="15"/>
<feColorMatrix type="matrix" values="0 0 0 0 0.533333 0 0 0 0 0.2 0 0 0 0 1 0 0 0 0.2 0"/>
<feBlend mode="normal" in2="BackgroundImageFix" result="effect1_dropShadow_337_32923"/>
<feBlend mode="normal" in="SourceGraphic" in2="effect1_dropShadow_337_32923" result="shape"/>
</filter>
</defs>
</svg>
