<?xml version="1.0" standalone="no"?>
<!DOCTYPE svg PUBLIC "-//W3C//DTD SVG 20010904//EN"
 "http://www.w3.org/TR/2001/REC-SVG-20010904/DTD/svg10.dtd">
<svg version="1.0" xmlns="http://www.w3.org/2000/svg"
 width="71.000000pt" height="71.000000pt" viewBox="0 0 71.000000 71.000000"
 preserveAspectRatio="xMidYMid meet">
<metadata>
Created by potrace 1.14, written by Peter Selinger 2001-2017
</metadata>
<g transform="translate(0.000000,71.000000) scale(0.100000,-0.100000)"
fill="#000000" stroke="none">
<path d="M241 690 c-66 -24 -86 -37 -134 -85 -103 -103 -129 -258 -68 -392 57
-122 168 -196 299 -200 89 -2 149 15 218 63 176 120 199 375 48 527 -95 97
-242 132 -363 87z m250 -29 c213 -107 259 -379 89 -540 -93 -89 -246 -114
-362 -59 -116 54 -188 165 -189 291 -1 97 33 183 96 242 37 35 60 49 112 70
76 32 187 30 254 -4z"/>
<path d="M187 538 c-2 -7 0 -21 5 -30 7 -15 23 -18 107 -18 103 0 131 11 117
45 -7 20 -222 22 -229 3z"/>
<path d="M357 472 c-22 -4 -33 -42 -16 -53 23 -14 135 -11 148 4 19 24 -9 45
-65 49 -28 2 -58 2 -67 0z"/>
<path d="M192 457 c-9 -10 -9 -18 1 -31 10 -13 24 -17 62 -14 46 3 50 5 50 28
0 23 -4 25 -51 28 -34 2 -55 -2 -62 -11z"/>
<path d="M191 372 c-18 -33 6 -42 110 -42 100 0 117 7 103 45 -5 12 -26 15
-105 15 -85 0 -100 -2 -108 -18z"/>
<path d="M442 381 c-26 -16 -9 -46 26 -49 43 -4 65 13 51 39 -10 20 -53 26
-77 10z"/>
<path d="M192 298 c-7 -7 -8 -17 -1 -30 13 -25 133 -27 143 -2 11 29 -13 44
-73 44 -31 0 -62 -5 -69 -12z"/>
<path d="M372 301 c-8 -5 -12 -17 -10 -27 2 -15 14 -20 51 -22 57 -4 82 11 66
39 -7 14 -21 19 -52 19 -23 0 -48 -4 -55 -9z"/>
<path d="M192 213 c-16 -30 -3 -43 43 -43 46 0 59 13 43 43 -6 11 -20 17 -43
17 -23 0 -37 -6 -43 -17z"/>
<path d="M314 215 c-12 -31 4 -45 50 -45 30 0 46 5 50 15 11 31 -5 45 -50 45
-30 0 -46 -5 -50 -15z"/>
</g>
</svg>
