<?xml version="1.0" standalone="no"?>
<!DOCTYPE svg PUBLIC "-//W3C//DTD SVG 20010904//EN"
 "http://www.w3.org/TR/2001/REC-SVG-20010904/DTD/svg10.dtd">
<svg version="1.0" xmlns="http://www.w3.org/2000/svg"
 width="211.000000pt" height="211.000000pt" viewBox="0 0 211.000000 211.000000"
 preserveAspectRatio="xMidYMid meet">
<metadata>
Created by potrace 1.14, written by Peter Selinger 2001-2017
</metadata>
<g transform="translate(0.000000,211.000000) scale(0.100000,-0.100000)"
fill="#000000" stroke="none">
<path d="M39 2002 c22 -59 73 -200 115 -313 42 -114 76 -209 76 -213 0 -3 9
-25 19 -49 18 -40 53 -136 87 -237 9 -25 21 -58 29 -75 7 -16 16 -41 20 -55 3
-14 10 -34 15 -45 6 -11 41 -108 80 -215 39 -107 77 -211 84 -230 8 -19 35
-93 61 -165 26 -72 51 -139 55 -150 5 -11 16 -36 24 -57 8 -20 23 -39 34 -42
42 -14 68 10 141 131 82 137 88 147 162 269 l56 92 321 -320 c231 -231 328
-321 346 -323 22 -3 51 22 170 139 167 166 180 184 167 217 -5 13 -152 165
-325 338 l-315 314 42 26 c23 15 131 80 240 146 109 65 203 128 209 138 16 30
1 65 -35 81 -17 8 -70 29 -117 46 -47 17 -107 40 -135 50 -27 10 -142 53 -255
94 -113 41 -268 98 -345 126 -77 28 -160 58 -185 66 -44 15 -60 21 -110 42
-14 6 -89 33 -166 61 -78 28 -152 55 -165 60 -28 12 -177 66 -331 122 l-107
38 38 -107z"/>
</g>
</svg>
