<svg width="15" height="15" viewBox="0 0 15 15" fill="none" xmlns="http://www.w3.org/2000/svg">
<path fill-rule="evenodd" clip-rule="evenodd" d="M8 7H11.5C11.7761 7 12 7.22386 12 7.5C12 7.77614 11.7761 8 11.5 8H8V11.5C8 11.7761 7.77614 12 7.5 12C7.22386 12 7 11.7761 7 11.5V8H3.5C3.22386 8 3 7.77614 3 7.5C3 7.22386 3.22386 7 3.5 7H7V3.5C7 3.22386 7.22386 3 7.5 3C7.77614 3 8 3.22386 8 3.5V7ZM7.5 0C11.6356 0 15 3.36441 15 7.5C15 11.6356 11.6356 15 7.5 15C3.36441 15 0 11.6356 0 7.5C0 3.36441 3.36441 0 7.5 0ZM7.5 0.882353C3.84529 0.882353 0.882353 3.84529 0.882353 7.5C0.882353 11.1547 3.84529 14.1176 7.5 14.1176C11.1547 14.1176 14.1176 11.1547 14.1176 7.5C14.1176 3.84529 11.1547 0.882353 7.5 0.882353Z" fill="white"/>
</svg>
