<svg width="11" height="10" viewBox="0 0 11 10" fill="none" xmlns="http://www.w3.org/2000/svg">
<path d="M4.99955 8.69239V0.555556C4.99955 0.248731 5.22341 0 5.49955 0C5.77569 0 5.99955 0.248731 5.99955 0.555556V8.69239L10.0957 4.59619C10.291 4.40093 10.6076 4.40093 10.8029 4.59619C10.9981 4.79146 10.9981 5.10804 10.8029 5.3033L6.56021 9.54594C6.30201 9.80414 5.97311 9.94853 5.63582 9.97912C5.5925 9.99272 5.54679 10 5.49955 10C5.45231 10 5.4066 9.99272 5.36328 9.97912C5.026 9.94853 4.69709 9.80414 4.43889 9.54594L0.196251 5.3033C0.000989154 5.10804 0.000989154 4.79146 0.196251 4.59619C0.391513 4.40093 0.708096 4.40093 0.903358 4.59619L4.99955 8.69239Z" fill="#343741"/>
</svg>
