<svg width="22" height="20" viewBox="0 0 22 20" fill="none" xmlns="http://www.w3.org/2000/svg">
<path d="M2 17H20V14.0461C18.1627 14.9173 14.8195 15.5 11 15.5C7.18051 15.5 3.83735 14.9173 2 14.0461V17ZM0.5 17V3.5C0.5 1.84315 5.20101 0.5 11 0.5C16.799 0.5 21.5 1.84315 21.5 3.5V17C21.5 18.6569 16.799 20 11 20C5.20101 20 0.5 18.6569 0.5 17ZM2 12.5H20V9.54611C18.1627 10.4173 14.8195 11 11 11C7.18051 11 3.83735 10.4173 2 9.54611V12.5ZM2 5.04611V8H20V5.04611C18.1627 5.91732 14.8195 6.5 11 6.5C7.18051 6.5 3.83735 5.91732 2 5.04611ZM18.0125 2.82097C16.2004 2.30321 13.6914 2 11 2C8.30863 2 5.79961 2.30321 3.98746 2.82097C3.25002 3.03166 2.66767 3.26805 2.28291 3.5C2.66767 3.73195 3.25002 3.96834 3.98746 4.17903C5.79961 4.69679 8.30863 5 11 5C13.6914 5 16.2004 4.69679 18.0125 4.17903C18.75 3.96834 19.3323 3.73195 19.7171 3.5C19.3323 3.26805 18.75 3.03166 18.0125 2.82097ZM2.00018 8C2.38495 8.23195 3.25002 8.46834 3.98746 8.67903C5.79961 9.19679 8.30863 9.5 11 9.5C13.6914 9.5 16.2004 9.19679 18.0125 8.67903C18.75 8.46834 19.6179 8.23195 20.0027 8H2.00018ZM2.00018 12.5C2.38495 12.732 3.25002 12.9683 3.98746 13.179C5.79961 13.6968 8.30863 14 11 14C13.6914 14 16.2004 13.6968 18.0125 13.179C18.75 12.9683 19.6179 12.732 20.0027 12.5H2.00018ZM2.00018 17C2.38495 17.232 3.25002 17.4683 3.98746 17.679C5.79961 18.1968 8.30863 18.5 11 18.5C13.6914 18.5 16.2004 18.1968 18.0125 17.679C18.75 17.4683 19.6179 17.232 20.0027 17H2.00018Z" fill="#5E6278"/>
</svg>
