<svg width="13" height="14" viewBox="0 0 13 14" fill="none" xmlns="http://www.w3.org/2000/svg">
<path d="M8.5 11C8.5 12.1046 9.39543 13 10.5 13C11.6046 13 12.5 12.1046 12.5 11C12.5 9.89543 11.6046 9 10.5 9C9.39543 9 8.5 9.89543 8.5 11ZM8.5 11C6.9087 11 5.38258 10.3679 4.25736 9.24264C3.13214 8.11742 2.5 6.5913 2.5 5M2.5 5C3.60457 5 4.5 4.10457 4.5 3C4.5 1.89543 3.60457 1 2.5 1C1.39543 1 0.5 1.89543 0.5 3C0.5 4.10457 1.39543 5 2.5 5ZM2.5 5V13" stroke="#7E8299" stroke-linecap="round" stroke-linejoin="round"/>
</svg>
