<svg width="16" height="16" viewBox="0 0 16 16" fill="none" xmlns="http://www.w3.org/2000/svg">
<path fill-rule="evenodd" clip-rule="evenodd" d="M14 4V3.006C14 2.45 13.55 2 12.994 2H11V3H10V2H6V3H5V2H3.006C2.45 2 2 2.45 2 3.006V12.994C2 13.55 2.45 14 3.006 14H12.994C13.55 14 14 13.55 14 12.994V5H2V4H14ZM11 1H12.994C14.102 1 15 1.897 15 3.006V12.994C15.0001 13.2575 14.9483 13.5184 14.8476 13.7618C14.7468 14.0053 14.599 14.2264 14.4127 14.4127C14.2264 14.599 14.0053 14.7468 13.7618 14.8476C13.5184 14.9483 13.2575 15.0001 12.994 15H3.006C2.74253 15.0001 2.48162 14.9483 2.23818 14.8476C1.99474 14.7468 1.77355 14.599 1.58725 14.4127C1.40095 14.2264 1.25319 14.0053 1.15243 13.7618C1.05167 13.5184 0.999869 13.2575 1 12.994V3.006C1 1.898 1.897 1 3.006 1H5V0H6V1H10V0H11V1ZM4 7H6V8H4V7ZM7 7H9V8H7V7ZM10 7H12V8H10V7ZM4 9H6V10H4V9ZM7 9H9V10H7V9ZM10 9H12V10H10V9ZM4 11H6V12H4V11ZM7 11H9V12H7V11ZM10 11H12V12H10V11Z" fill="#0071C2"/>
</svg>
