<svg width="45" height="45" viewBox="0 0 45 45" fill="none" xmlns="http://www.w3.org/2000/svg">
<rect x="0.287842" y="0.5" width="44" height="44" rx="6" fill="#EEE5FF"/>
<path opacity="0.3" fill-rule="evenodd" clip-rule="evenodd" d="M11.6211 26.4999C11.6211 30.1818 14.6059 33.1666 18.2878 33.1666C19.7886 33.1666 21.1736 32.6707 22.2878 31.8337C23.402 32.6707 24.787 33.1666 26.2878 33.1666C29.9697 33.1666 32.9545 30.1818 32.9545 26.4999C32.9545 22.818 29.9697 19.8333 26.2878 19.8333C24.787 19.8333 23.402 20.3292 22.2878 21.1661C21.1736 20.3292 19.7886 19.8333 18.2878 19.8333C14.6059 19.8333 11.6211 22.818 11.6211 26.4999ZM24.0659 23.1724C24.6311 24.1517 24.9544 25.288 24.9544 26.4999C24.9544 27.7118 24.6311 28.8481 24.066 29.8273C24.713 30.2608 25.4796 30.4999 26.2878 30.4999C28.4969 30.4999 30.2878 28.7091 30.2878 26.4999C30.2878 24.2908 28.4969 22.4999 26.2878 22.4999C25.4785 22.4999 24.7112 22.7405 24.0659 23.1724Z" fill="#8950FC"/>
<path fill-rule="evenodd" clip-rule="evenodd" d="M22.2878 25.1666C25.9697 25.1666 28.9544 22.1818 28.9544 18.4999C28.9544 14.818 25.9697 11.8333 22.2878 11.8333C18.6059 11.8333 15.6211 14.818 15.6211 18.4999C15.6211 22.1818 18.6059 25.1666 22.2878 25.1666Z" fill="#8950FC"/>
</svg>
