<svg width="8" height="8" viewBox="0 0 8 8" fill="none" xmlns="http://www.w3.org/2000/svg">
<path fill-rule="evenodd" clip-rule="evenodd" d="M2.17678 6.17678L6.17678 2.17678C6.27441 2.07915 6.27441 1.92085 6.17678 1.82322C6.07915 1.72559 5.92085 1.72559 5.82322 1.82322L1.82322 5.82322C1.72559 5.92085 1.72559 6.07915 1.82322 6.17678C1.92085 6.27441 2.07915 6.27441 2.17678 6.17678ZM0.5 5.25C0.5 5.11193 0.611929 5 0.75 5C0.888071 5 1 5.11193 1 5.25V6.75C1 6.88807 1.11193 7 1.25 7H2.75C2.88807 7 3 7.11193 3 7.25C3 7.38807 2.88807 7.5 2.75 7.5H1.25C0.835786 7.5 0.5 7.16421 0.5 6.75V5.25ZM7.5 2.75C7.5 2.88807 7.38807 3 7.25 3C7.11193 3 7 2.88807 7 2.75V1.25C7 1.11193 6.88807 1 6.75 1H5.25C5.11193 1 5 0.888071 5 0.75C5 0.611929 5.11193 0.5 5.25 0.5H6.75C7.16421 0.5 7.5 0.835786 7.5 1.25V2.75Z" fill="#343741"/>
</svg>
