<svg width="57" height="57" viewBox="0 0 57 57" fill="none" xmlns="http://www.w3.org/2000/svg">
<rect x="4.5" y="4.5" width="48" height="48" rx="24" fill="#D1FADF"/>
<path d="M38.5 27.58V28.5C38.4988 30.6564 37.8005 32.7547 36.5093 34.4818C35.2182 36.209 33.4033 37.4725 31.3354 38.0839C29.2674 38.6953 27.0573 38.6219 25.0345 37.8746C23.0117 37.1273 21.2847 35.7461 20.111 33.9371C18.9373 32.128 18.3798 29.9881 18.5217 27.8363C18.6636 25.6846 19.4972 23.6363 20.8983 21.9971C22.2994 20.3578 24.1928 19.2154 26.2962 18.7401C28.3996 18.2649 30.6003 18.4823 32.57 19.36M38.5 20.5L28.5 30.51L25.5 27.51" stroke="#039855" stroke-width="2" stroke-linecap="round" stroke-linejoin="round"/>
<rect x="4.5" y="4.5" width="48" height="48" rx="24" stroke="#ECFDF3" stroke-width="8"/>
</svg>
