<svg width="8" height="8" viewBox="0 0 8 8" fill="none" xmlns="http://www.w3.org/2000/svg">
<path fill-rule="evenodd" clip-rule="evenodd" d="M3.66604 6.33887L3.64571 4H2.83333V3.33333H4.43397L4.4543 5.6722H5.2V6.33887H3.66604ZM3.5 2.20413C3.5 2.04978 3.5459 1.92162 3.6377 1.81964C3.7295 1.71766 3.86073 1.66667 4.03139 1.66667C4.20206 1.66667 4.33394 1.71766 4.42703 1.81964C4.52012 1.92162 4.56667 2.04978 4.56667 2.20413C4.56667 2.35573 4.52012 2.48183 4.42703 2.58243C4.33394 2.68303 4.20206 2.73333 4.03139 2.73333C3.86073 2.73333 3.7295 2.68303 3.6377 2.58243C3.5459 2.48183 3.5 2.35573 3.5 2.20413ZM4 7.33333C5.84095 7.33333 7.33333 5.84095 7.33333 4C7.33333 2.15905 5.84095 0.666667 4 0.666667C2.15905 0.666667 0.666667 2.15905 0.666667 4C0.666667 5.84095 2.15905 7.33333 4 7.33333ZM4 8C1.79086 8 0 6.20914 0 4C0 1.79086 1.79086 0 4 0C6.20914 0 8 1.79086 8 4C8 6.20914 6.20914 8 4 8Z" fill="#A1A5B7"/>
</svg>
