<svg width="20" height="20" viewBox="0 0 20 20" fill="none" xmlns="http://www.w3.org/2000/svg">
<path fill-rule="evenodd" clip-rule="evenodd" d="M4.33301 2.5C3.78072 2.5 3.33301 2.94772 3.33301 3.5V16.5C3.33301 17.0523 3.78072 17.5 4.33301 17.5H4.83301C5.38529 17.5 5.83301 17.0523 5.83301 16.5V3.5C5.83301 2.94772 5.38529 2.5 4.83301 2.5H4.33301ZM8.49967 2.5C7.94739 2.5 7.49967 2.94772 7.49967 3.5V16.5C7.49967 17.0523 7.94739 17.5 8.49967 17.5H8.99967C9.55196 17.5 9.99967 17.0523 9.99967 16.5V3.5C9.99967 2.94772 9.55196 2.5 8.99967 2.5H8.49967Z" fill="#8950FC"/>
<rect opacity="0.3" x="11.2314" y="3.27051" width="2.5" height="15" rx="1" transform="rotate(-19 11.2314 3.27051)" fill="#8950FC"/>
</svg>
