<svg width="12" height="13" viewBox="0 0 12 13" fill="none" xmlns="http://www.w3.org/2000/svg">
<path d="M9.2282 1.94165C9.46085 2.09041 9.52886 2.3996 9.3801 2.63225C9.23134 2.8649 8.92215 2.9329 8.6895 2.78414C7.8927 2.27466 6.9673 2 6 2C3.23858 2 1 4.23858 1 7C1 9.76142 3.23858 12 6 12C8.76142 12 11 9.76142 11 7C11 6.72386 11.2239 6.5 11.5 6.5C11.7761 6.5 12 6.72386 12 7C12 10.3137 9.31371 13 6 13C2.68629 13 0 10.3137 0 7C0 3.68629 2.68629 1 6 1C7.15965 1 8.27173 1.33007 9.2282 1.94165ZM12 0.5V3.5C12 4.32843 11.3284 5 10.5 5H7.5C7.22386 5 7 4.77614 7 4.5C7 4.22386 7.22386 4 7.5 4H10.5C10.7761 4 11 3.77614 11 3.5V0.5C11 0.223858 11.2239 0 11.5 0C11.7761 0 12 0.223858 12 0.5Z" fill="#343741"/>
</svg>
