<svg width="40" height="40" viewBox="0 0 40 40" fill="none" xmlns="http://www.w3.org/2000/svg">
<rect width="40" height="40" rx="12" fill="#EEE5FF"/>
<path fill-rule="evenodd" clip-rule="evenodd" d="M14.333 12.5C13.7807 12.5 13.333 12.9477 13.333 13.5V26.5C13.333 27.0523 13.7807 27.5 14.333 27.5H14.833C15.3853 27.5 15.833 27.0523 15.833 26.5V13.5C15.833 12.9477 15.3853 12.5 14.833 12.5H14.333ZM18.4997 12.5C17.9474 12.5 17.4997 12.9477 17.4997 13.5V26.5C17.4997 27.0523 17.9474 27.5 18.4997 27.5H18.9997C19.552 27.5 19.9997 27.0523 19.9997 26.5V13.5C19.9997 12.9477 19.552 12.5 18.9997 12.5H18.4997Z" fill="#8950FC"/>
<rect opacity="0.3" x="21.2314" y="13.27" width="2.5" height="15" rx="1" transform="rotate(-19 21.2314 13.27)" fill="#8950FC"/>
</svg>
