<svg width="158" height="45" viewBox="0 0 158 45" fill="none" xmlns="http://www.w3.org/2000/svg">
<path d="M27.008 28.692C26.112 28.692 25.2533 28.5747 24.432 28.34C23.6107 28.0947 22.9493 27.78 22.448 27.396L23.328 25.444C23.808 25.7853 24.3733 26.068 25.024 26.292C25.6853 26.5053 26.352 26.612 27.024 26.612C27.536 26.612 27.9467 26.564 28.256 26.468C28.576 26.3613 28.8107 26.2173 28.96 26.036C29.1093 25.8547 29.184 25.6467 29.184 25.412C29.184 25.1133 29.0667 24.8787 28.832 24.708C28.5973 24.5267 28.288 24.3827 27.904 24.276C27.52 24.1587 27.0933 24.052 26.624 23.956C26.1653 23.8493 25.7013 23.7213 25.232 23.572C24.7733 23.4227 24.352 23.2307 23.968 22.996C23.584 22.7613 23.2693 22.452 23.024 22.068C22.7893 21.684 22.672 21.1933 22.672 20.596C22.672 19.956 22.8427 19.3747 23.184 18.852C23.536 18.3187 24.0587 17.8973 24.752 17.588C25.456 17.268 26.336 17.108 27.392 17.108C28.096 17.108 28.7893 17.1933 29.472 17.364C30.1547 17.524 30.7573 17.7693 31.28 18.1L30.48 20.068C29.9573 19.7693 29.4347 19.5507 28.912 19.412C28.3893 19.2627 27.8773 19.188 27.376 19.188C26.8747 19.188 26.464 19.2467 26.144 19.364C25.824 19.4813 25.5947 19.636 25.456 19.828C25.3173 20.0093 25.248 20.2227 25.248 20.468C25.248 20.756 25.3653 20.9907 25.6 21.172C25.8347 21.3427 26.144 21.4813 26.528 21.588C26.912 21.6947 27.3333 21.8013 27.792 21.908C28.2613 22.0147 28.7253 22.1373 29.184 22.276C29.6533 22.4147 30.08 22.6013 30.464 22.836C30.848 23.0707 31.1573 23.38 31.392 23.764C31.6373 24.148 31.76 24.6333 31.76 25.22C31.76 25.8493 31.584 26.4253 31.232 26.948C30.88 27.4707 30.352 27.892 29.648 28.212C28.9547 28.532 28.0747 28.692 27.008 28.692ZM36.9871 28.628C36.0058 28.628 35.1418 28.436 34.3951 28.052C33.6591 27.668 33.0885 27.1453 32.6831 26.484C32.2778 25.812 32.0751 25.0493 32.0751 24.196C32.0751 23.332 32.2725 22.5693 32.6671 21.908C33.0725 21.236 33.6218 20.7133 34.3151 20.34C35.0085 19.956 35.7925 19.764 36.6671 19.764C37.5098 19.764 38.2671 19.9453 38.9391 20.308C39.6218 20.66 40.1605 21.172 40.5551 21.844C40.9498 22.5053 41.1471 23.3 41.1471 24.228C41.1471 24.324 41.1418 24.436 41.1311 24.564C41.1205 24.6813 41.1098 24.7933 41.0991 24.9H34.1071V23.444H39.7871L38.8271 23.876C38.8271 23.428 38.7365 23.0387 38.5551 22.708C38.3738 22.3773 38.1231 22.1213 37.8031 21.94C37.4831 21.748 37.1098 21.652 36.6831 21.652C36.2565 21.652 35.8778 21.748 35.5471 21.94C35.2271 22.1213 34.9765 22.3827 34.7951 22.724C34.6138 23.0547 34.5231 23.4493 34.5231 23.908V24.292C34.5231 24.7613 34.6245 25.1773 34.8271 25.54C35.0405 25.892 35.3338 26.164 35.7071 26.356C36.0911 26.5373 36.5391 26.628 37.0511 26.628C37.5098 26.628 37.9098 26.5587 38.2511 26.42C38.6031 26.2813 38.9231 26.0733 39.2111 25.796L40.5391 27.236C40.1445 27.684 39.6485 28.0307 39.0511 28.276C38.4538 28.5107 37.7658 28.628 36.9871 28.628ZM47.4009 19.764C48.0835 19.764 48.6915 19.9027 49.2249 20.18C49.7689 20.4467 50.1955 20.8627 50.5049 21.428C50.8142 21.9827 50.9689 22.6973 50.9689 23.572V28.5H48.4729V23.956C48.4729 23.2627 48.3182 22.7507 48.0089 22.42C47.7102 22.0893 47.2835 21.924 46.7289 21.924C46.3342 21.924 45.9769 22.0093 45.6569 22.18C45.3475 22.34 45.1022 22.5907 44.9209 22.932C44.7502 23.2733 44.6649 23.7107 44.6649 24.244V28.5H42.1689V19.892H44.5529V22.276L44.1049 21.556C44.4142 20.98 44.8569 20.5373 45.4329 20.228C46.0089 19.9187 46.6649 19.764 47.4009 19.764ZM56.3499 28.628C55.5392 28.628 54.8085 28.4467 54.1579 28.084C53.5072 27.7107 52.9899 27.1933 52.6059 26.532C52.2325 25.8707 52.0459 25.092 52.0459 24.196C52.0459 23.2893 52.2325 22.5053 52.6059 21.844C52.9899 21.1827 53.5072 20.6707 54.1579 20.308C54.8085 19.9453 55.5392 19.764 56.3499 19.764C57.0752 19.764 57.7099 19.924 58.2539 20.244C58.7979 20.564 59.2192 21.0493 59.5179 21.7C59.8165 22.3507 59.9659 23.1827 59.9659 24.196C59.9659 25.1987 59.8219 26.0307 59.5339 26.692C59.2459 27.3427 58.8299 27.828 58.2859 28.148C57.7525 28.468 57.1072 28.628 56.3499 28.628ZM56.7819 26.58C57.1872 26.58 57.5552 26.484 57.8859 26.292C58.2165 26.1 58.4779 25.828 58.6699 25.476C58.8725 25.1133 58.9739 24.6867 58.9739 24.196C58.9739 23.6947 58.8725 23.268 58.6699 22.916C58.4779 22.564 58.2165 22.292 57.8859 22.1C57.5552 21.908 57.1872 21.812 56.7819 21.812C56.3659 21.812 55.9925 21.908 55.6619 22.1C55.3312 22.292 55.0645 22.564 54.8619 22.916C54.6699 23.268 54.5739 23.6947 54.5739 24.196C54.5739 24.6867 54.6699 25.1133 54.8619 25.476C55.0645 25.828 55.3312 26.1 55.6619 26.292C55.9925 26.484 56.3659 26.58 56.7819 26.58ZM59.0379 28.5V26.74L59.0859 24.18L58.9259 21.636V16.628H61.4219V28.5H59.0379ZM67.1592 28.5V17.3H69.3032L74.0712 25.204H72.9352L77.6233 17.3H79.7513L79.7832 28.5H77.3512L77.3352 21.028H77.7832L74.0392 27.316H72.8712L69.0472 21.028H69.5912V28.5H67.1592ZM85.8965 28.628C84.9152 28.628 84.0512 28.436 83.3045 28.052C82.5685 27.668 81.9978 27.1453 81.5925 26.484C81.1872 25.812 80.9845 25.0493 80.9845 24.196C80.9845 23.332 81.1818 22.5693 81.5765 21.908C81.9818 21.236 82.5312 20.7133 83.2245 20.34C83.9178 19.956 84.7018 19.764 85.5765 19.764C86.4192 19.764 87.1765 19.9453 87.8485 20.308C88.5312 20.66 89.0698 21.172 89.4645 21.844C89.8592 22.5053 90.0565 23.3 90.0565 24.228C90.0565 24.324 90.0512 24.436 90.0405 24.564C90.0298 24.6813 90.0192 24.7933 90.0085 24.9H83.0165V23.444H88.6965L87.7365 23.876C87.7365 23.428 87.6458 23.0387 87.4645 22.708C87.2832 22.3773 87.0325 22.1213 86.7125 21.94C86.3925 21.748 86.0192 21.652 85.5925 21.652C85.1658 21.652 84.7872 21.748 84.4565 21.94C84.1365 22.1213 83.8858 22.3827 83.7045 22.724C83.5232 23.0547 83.4325 23.4493 83.4325 23.908V24.292C83.4325 24.7613 83.5338 25.1773 83.7365 25.54C83.9498 25.892 84.2432 26.164 84.6165 26.356C85.0005 26.5373 85.4485 26.628 85.9605 26.628C86.4192 26.628 86.8192 26.5587 87.1605 26.42C87.5125 26.2813 87.8325 26.0733 88.1205 25.796L89.4485 27.236C89.0538 27.684 88.5578 28.0307 87.9605 28.276C87.3632 28.5107 86.6752 28.628 85.8965 28.628ZM93.9742 28.628C93.2382 28.628 92.5289 28.5427 91.8462 28.372C91.1742 28.1907 90.6409 27.9667 90.2462 27.7L91.0782 25.908C91.4729 26.1533 91.9369 26.356 92.4702 26.516C93.0142 26.6653 93.5476 26.74 94.0702 26.74C94.6462 26.74 95.0516 26.6707 95.2862 26.532C95.5316 26.3933 95.6542 26.2013 95.6542 25.956C95.6542 25.7533 95.5582 25.604 95.3662 25.508C95.1849 25.4013 94.9396 25.3213 94.6302 25.268C94.3209 25.2147 93.9796 25.1613 93.6062 25.108C93.2436 25.0547 92.8756 24.9853 92.5022 24.9C92.1289 24.804 91.7876 24.6653 91.4782 24.484C91.1689 24.3027 90.9182 24.0573 90.7262 23.748C90.5449 23.4387 90.4542 23.0387 90.4542 22.548C90.4542 22.004 90.6089 21.524 90.9182 21.108C91.2382 20.692 91.6969 20.3667 92.2942 20.132C92.8916 19.8867 93.6062 19.764 94.4382 19.764C95.0249 19.764 95.6222 19.828 96.2302 19.956C96.8382 20.084 97.3449 20.2707 97.7502 20.516L96.9182 22.292C96.5022 22.0467 96.0809 21.8813 95.6542 21.796C95.2382 21.7 94.8329 21.652 94.4382 21.652C93.8836 21.652 93.4782 21.7267 93.2222 21.876C92.9662 22.0253 92.8382 22.2173 92.8382 22.452C92.8382 22.6653 92.9289 22.8253 93.1102 22.932C93.3022 23.0387 93.5529 23.124 93.8622 23.188C94.1716 23.252 94.5076 23.3107 94.8702 23.364C95.2436 23.4067 95.6169 23.476 95.9902 23.572C96.3636 23.668 96.6996 23.8067 96.9982 23.988C97.3076 24.1587 97.5582 24.3987 97.7502 24.708C97.9422 25.0067 98.0382 25.4013 98.0382 25.892C98.0382 26.4253 97.8782 26.9 97.5582 27.316C97.2382 27.7213 96.7742 28.0413 96.1662 28.276C95.5689 28.5107 94.8382 28.628 93.9742 28.628ZM101.834 28.628C101.098 28.628 100.389 28.5427 99.7062 28.372C99.0342 28.1907 98.5009 27.9667 98.1062 27.7L98.9382 25.908C99.3329 26.1533 99.7969 26.356 100.33 26.516C100.874 26.6653 101.408 26.74 101.93 26.74C102.506 26.74 102.912 26.6707 103.146 26.532C103.392 26.3933 103.514 26.2013 103.514 25.956C103.514 25.7533 103.418 25.604 103.226 25.508C103.045 25.4013 102.8 25.3213 102.49 25.268C102.181 25.2147 101.84 25.1613 101.466 25.108C101.104 25.0547 100.736 24.9853 100.362 24.9C99.9889 24.804 99.6476 24.6653 99.3382 24.484C99.0289 24.3027 98.7782 24.0573 98.5862 23.748C98.4049 23.4387 98.3142 23.0387 98.3142 22.548C98.3142 22.004 98.4689 21.524 98.7782 21.108C99.0982 20.692 99.5569 20.3667 100.154 20.132C100.752 19.8867 101.466 19.764 102.298 19.764C102.885 19.764 103.482 19.828 104.09 19.956C104.698 20.084 105.205 20.2707 105.61 20.516L104.778 22.292C104.362 22.0467 103.941 21.8813 103.514 21.796C103.098 21.7 102.693 21.652 102.298 21.652C101.744 21.652 101.338 21.7267 101.082 21.876C100.826 22.0253 100.698 22.2173 100.698 22.452C100.698 22.6653 100.789 22.8253 100.97 22.932C101.162 23.0387 101.413 23.124 101.722 23.188C102.032 23.252 102.368 23.3107 102.73 23.364C103.104 23.4067 103.477 23.476 103.85 23.572C104.224 23.668 104.56 23.8067 104.858 23.988C105.168 24.1587 105.418 24.3987 105.61 24.708C105.802 25.0067 105.898 25.4013 105.898 25.892C105.898 26.4253 105.738 26.9 105.418 27.316C105.098 27.7213 104.634 28.0413 104.026 28.276C103.429 28.5107 102.698 28.628 101.834 28.628ZM112.078 28.5V26.82L111.918 26.452V23.444C111.918 22.9107 111.753 22.4947 111.422 22.196C111.102 21.8973 110.606 21.748 109.934 21.748C109.476 21.748 109.022 21.8227 108.574 21.972C108.137 22.1107 107.764 22.3027 107.454 22.548L106.558 20.804C107.028 20.4733 107.593 20.2173 108.254 20.036C108.916 19.8547 109.588 19.764 110.27 19.764C111.582 19.764 112.601 20.0733 113.326 20.692C114.052 21.3107 114.414 22.276 114.414 23.588V28.5H112.078ZM109.454 28.628C108.782 28.628 108.206 28.516 107.726 28.292C107.246 28.0573 106.878 27.7427 106.622 27.348C106.366 26.9533 106.238 26.5107 106.238 26.02C106.238 25.508 106.361 25.06 106.606 24.676C106.862 24.292 107.262 23.9933 107.806 23.78C108.35 23.556 109.06 23.444 109.934 23.444H112.222V24.9H110.206C109.62 24.9 109.214 24.996 108.99 25.188C108.777 25.38 108.67 25.62 108.67 25.908C108.67 26.228 108.793 26.484 109.038 26.676C109.294 26.8573 109.641 26.948 110.078 26.948C110.494 26.948 110.868 26.852 111.198 26.66C111.529 26.4573 111.769 26.164 111.918 25.78L112.302 26.932C112.121 27.4867 111.79 27.908 111.31 28.196C110.83 28.484 110.212 28.628 109.454 28.628ZM120.144 31.732C119.333 31.732 118.549 31.6307 117.792 31.428C117.045 31.236 116.421 30.9427 115.92 30.548L116.912 28.756C117.274 29.0547 117.733 29.2893 118.288 29.46C118.853 29.6413 119.408 29.732 119.952 29.732C120.837 29.732 121.477 29.5347 121.872 29.14C122.277 28.7453 122.48 28.1587 122.48 27.38V26.084L122.64 23.924L122.608 21.748V19.892H124.976V27.06C124.976 28.66 124.56 29.8387 123.728 30.596C122.896 31.3533 121.701 31.732 120.144 31.732ZM119.76 28.084C118.96 28.084 118.234 27.9133 117.584 27.572C116.944 27.22 116.426 26.7347 116.032 26.116C115.648 25.4867 115.456 24.756 115.456 23.924C115.456 23.0813 115.648 22.3507 116.032 21.732C116.426 21.1027 116.944 20.6173 117.584 20.276C118.234 19.9347 118.96 19.764 119.76 19.764C120.485 19.764 121.125 19.9133 121.68 20.212C122.234 20.5 122.666 20.9533 122.976 21.572C123.285 22.18 123.44 22.964 123.44 23.924C123.44 24.8733 123.285 25.6573 122.976 26.276C122.666 26.884 122.234 27.3373 121.68 27.636C121.125 27.9347 120.485 28.084 119.76 28.084ZM120.256 26.036C120.693 26.036 121.082 25.9507 121.424 25.78C121.765 25.5987 122.032 25.348 122.224 25.028C122.416 24.708 122.512 24.34 122.512 23.924C122.512 23.4973 122.416 23.1293 122.224 22.82C122.032 22.5 121.765 22.2547 121.424 22.084C121.082 21.9027 120.693 21.812 120.256 21.812C119.818 21.812 119.429 21.9027 119.088 22.084C118.746 22.2547 118.474 22.5 118.272 22.82C118.08 23.1293 117.984 23.4973 117.984 23.924C117.984 24.34 118.08 24.708 118.272 25.028C118.474 25.348 118.746 25.5987 119.088 25.78C119.429 25.9507 119.818 26.036 120.256 26.036ZM130.931 28.628C129.95 28.628 129.086 28.436 128.339 28.052C127.603 27.668 127.032 27.1453 126.627 26.484C126.222 25.812 126.019 25.0493 126.019 24.196C126.019 23.332 126.216 22.5693 126.611 21.908C127.016 21.236 127.566 20.7133 128.259 20.34C128.952 19.956 129.736 19.764 130.611 19.764C131.454 19.764 132.211 19.9453 132.883 20.308C133.566 20.66 134.104 21.172 134.499 21.844C134.894 22.5053 135.091 23.3 135.091 24.228C135.091 24.324 135.086 24.436 135.075 24.564C135.064 24.6813 135.054 24.7933 135.043 24.9H128.051V23.444H133.731L132.771 23.876C132.771 23.428 132.68 23.0387 132.499 22.708C132.318 22.3773 132.067 22.1213 131.747 21.94C131.427 21.748 131.054 21.652 130.627 21.652C130.2 21.652 129.822 21.748 129.491 21.94C129.171 22.1213 128.92 22.3827 128.739 22.724C128.558 23.0547 128.467 23.4493 128.467 23.908V24.292C128.467 24.7613 128.568 25.1773 128.771 25.54C128.984 25.892 129.278 26.164 129.651 26.356C130.035 26.5373 130.483 26.628 130.995 26.628C131.454 26.628 131.854 26.5587 132.195 26.42C132.547 26.2813 132.867 26.0733 133.155 25.796L134.483 27.236C134.088 27.684 133.592 28.0307 132.995 28.276C132.398 28.5107 131.71 28.628 130.931 28.628Z" fill="#718ACA"/>
<path d="M-2 22.5C-2 9.24517 8.74517 -1.5 22 -1.5H138C151.255 -1.5 162 9.24517 162 22.5H154C154 11.4543 145.941 2.5 136 2.5H22C10.9543 2.5 2 11.4543 2 22.5H-2ZM162 22.5C162 36.8594 150.359 48.5 136 48.5H22C8.74517 48.5 -2 37.7548 -2 24.5L2 22.5C2 32.4411 10.9543 40.5 22 40.5H136C145.941 40.5 154 32.4411 154 22.5H162ZM22 48.5C8.74517 48.5 -2 37.7548 -2 24.5V22.5C-2 9.24517 8.74517 -1.5 22 -1.5V2.5C10.9543 2.5 2 11.4543 2 22.5C2 32.4411 10.9543 40.5 22 40.5V48.5ZM138 -1.5C151.255 -1.5 162 9.24517 162 22.5C162 36.8594 150.359 48.5 136 48.5V40.5C145.941 40.5 154 32.4411 154 22.5C154 11.4543 145.941 2.5 136 2.5L138 -1.5Z" fill="#718ACA" mask="url(#path-1-inside-1_4242_520)"/>
</svg>
