<svg width="16" height="10" viewBox="0 0 16 10" fill="none" xmlns="http://www.w3.org/2000/svg">
<path d="M5 9C7.20914 9 9 7.20914 9 5C9 2.79086 7.20914 1 5 1C2.79086 1 1 2.79086 1 5C1 7.20914 2.79086 9 5 9ZM5 10C2.23858 10 0 7.76142 0 5C0 2.23858 2.23858 0 5 0C7.76142 0 10 2.23858 10 5C10 7.76142 7.76142 10 5 10ZM11 9C13.2091 9 15 7.20914 15 5C15 2.79086 13.2091 1 11 1C8.79086 1 7 2.79086 7 5C7 7.20914 8.79086 9 11 9ZM11 10C8.23858 10 6 7.76142 6 5C6 2.23858 8.23858 0 11 0C13.7614 0 16 2.23858 16 5C16 7.76142 13.7614 10 11 10Z" fill="#AC4E6D"/>
</svg>
