<svg width="15" height="6" viewBox="0 0 15 6" fill="none" xmlns="http://www.w3.org/2000/svg">
<path d="M10.692 5.14486L12.9902 3.35327C13.2486 3.15665 13.2486 2.84427 12.9902 2.64673L10.692 0.855141C10.436 0.659444 10.436 0.341551 10.692 0.146773C10.9481 -0.0489243 11.3658 -0.0489243 11.6218 0.146773L13.9212 1.93837C14.6942 2.52729 14.6917 3.47454 13.9212 4.06163L11.6218 5.85323C11.3658 6.04892 10.9481 6.04892 10.692 5.85323C10.436 5.65845 10.436 5.34056 10.692 5.14486ZM4.30798 0.855141L2.00984 2.64673C1.75136 2.84335 1.75136 3.15573 2.00984 3.35327L4.30798 5.14486C4.56401 5.34056 4.56401 5.65845 4.30798 5.85323C4.05195 6.04892 3.63422 6.04892 3.37819 5.85323L1.07882 4.06163C0.305835 3.47271 0.308285 2.52546 1.07882 1.93837L3.37819 0.146773C3.63422 -0.0489243 4.05195 -0.0489243 4.30798 0.146773C4.56401 0.341551 4.56401 0.659444 4.30798 0.855141ZM6 1H9C9.27614 1 9.5 1.22386 9.5 1.5C9.5 1.77614 9.27614 2 9 2H6C5.72386 2 5.5 1.77614 5.5 1.5C5.5 1.22386 5.72386 1 6 1ZM6 4H9C9.27614 4 9.5 4.22386 9.5 4.5C9.5 4.77614 9.27614 5 9 5H6C5.72386 5 5.5 4.77614 5.5 4.5C5.5 4.22386 5.72386 4 6 4Z" fill="#4A7194"/>
</svg>
