<svg width="64" height="45" viewBox="0 0 64 45" fill="none" xmlns="http://www.w3.org/2000/svg">
<rect x="0.333984" width="63.6667" height="45" rx="10" fill="#E4EBFF"/>
<path opacity="0.5" d="M29.168 17.5C29.168 15.8 30.468 14.5 32.168 14.5C33.868 14.5 35.168 15.8 35.168 17.5V19.5H37.168V17.5C37.168 14.7 34.968 12.5 32.168 12.5C29.368 12.5 27.168 14.7 27.168 17.5V19.5H29.168V17.5ZM33.668 25C33.668 24.2 32.968 23.5 32.168 23.5C31.368 23.5 30.668 24.2 30.668 25C30.668 25.4 30.868 25.8 31.168 26.1V27.5C31.168 28.1 31.568 28.5 32.168 28.5C32.768 28.5 33.168 28.1 33.168 27.5V26.1C33.468 25.8 33.668 25.4 33.668 25Z" fill="#496ABE"/>
<path d="M37.168 19.5H27.168C25.468 19.5 24.168 20.8 24.168 22.5V29.5C24.168 31.2 25.468 32.5 27.168 32.5H37.168C38.868 32.5 40.168 31.2 40.168 29.5V22.5C40.168 20.8 38.868 19.5 37.168 19.5ZM33.168 26.1V27.5C33.168 28.1 32.768 28.5 32.168 28.5C31.568 28.5 31.168 28.1 31.168 27.5V26.1C30.868 25.8 30.668 25.4 30.668 25C30.668 24.2 31.368 23.5 32.168 23.5C32.968 23.5 33.668 24.2 33.668 25C33.668 25.4 33.468 25.8 33.168 26.1Z" fill="#496ABE"/>
</svg>
