<svg width="64" height="50" viewBox="0 0 64 50" fill="none" xmlns="http://www.w3.org/2000/svg">
<rect width="63.6667" height="45" rx="10" fill="#FFD433"/>
<g filter="url(#filter0_d_2945_84785)">
<path d="M23.1719 7.16102C23.1719 5.88392 24.2072 4.84863 25.4843 4.84863H38.2612C39.5383 4.84863 40.5736 5.88392 40.5736 7.16102V7.35837C40.5736 8.52647 39.6266 9.4734 38.4585 9.4734V7.04344H25.2869V9.4734C24.1188 9.4734 23.1719 8.52647 23.1719 7.35837V7.16102Z" fill="#FFEEB0"/>
<path d="M23.1719 7.45301C23.1719 6.17592 24.2072 5.14062 25.4843 5.14062H38.2612C39.5383 5.14062 40.5736 6.17592 40.5736 7.45301V7.65036C40.5736 8.81846 39.6266 9.7654 38.4585 9.7654V7.33543H25.2869V9.7654C24.1188 9.7654 23.1719 8.81846 23.1719 7.65036V7.45301Z" fill="#F4CC3F"/>
<path d="M25.2891 7.30859H38.4579V16.6346L31.8735 21.2543L25.2891 16.6346V7.30859Z" fill="#CE4444"/>
<mask id="mask0_2945_84785" style="mask-type:alpha" maskUnits="userSpaceOnUse" x="25" y="7" width="14" height="15">
<path d="M25.291 7.30957H38.4538V16.6371L31.8724 21.2553L25.291 16.6371V7.30957Z" fill="#AF3B3B"/>
</mask>
<g mask="url(#mask0_2945_84785)">
<path d="M29.3516 1.77344H34.3926V21.2548H29.3516V1.77344Z" fill="#983535"/>
</g>
<path d="M30.7754 19.8668C30.7754 19.2824 31.2492 18.8086 31.8336 18.8086C32.418 18.8086 32.8918 19.2824 32.8918 19.8668V21.3561C32.8918 21.9406 32.418 22.4143 31.8336 22.4143C31.2492 22.4143 30.7754 21.9406 30.7754 21.3561V19.8668Z" fill="#C09525"/>
<path d="M41.1224 30.863C41.1224 35.993 36.9637 40.1517 31.8337 40.1517C26.7036 40.1517 22.5449 35.993 22.5449 30.863C22.5449 25.7329 26.7036 21.5742 31.8337 21.5742C36.9637 21.5742 41.1224 25.7329 41.1224 30.863Z" fill="url(#paint0_linear_2945_84785)"/>
<path d="M39.0834 30.863C39.0834 34.8675 35.8372 38.1137 31.8327 38.1137C27.8283 38.1137 24.582 34.8675 24.582 30.863C24.582 26.8586 27.8283 23.6123 31.8327 23.6123C35.8372 23.6123 39.0834 26.8586 39.0834 30.863Z" fill="#705100"/>
<mask id="mask1_2945_84785" style="mask-type:alpha" maskUnits="userSpaceOnUse" x="25" y="24" width="15" height="15">
<path d="M39.541 31.6894C39.541 35.7032 36.2872 38.957 32.2734 38.957C28.2597 38.957 25.0059 35.7032 25.0059 31.6894C25.0059 27.6757 28.2597 24.4219 32.2734 24.4219C36.2872 24.4219 39.541 27.6757 39.541 31.6894Z" fill="#C28B37"/>
</mask>
<g mask="url(#mask1_2945_84785)">
<path d="M39.1016 30.8623C39.1016 34.8761 35.8478 38.1299 31.834 38.1299C27.8202 38.1299 24.5664 34.8761 24.5664 30.8623C24.5664 26.8485 27.8202 23.5947 31.834 23.5947C35.8478 23.5947 39.1016 26.8485 39.1016 30.8623Z" fill="#F5B307"/>
</g>
<path d="M37.9019 30.9148C37.9019 34.2122 35.2288 36.8853 31.9314 36.8853C28.634 36.8853 25.9609 34.2122 25.9609 30.9148C25.9609 27.6174 28.634 24.9443 31.9314 24.9443C35.2288 24.9443 37.9019 27.6174 37.9019 30.9148Z" fill="#C18222"/>
<path d="M31.932 26.1094L33.3397 28.9733L36.155 29.3312L34.2218 31.5364L34.7473 34.701L31.932 33.2691L29.1167 34.701L29.6469 31.5364L27.709 29.3312L30.5243 28.9733L31.932 26.1094Z" fill="url(#paint1_linear_2945_84785)"/>
<path fill-rule="evenodd" clip-rule="evenodd" d="M31.9308 24.3545L33.8493 28.2578L37.6954 28.7469L35.0442 31.771L35.7607 36.0854L31.9308 34.1374L28.0984 36.0866L28.8215 31.7711L26.1641 28.7471L30.0122 28.2578L31.9308 24.3545ZM30.5231 28.9731L27.7078 29.3311L29.6457 31.5363L29.1154 34.7009L31.9308 33.269L34.7461 34.7009L34.2206 31.5363L36.1538 29.3311L33.3384 28.9731L31.9308 26.1093L30.5231 28.9731Z" fill="#A36D1D" fill-opacity="0.2"/>
<path opacity="0.5" d="M38.4844 13.1504L25.2329 13.1504L25.2329 7.32555L38.4844 7.32555L38.4844 13.1504Z" fill="url(#paint2_linear_2945_84785)"/>
</g>
<defs>
<filter id="filter0_d_2945_84785" x="21.9384" y="4.24216" width="28.2817" height="45.0063" filterUnits="userSpaceOnUse" color-interpolation-filters="sRGB">
<feFlood flood-opacity="0" result="BackgroundImageFix"/>
<feColorMatrix in="SourceAlpha" type="matrix" values="0 0 0 0 0 0 0 0 0 0 0 0 0 0 0 0 0 0 127 0" result="hardAlpha"/>
<feOffset dx="4.24533" dy="4.24533"/>
<feGaussianBlur stdDeviation="2.4259"/>
<feComposite in2="hardAlpha" operator="out"/>
<feColorMatrix type="matrix" values="0 0 0 0 0 0 0 0 0 0 0 0 0 0 0 0 0 0 0.3 0"/>
<feBlend mode="normal" in2="BackgroundImageFix" result="effect1_dropShadow_2945_84785"/>
<feBlend mode="normal" in="SourceGraphic" in2="effect1_dropShadow_2945_84785" result="shape"/>
</filter>
<linearGradient id="paint0_linear_2945_84785" x1="31.8337" y1="21.5742" x2="31.8337" y2="40.1517" gradientUnits="userSpaceOnUse">
<stop stop-color="#E7CD73"/>
<stop offset="1" stop-color="#EA8C00"/>
</linearGradient>
<linearGradient id="paint1_linear_2945_84785" x1="31.932" y1="26.1094" x2="31.932" y2="34.701" gradientUnits="userSpaceOnUse">
<stop stop-color="white"/>
<stop offset="0.0001" stop-color="#FFFFFD"/>
<stop offset="1" stop-color="#FFE86D"/>
</linearGradient>
<linearGradient id="paint2_linear_2945_84785" x1="31.8586" y1="13.1504" x2="31.8586" y2="7.32555" gradientUnits="userSpaceOnUse">
<stop stop-color="#A21D1D" stop-opacity="0"/>
<stop offset="1" stop-color="#5A1414"/>
</linearGradient>
</defs>
</svg>
