<svg width="65" height="50" viewBox="0 0 65 50" fill="none" xmlns="http://www.w3.org/2000/svg">
<rect x="0.666016" width="63.6667" height="45" rx="10" fill="#FFD433"/>
<g filter="url(#filter0_d_2945_84803)">
<path d="M23.875 7.22462C23.875 5.95285 24.906 4.92188 26.1777 4.92188H38.9014C40.1731 4.92188 41.2041 5.95285 41.2041 7.22462V7.42115C41.2041 8.58438 40.2611 9.52736 39.0979 9.52736V7.10753H25.9812V9.52736C24.818 9.52736 23.875 8.58438 23.875 7.42115V7.22462Z" fill="#FFEEB0"/>
<path d="M23.875 7.51563C23.875 6.24386 24.906 5.21289 26.1777 5.21289H38.9014C40.1731 5.21289 41.2041 6.24386 41.2041 7.51563V7.71216C41.2041 8.87539 40.2611 9.81838 39.0979 9.81838V7.39854H25.9812V9.81838C24.818 9.81838 23.875 8.87539 23.875 7.71216V7.51563Z" fill="#F4CC3F"/>
<path d="M25.9824 7.37109H39.0963V16.6582L32.5394 21.2587L25.9824 16.6582V7.37109Z" fill="#2874BA"/>
<mask id="mask0_2945_84803" style="mask-type:alpha" maskUnits="userSpaceOnUse" x="26" y="7" width="14" height="15">
<path d="M26.0098 7.37207H39.1176V16.6607L32.5637 21.2596L26.0098 16.6607V7.37207Z" fill="#2874BA"/>
</mask>
<g mask="url(#mask0_2945_84803)">
<path d="M30.0527 1.8584H35.0728V21.2585H30.0527V1.8584Z" fill="#2D4071"/>
</g>
<path d="M31.4453 19.878C31.4453 19.296 31.9171 18.8242 32.4991 18.8242C33.0811 18.8242 33.5529 19.296 33.5529 19.878V21.3611C33.5529 21.9431 33.0811 22.4149 32.4991 22.4149C31.9171 22.4149 31.4453 21.9431 31.4453 21.3611V19.878Z" fill="#C09525"/>
<path d="M41.75 30.8271C41.75 35.9358 37.6086 40.0771 32.5 40.0771C27.3914 40.0771 23.25 35.9358 23.25 30.8271C23.25 25.7185 27.3914 21.5771 32.5 21.5771C37.6086 21.5771 41.75 25.7185 41.75 30.8271Z" fill="url(#paint0_linear_2945_84803)"/>
<path d="M39.7202 30.8279C39.7202 34.8156 36.4875 38.0483 32.4998 38.0483C28.512 38.0483 25.2793 34.8156 25.2793 30.8279C25.2793 26.8401 28.512 23.6074 32.4998 23.6074C36.4875 23.6074 39.7202 26.8401 39.7202 30.8279Z" fill="#705100"/>
<mask id="mask1_2945_84803" style="mask-type:alpha" maskUnits="userSpaceOnUse" x="25" y="24" width="16" height="15">
<path d="M40.1738 31.6513C40.1738 35.6484 36.9335 38.8886 32.9365 38.8886C28.9395 38.8886 25.6992 35.6484 25.6992 31.6513C25.6992 27.6543 28.9395 24.4141 32.9365 24.4141C36.9335 24.4141 40.1738 27.6543 40.1738 31.6513Z" fill="#C28B37"/>
</mask>
<g mask="url(#mask1_2945_84803)">
<path d="M39.7363 30.8281C39.7363 34.8251 36.496 38.0654 32.499 38.0654C28.502 38.0654 25.2617 34.8251 25.2617 30.8281C25.2617 26.8311 28.502 23.5908 32.499 23.5908C36.496 23.5908 39.7363 26.8311 39.7363 30.8281Z" fill="#E3A504"/>
</g>
<path d="M38.5435 30.8792C38.5435 34.1628 35.8816 36.8247 32.5979 36.8247C29.3143 36.8247 26.6523 34.1628 26.6523 30.8792C26.6523 27.5955 29.3143 24.9336 32.5979 24.9336C35.8816 24.9336 38.5435 27.5955 38.5435 30.8792Z" fill="#C18222"/>
<path d="M32.598 26.0938L33.9998 28.9457L36.8034 29.3022L34.8782 31.4982L35.4016 34.6496L32.598 33.2236L29.7944 34.6496L30.3224 31.4982L28.3926 29.3022L31.1962 28.9457L32.598 26.0938Z" fill="url(#paint1_linear_2945_84803)"/>
<path fill-rule="evenodd" clip-rule="evenodd" d="M32.5981 24.3467L34.5087 28.2337L38.3387 28.7207L35.6986 31.7323L36.4121 36.0286L32.5981 34.0888L28.7817 36.0299L29.5018 31.7323L26.8555 28.721L30.6875 28.2337L32.5981 24.3467ZM31.1963 28.9461L28.3927 29.3026L30.3225 31.4985L29.7945 34.6499L32.5981 33.224L35.4017 34.6499L34.8784 31.4985L36.8035 29.3026L33.9999 28.9461L32.5981 26.0941L31.1963 28.9461Z" fill="#A36D1D" fill-opacity="0.2"/>
<path opacity="0.5" d="M39.1582 13.1885L25.962 13.1885L25.962 7.38793L39.1582 7.38793L39.1582 13.1885Z" fill="url(#paint2_linear_2945_84803)"/>
</g>
<defs>
<filter id="filter0_d_2945_84803" x="22.6461" y="4.31793" width="28.1631" height="44.8184" filterUnits="userSpaceOnUse" color-interpolation-filters="sRGB">
<feFlood flood-opacity="0" result="BackgroundImageFix"/>
<feColorMatrix in="SourceAlpha" type="matrix" values="0 0 0 0 0 0 0 0 0 0 0 0 0 0 0 0 0 0 127 0" result="hardAlpha"/>
<feOffset dx="4.22762" dy="4.22762"/>
<feGaussianBlur stdDeviation="2.41579"/>
<feComposite in2="hardAlpha" operator="out"/>
<feColorMatrix type="matrix" values="0 0 0 0 0 0 0 0 0 0 0 0 0 0 0 0 0 0 0.3 0"/>
<feBlend mode="normal" in2="BackgroundImageFix" result="effect1_dropShadow_2945_84803"/>
<feBlend mode="normal" in="SourceGraphic" in2="effect1_dropShadow_2945_84803" result="shape"/>
</filter>
<linearGradient id="paint0_linear_2945_84803" x1="32.5" y1="21.5771" x2="32.5" y2="40.0771" gradientUnits="userSpaceOnUse">
<stop stop-color="#FFE176"/>
<stop offset="1" stop-color="#FFD12D"/>
</linearGradient>
<linearGradient id="paint1_linear_2945_84803" x1="32.598" y1="26.0938" x2="32.598" y2="34.6496" gradientUnits="userSpaceOnUse">
<stop stop-color="white"/>
<stop offset="0.0001" stop-color="#FFFFFD"/>
<stop offset="1" stop-color="#FFE86D"/>
</linearGradient>
<linearGradient id="paint2_linear_2945_84803" x1="32.5601" y1="13.1885" x2="32.5601" y2="7.38793" gradientUnits="userSpaceOnUse">
<stop stop-color="#1D62A2" stop-opacity="0"/>
<stop offset="1" stop-color="#14275A"/>
</linearGradient>
</defs>
</svg>
