<svg width="148" height="44" viewBox="0 0 148 44" fill="none" xmlns="http://www.w3.org/2000/svg">
<mask id="path-1-inside-1_4327_102404" fill="white">
<path d="M0 22C0 9.84974 9.84974 0 22 0H126C138.15 0 148 9.84974 148 22C148 34.1503 138.15 44 126 44H22C9.84973 44 0 34.1503 0 22Z"/>
</mask>
<path d="M0 22C0 9.84974 9.84974 0 22 0H126C138.15 0 148 9.84974 148 22C148 34.1503 138.15 44 126 44H22C9.84973 44 0 34.1503 0 22Z" fill="#718ACA"/>
<path d="M21.856 28L26.848 16.8H29.408L34.416 28H31.696L27.6 18.112H28.624L24.512 28H21.856ZM24.352 25.6L25.04 23.632H30.8L31.504 25.6H24.352ZM38.8439 28.128C37.9159 28.128 37.0892 27.9413 36.3639 27.568C35.6385 27.184 35.0679 26.656 34.6519 25.984C34.2465 25.312 34.0439 24.5493 34.0439 23.696C34.0439 22.832 34.2465 22.0693 34.6519 21.408C35.0679 20.736 35.6385 20.2133 36.3639 19.84C37.0892 19.456 37.9159 19.264 38.8439 19.264C39.7505 19.264 40.5399 19.456 41.2119 19.84C41.8839 20.2133 42.3799 20.752 42.6999 21.456L40.7639 22.496C40.5399 22.0907 40.2572 21.792 39.9159 21.6C39.5852 21.408 39.2225 21.312 38.8279 21.312C38.4012 21.312 38.0172 21.408 37.6759 21.6C37.3345 21.792 37.0625 22.064 36.8599 22.416C36.6679 22.768 36.5719 23.1947 36.5719 23.696C36.5719 24.1973 36.6679 24.624 36.8599 24.976C37.0625 25.328 37.3345 25.6 37.6759 25.792C38.0172 25.984 38.4012 26.08 38.8279 26.08C39.2225 26.08 39.5852 25.9893 39.9159 25.808C40.2572 25.616 40.5399 25.312 40.7639 24.896L42.6999 25.952C42.3799 26.6453 41.8839 27.184 41.2119 27.568C40.5399 27.9413 39.7505 28.128 38.8439 28.128ZM47.5476 28.128C46.6196 28.128 45.793 27.9413 45.0676 27.568C44.3423 27.184 43.7716 26.656 43.3556 25.984C42.9503 25.312 42.7476 24.5493 42.7476 23.696C42.7476 22.832 42.9503 22.0693 43.3556 21.408C43.7716 20.736 44.3423 20.2133 45.0676 19.84C45.793 19.456 46.6196 19.264 47.5476 19.264C48.4543 19.264 49.2436 19.456 49.9156 19.84C50.5876 20.2133 51.0836 20.752 51.4036 21.456L49.4676 22.496C49.2436 22.0907 48.961 21.792 48.6196 21.6C48.289 21.408 47.9263 21.312 47.5316 21.312C47.105 21.312 46.721 21.408 46.3796 21.6C46.0383 21.792 45.7663 22.064 45.5636 22.416C45.3716 22.768 45.2756 23.1947 45.2756 23.696C45.2756 24.1973 45.3716 24.624 45.5636 24.976C45.7663 25.328 46.0383 25.6 46.3796 25.792C46.721 25.984 47.105 26.08 47.5316 26.08C47.9263 26.08 48.289 25.9893 48.6196 25.808C48.961 25.616 49.2436 25.312 49.4676 24.896L51.4036 25.952C51.0836 26.6453 50.5876 27.184 49.9156 27.568C49.2436 27.9413 48.4543 28.128 47.5476 28.128ZM56.3634 28.128C55.382 28.128 54.518 27.936 53.7714 27.552C53.0354 27.168 52.4647 26.6453 52.0594 25.984C51.654 25.312 51.4514 24.5493 51.4514 23.696C51.4514 22.832 51.6487 22.0693 52.0434 21.408C52.4487 20.736 52.998 20.2133 53.6914 19.84C54.3847 19.456 55.1687 19.264 56.0434 19.264C56.886 19.264 57.6434 19.4453 58.3154 19.808C58.998 20.16 59.5367 20.672 59.9314 21.344C60.326 22.0053 60.5234 22.8 60.5234 23.728C60.5234 23.824 60.518 23.936 60.5074 24.064C60.4967 24.1813 60.486 24.2933 60.4754 24.4H53.4834V22.944H59.1634L58.2034 23.376C58.2034 22.928 58.1127 22.5387 57.9314 22.208C57.75 21.8773 57.4994 21.6213 57.1794 21.44C56.8594 21.248 56.486 21.152 56.0594 21.152C55.6327 21.152 55.254 21.248 54.9234 21.44C54.6034 21.6213 54.3527 21.8827 54.1714 22.224C53.99 22.5547 53.8994 22.9493 53.8994 23.408V23.792C53.8994 24.2613 54.0007 24.6773 54.2034 25.04C54.4167 25.392 54.71 25.664 55.0834 25.856C55.4674 26.0373 55.9154 26.128 56.4274 26.128C56.886 26.128 57.286 26.0587 57.6274 25.92C57.9794 25.7813 58.2994 25.5733 58.5874 25.296L59.9154 26.736C59.5207 27.184 59.0247 27.5307 58.4274 27.776C57.83 28.0107 57.142 28.128 56.3634 28.128ZM66.6331 28.128C65.9078 28.128 65.2731 27.968 64.7291 27.648C64.1851 27.328 63.7585 26.8427 63.4491 26.192C63.1505 25.5307 63.0011 24.6987 63.0011 23.696C63.0011 22.6827 63.1451 21.8507 63.4331 21.2C63.7211 20.5493 64.1371 20.064 64.6811 19.744C65.2251 19.424 65.8758 19.264 66.6331 19.264C67.4438 19.264 68.1691 19.4507 68.8091 19.824C69.4598 20.1867 69.9718 20.6987 70.3451 21.36C70.7291 22.0213 70.9211 22.8 70.9211 23.696C70.9211 24.6027 70.7291 25.3867 70.3451 26.048C69.9718 26.7093 69.4598 27.2213 68.8091 27.584C68.1691 27.9467 67.4438 28.128 66.6331 28.128ZM61.5451 31.104V19.392H63.9291V21.152L63.8811 23.712L64.0411 26.256V31.104H61.5451ZM66.2011 26.08C66.6171 26.08 66.9851 25.984 67.3051 25.792C67.6358 25.6 67.8971 25.328 68.0891 24.976C68.2918 24.6133 68.3931 24.1867 68.3931 23.696C68.3931 23.1947 68.2918 22.768 68.0891 22.416C67.8971 22.064 67.6358 21.792 67.3051 21.6C66.9851 21.408 66.6171 21.312 66.2011 21.312C65.7851 21.312 65.4118 21.408 65.0811 21.6C64.7505 21.792 64.4891 22.064 64.2971 22.416C64.1051 22.768 64.0091 23.1947 64.0091 23.696C64.0091 24.1867 64.1051 24.6133 64.2971 24.976C64.4891 25.328 64.7505 25.6 65.0811 25.792C65.4118 25.984 65.7851 26.08 66.2011 26.08ZM75.472 28.128C74.4587 28.128 73.6693 27.872 73.104 27.36C72.5387 26.8373 72.256 26.064 72.256 25.04V17.488H74.752V25.008C74.752 25.3707 74.848 25.6533 75.04 25.856C75.232 26.048 75.4933 26.144 75.824 26.144C76.2187 26.144 76.5547 26.0373 76.832 25.824L77.504 27.584C77.248 27.7653 76.9387 27.904 76.576 28C76.224 28.0853 75.856 28.128 75.472 28.128ZM70.928 21.504V19.584H76.896V21.504H70.928ZM82.3324 28V16.8H84.9244V28H82.3324ZM91.9984 19.264C92.681 19.264 93.289 19.4027 93.8224 19.68C94.3664 19.9467 94.793 20.3627 95.1024 20.928C95.4117 21.4827 95.5664 22.1973 95.5664 23.072V28H93.0704V23.456C93.0704 22.7627 92.9157 22.2507 92.6064 21.92C92.3077 21.5893 91.881 21.424 91.3264 21.424C90.9317 21.424 90.5744 21.5093 90.2544 21.68C89.945 21.84 89.6997 22.0907 89.5184 22.432C89.3477 22.7733 89.2624 23.2107 89.2624 23.744V28H86.7664V19.392H89.1504V21.776L88.7024 21.056C89.0117 20.48 89.4544 20.0373 90.0304 19.728C90.6064 19.4187 91.2624 19.264 91.9984 19.264ZM99.3686 28L95.7526 19.392H98.3286L101.337 26.8H100.057L103.177 19.392H105.577L101.945 28H99.3686ZM105.955 28V19.392H108.451V28H105.955ZM107.203 18.192C106.744 18.192 106.371 18.0587 106.083 17.792C105.795 17.5253 105.651 17.1947 105.651 16.8C105.651 16.4053 105.795 16.0747 106.083 15.808C106.371 15.5413 106.744 15.408 107.203 15.408C107.662 15.408 108.035 15.536 108.323 15.792C108.611 16.0373 108.755 16.3573 108.755 16.752C108.755 17.168 108.611 17.5147 108.323 17.792C108.046 18.0587 107.672 18.192 107.203 18.192ZM113.648 28.128C112.634 28.128 111.845 27.872 111.28 27.36C110.714 26.8373 110.432 26.064 110.432 25.04V17.488H112.928V25.008C112.928 25.3707 113.024 25.6533 113.216 25.856C113.408 26.048 113.669 26.144 114 26.144C114.394 26.144 114.73 26.0373 115.008 25.824L115.68 27.584C115.424 27.7653 115.114 27.904 114.752 28C114.4 28.0853 114.032 28.128 113.648 28.128ZM109.104 21.504V19.584H115.072V21.504H109.104ZM120.447 28.128C119.466 28.128 118.602 27.936 117.855 27.552C117.119 27.168 116.548 26.6453 116.143 25.984C115.738 25.312 115.535 24.5493 115.535 23.696C115.535 22.832 115.732 22.0693 116.127 21.408C116.532 20.736 117.082 20.2133 117.775 19.84C118.468 19.456 119.252 19.264 120.127 19.264C120.97 19.264 121.727 19.4453 122.399 19.808C123.082 20.16 123.62 20.672 124.015 21.344C124.41 22.0053 124.607 22.8 124.607 23.728C124.607 23.824 124.602 23.936 124.591 24.064C124.58 24.1813 124.57 24.2933 124.559 24.4H117.567V22.944H123.247L122.287 23.376C122.287 22.928 122.196 22.5387 122.015 22.208C121.834 21.8773 121.583 21.6213 121.263 21.44C120.943 21.248 120.57 21.152 120.143 21.152C119.716 21.152 119.338 21.248 119.007 21.44C118.687 21.6213 118.436 21.8827 118.255 22.224C118.074 22.5547 117.983 22.9493 117.983 23.408V23.792C117.983 24.2613 118.084 24.6773 118.287 25.04C118.5 25.392 118.794 25.664 119.167 25.856C119.551 26.0373 119.999 26.128 120.511 26.128C120.97 26.128 121.37 26.0587 121.711 25.92C122.063 25.7813 122.383 25.5733 122.671 25.296L123.999 26.736C123.604 27.184 123.108 27.5307 122.511 27.776C121.914 28.0107 121.226 28.128 120.447 28.128Z" fill="white"/>
<path d="M0 0H148H0ZM150 23.5C150 36.4787 139.479 47 126.5 47H25C11.1929 47 0 35.8071 0 22C0 32.4934 9.84974 41 22 41H126C137.046 41 146 32.4934 146 22L150 23.5ZM0 44V0V44ZM126.5 0C139.479 0 150 10.5213 150 23.5C150 36.4787 139.479 47 126.5 47L126 41C137.046 41 146 32.4934 146 22C146 9.84974 137.046 0 126 0H126.5Z" fill="#475780" mask="url(#path-1-inside-1_4327_102404)"/>
</svg>
