<svg width="44" height="21" viewBox="0 0 44 21" fill="none" xmlns="http://www.w3.org/2000/svg">
<g id="Frame 1261151934">
<g id="Group 1000000825">
<path id="Vector 680" d="M13.4993 15.0061V8.75573C13.4993 8.75573 8.08277 7.50601 0.999023 5.00586C3.49917 11.2559 10.5824 11.2559 10.5824 11.2559C10.5824 11.2559 8.08277 12.5063 3.49917 12.0896C6.41636 15.8391 13.4993 15.0061 13.4993 15.0061Z" fill="#FFF8D5" stroke="#8E7928" stroke-width="0.833382"/>
<path id="Vector 681" d="M30.5847 15.0061V8.75573C30.5847 8.75573 36.0012 7.50601 43.085 5.00586C40.5848 11.2559 33.5016 11.2559 33.5016 11.2559C33.5016 11.2559 36.0012 12.5063 40.5848 12.0896C37.6676 15.8391 30.5847 15.0061 30.5847 15.0061Z" fill="#FFF8D5" stroke="#8E7928" stroke-width="0.833382"/>
<path id="Polygon 13" d="M21.6255 1.80823C22.0123 1.58493 22.4888 1.58493 22.8756 1.80823L29.0362 5.36506C29.423 5.58837 29.6613 6.00105 29.6613 6.44766V13.5613C29.6613 14.0079 29.423 14.4206 29.0362 14.6439L22.8756 18.2008C22.4888 18.4241 22.0123 18.4241 21.6255 18.2008L15.4649 14.6439C15.0782 14.4206 14.8399 14.0079 14.8399 13.5613V6.44766C14.8399 6.00105 15.0782 5.58837 15.4649 5.36506L21.6255 1.80823Z" fill="#759BFE" stroke="#284389" stroke-width="2.50015"/>
</g>
</g>
</svg>
