<svg width="133" height="45" viewBox="0 0 133 45" fill="none" xmlns="http://www.w3.org/2000/svg">
<mask id="path-1-inside-1_5095_47125" fill="white">
<path d="M0 22.5C0 10.3497 9.84974 0.5 22 0.5H111C123.15 0.5 133 10.3497 133 22.5C133 34.6503 123.15 44.5 111 44.5H22C9.84974 44.5 0 34.6503 0 22.5Z"/>
</mask>
<path d="M0 22.5C0 10.3497 9.84974 0.5 22 0.5H111C123.15 0.5 133 10.3497 133 22.5C133 34.6503 123.15 44.5 111 44.5H22C9.84974 44.5 0 34.6503 0 22.5Z" fill="#718ACA"/>
<path d="M23.328 28.5V17.3H25.472L32.08 25.364H31.04V17.3H33.6V28.5H31.472L24.848 20.436H25.888V28.5H23.328ZM39.7059 28.628C38.7245 28.628 37.8605 28.436 37.1139 28.052C36.3779 27.668 35.8072 27.1453 35.4019 26.484C34.9965 25.812 34.7939 25.0493 34.7939 24.196C34.7939 23.332 34.9912 22.5693 35.3859 21.908C35.7912 21.236 36.3405 20.7133 37.0339 20.34C37.7272 19.956 38.5112 19.764 39.3859 19.764C40.2285 19.764 40.9859 19.9453 41.6579 20.308C42.3405 20.66 42.8792 21.172 43.2739 21.844C43.6685 22.5053 43.8659 23.3 43.8659 24.228C43.8659 24.324 43.8605 24.436 43.8499 24.564C43.8392 24.6813 43.8285 24.7933 43.8179 24.9H36.8259V23.444H42.5059L41.5459 23.876C41.5459 23.428 41.4552 23.0387 41.2739 22.708C41.0925 22.3773 40.8419 22.1213 40.5219 21.94C40.2019 21.748 39.8285 21.652 39.4019 21.652C38.9752 21.652 38.5965 21.748 38.2659 21.94C37.9459 22.1213 37.6952 22.3827 37.5139 22.724C37.3325 23.0547 37.2419 23.4493 37.2419 23.908V24.292C37.2419 24.7613 37.3432 25.1773 37.5459 25.54C37.7592 25.892 38.0525 26.164 38.4259 26.356C38.8099 26.5373 39.2579 26.628 39.7699 26.628C40.2285 26.628 40.6285 26.5587 40.9699 26.42C41.3219 26.2813 41.6419 26.0733 41.9299 25.796L43.2579 27.236C42.8632 27.684 42.3672 28.0307 41.7699 28.276C41.1725 28.5107 40.4845 28.628 39.7059 28.628ZM46.6994 28.5L43.5954 19.892H45.9474L48.5234 27.3H47.4034L50.0914 19.892H52.2034L54.8114 27.3H53.6914L56.3474 19.892H58.5554L55.4354 28.5H53.0194L50.7314 22.148H51.4674L49.0994 28.5H46.6994ZM68.551 28.692C67.6657 28.692 66.8497 28.5533 66.103 28.276C65.367 27.988 64.7217 27.5827 64.167 27.06C63.623 26.5373 63.1963 25.924 62.887 25.22C62.5883 24.516 62.439 23.7427 62.439 22.9C62.439 22.0573 62.5883 21.284 62.887 20.58C63.1963 19.876 63.6283 19.2627 64.183 18.74C64.7377 18.2173 65.3883 17.8173 66.135 17.54C66.8817 17.252 67.703 17.108 68.599 17.108C69.591 17.108 70.4817 17.2733 71.271 17.604C72.071 17.9347 72.743 18.4147 73.287 19.044L71.623 20.58C71.2177 20.1533 70.775 19.8387 70.295 19.636C69.815 19.4227 69.2923 19.316 68.727 19.316C68.183 19.316 67.687 19.4013 67.239 19.572C66.791 19.7427 66.4017 19.988 66.071 20.308C65.751 20.628 65.5003 21.0067 65.319 21.444C65.1483 21.8813 65.063 22.3667 65.063 22.9C65.063 23.4227 65.1483 23.9027 65.319 24.34C65.5003 24.7773 65.751 25.1613 66.071 25.492C66.4017 25.812 66.7857 26.0573 67.223 26.228C67.671 26.3987 68.1617 26.484 68.695 26.484C69.207 26.484 69.703 26.404 70.183 26.244C70.6737 26.0733 71.1483 25.7907 71.607 25.396L73.079 27.268C72.471 27.7267 71.7617 28.0787 70.951 28.324C70.151 28.5693 69.351 28.692 68.551 28.692ZM70.711 26.932V22.724H73.079V27.268L70.711 26.932ZM74.6707 28.5V19.892H77.0547V22.324L76.7187 21.62C76.9747 21.012 77.3854 20.5533 77.9507 20.244C78.5161 19.924 79.2041 19.764 80.0147 19.764V22.068C79.9081 22.0573 79.8121 22.052 79.7267 22.052C79.6414 22.0413 79.5507 22.036 79.4547 22.036C78.7721 22.036 78.2174 22.2333 77.7907 22.628C77.3747 23.012 77.1667 23.6147 77.1667 24.436V28.5H74.6707ZM84.8924 28.628C83.975 28.628 83.159 28.436 82.4444 28.052C81.7404 27.668 81.1804 27.1453 80.7644 26.484C80.359 25.812 80.1564 25.0493 80.1564 24.196C80.1564 23.332 80.359 22.5693 80.7644 21.908C81.1804 21.236 81.7404 20.7133 82.4444 20.34C83.159 19.956 83.975 19.764 84.8924 19.764C85.799 19.764 86.6097 19.956 87.3244 20.34C88.039 20.7133 88.599 21.2307 89.0044 21.892C89.4097 22.5533 89.6124 23.3213 89.6124 24.196C89.6124 25.0493 89.4097 25.812 89.0044 26.484C88.599 27.1453 88.039 27.668 87.3244 28.052C86.6097 28.436 85.799 28.628 84.8924 28.628ZM84.8924 26.58C85.3084 26.58 85.6817 26.484 86.0124 26.292C86.343 26.1 86.6044 25.828 86.7964 25.476C86.9884 25.1133 87.0844 24.6867 87.0844 24.196C87.0844 23.6947 86.9884 23.268 86.7964 22.916C86.6044 22.564 86.343 22.292 86.0124 22.1C85.6817 21.908 85.3084 21.812 84.8924 21.812C84.4764 21.812 84.103 21.908 83.7724 22.1C83.4417 22.292 83.175 22.564 82.9724 22.916C82.7804 23.268 82.6844 23.6947 82.6844 24.196C82.6844 24.6867 82.7804 25.1133 82.9724 25.476C83.175 25.828 83.4417 26.1 83.7724 26.292C84.103 26.484 84.4764 26.58 84.8924 26.58ZM94.2727 28.628C93.5581 28.628 92.9181 28.4893 92.3527 28.212C91.7981 27.9347 91.3661 27.5133 91.0567 26.948C90.7474 26.372 90.5927 25.6413 90.5927 24.756V19.892H93.0887V24.388C93.0887 25.1027 93.2381 25.6307 93.5367 25.972C93.8461 26.3027 94.2781 26.468 94.8327 26.468C95.2167 26.468 95.5581 26.388 95.8567 26.228C96.1554 26.0573 96.3901 25.8013 96.5607 25.46C96.7314 25.108 96.8167 24.6707 96.8167 24.148V19.892H99.3127V28.5H96.9447V26.132L97.3767 26.82C97.0887 27.4173 96.6621 27.8707 96.0967 28.18C95.5421 28.4787 94.9341 28.628 94.2727 28.628ZM106.073 28.628C105.348 28.628 104.713 28.468 104.169 28.148C103.625 27.828 103.198 27.3427 102.889 26.692C102.59 26.0307 102.441 25.1987 102.441 24.196C102.441 23.1827 102.585 22.3507 102.873 21.7C103.161 21.0493 103.577 20.564 104.121 20.244C104.665 19.924 105.316 19.764 106.073 19.764C106.884 19.764 107.609 19.9507 108.249 20.324C108.9 20.6867 109.412 21.1987 109.785 21.86C110.169 22.5213 110.361 23.3 110.361 24.196C110.361 25.1027 110.169 25.8867 109.785 26.548C109.412 27.2093 108.9 27.7213 108.249 28.084C107.609 28.4467 106.884 28.628 106.073 28.628ZM100.985 31.604V19.892H103.369V21.652L103.321 24.212L103.481 26.756V31.604H100.985ZM105.641 26.58C106.057 26.58 106.425 26.484 106.745 26.292C107.076 26.1 107.337 25.828 107.529 25.476C107.732 25.1133 107.833 24.6867 107.833 24.196C107.833 23.6947 107.732 23.268 107.529 22.916C107.337 22.564 107.076 22.292 106.745 22.1C106.425 21.908 106.057 21.812 105.641 21.812C105.225 21.812 104.852 21.908 104.521 22.1C104.19 22.292 103.929 22.564 103.737 22.916C103.545 23.268 103.449 23.6947 103.449 24.196C103.449 24.6867 103.545 25.1133 103.737 25.476C103.929 25.828 104.19 26.1 104.521 26.292C104.852 26.484 105.225 26.58 105.641 26.58Z" fill="white"/>
<path d="M0 0.5H133H0ZM135 24C135 36.9787 124.479 47.5 111.5 47.5H25C11.1929 47.5 0 36.3071 0 22.5C0 32.9934 9.84974 41.5 22 41.5H111C122.046 41.5 131 32.9934 131 22.5L135 24ZM0 44.5V0.5V44.5ZM111.5 0.5C124.479 0.5 135 11.0213 135 24C135 36.9787 124.479 47.5 111.5 47.5L111 41.5C122.046 41.5 131 32.9934 131 22.5C131 10.3497 122.046 0.5 111 0.5H111.5Z" fill="#475780" mask="url(#path-1-inside-1_5095_47125)"/>
</svg>
