<svg width="152" height="44" viewBox="0 0 152 44" fill="none" xmlns="http://www.w3.org/2000/svg">
<mask id="path-1-inside-1_5730_11055" fill="white">
<path d="M0 22C0 9.84974 9.84974 0 22 0H130C142.15 0 152 9.84974 152 22C152 34.1503 142.15 44 130 44H22C9.84973 44 0 34.1503 0 22Z"/>
</mask>
<path d="M0 22C0 9.84974 9.84974 0 22 0H130C142.15 0 152 9.84974 152 22C152 34.1503 142.15 44 130 44H22C9.84973 44 0 34.1503 0 22Z" fill="#E4EBFF"/>
<path d="M23.328 28V16.8H28.416C29.632 16.8 30.704 17.0347 31.632 17.504C32.56 17.9627 33.2853 18.608 33.808 19.44C34.3307 20.272 34.592 21.2587 34.592 22.4C34.592 23.5307 34.3307 24.5173 33.808 25.36C33.2853 26.192 32.56 26.8427 31.632 27.312C30.704 27.7707 29.632 28 28.416 28H23.328ZM25.92 25.872H28.288C29.0347 25.872 29.68 25.7333 30.224 25.456C30.7787 25.168 31.2053 24.7627 31.504 24.24C31.8133 23.7173 31.968 23.104 31.968 22.4C31.968 21.6853 31.8133 21.072 31.504 20.56C31.2053 20.0373 30.7787 19.6373 30.224 19.36C29.68 19.072 29.0347 18.928 28.288 18.928H25.92V25.872ZM40.0027 28.128C39.0214 28.128 38.1574 27.936 37.4107 27.552C36.6747 27.168 36.1041 26.6453 35.6987 25.984C35.2934 25.312 35.0907 24.5493 35.0907 23.696C35.0907 22.832 35.2881 22.0693 35.6827 21.408C36.0881 20.736 36.6374 20.2133 37.3307 19.84C38.0241 19.456 38.8081 19.264 39.6827 19.264C40.5254 19.264 41.2828 19.4453 41.9548 19.808C42.6374 20.16 43.1761 20.672 43.5708 21.344C43.9654 22.0053 44.1628 22.8 44.1628 23.728C44.1628 23.824 44.1574 23.936 44.1468 24.064C44.1361 24.1813 44.1254 24.2933 44.1147 24.4H37.1227V22.944H42.8027L41.8428 23.376C41.8428 22.928 41.7521 22.5387 41.5707 22.208C41.3894 21.8773 41.1387 21.6213 40.8187 21.44C40.4987 21.248 40.1254 21.152 39.6988 21.152C39.2721 21.152 38.8934 21.248 38.5627 21.44C38.2427 21.6213 37.9921 21.8827 37.8107 22.224C37.6294 22.5547 37.5387 22.9493 37.5387 23.408V23.792C37.5387 24.2613 37.6401 24.6773 37.8427 25.04C38.0561 25.392 38.3494 25.664 38.7227 25.856C39.1067 26.0373 39.5547 26.128 40.0668 26.128C40.5254 26.128 40.9254 26.0587 41.2667 25.92C41.6188 25.7813 41.9388 25.5733 42.2267 25.296L43.5548 26.736C43.1601 27.184 42.6641 27.5307 42.0668 27.776C41.4694 28.0107 40.7814 28.128 40.0027 28.128ZM49.3445 28.128C48.4165 28.128 47.5898 27.9413 46.8645 27.568C46.1392 27.184 45.5685 26.656 45.1525 25.984C44.7472 25.312 44.5445 24.5493 44.5445 23.696C44.5445 22.832 44.7472 22.0693 45.1525 21.408C45.5685 20.736 46.1392 20.2133 46.8645 19.84C47.5898 19.456 48.4165 19.264 49.3445 19.264C50.2512 19.264 51.0405 19.456 51.7125 19.84C52.3845 20.2133 52.8805 20.752 53.2005 21.456L51.2645 22.496C51.0405 22.0907 50.7578 21.792 50.4165 21.6C50.0858 21.408 49.7232 21.312 49.3285 21.312C48.9018 21.312 48.5178 21.408 48.1765 21.6C47.8352 21.792 47.5632 22.064 47.3605 22.416C47.1685 22.768 47.0725 23.1947 47.0725 23.696C47.0725 24.1973 47.1685 24.624 47.3605 24.976C47.5632 25.328 47.8352 25.6 48.1765 25.792C48.5178 25.984 48.9018 26.08 49.3285 26.08C49.7232 26.08 50.0858 25.9893 50.4165 25.808C50.7578 25.616 51.0405 25.312 51.2645 24.896L53.2005 25.952C52.8805 26.6453 52.3845 27.184 51.7125 27.568C51.0405 27.9413 50.2512 28.128 49.3445 28.128ZM53.9507 28V16.128H56.4468V28H53.9507ZM58.1232 28V19.392H60.6192V28H58.1232ZM59.3712 18.192C58.9126 18.192 58.5392 18.0587 58.2512 17.792C57.9632 17.5253 57.8192 17.1947 57.8192 16.8C57.8192 16.4053 57.9632 16.0747 58.2512 15.808C58.5392 15.5413 58.9126 15.408 59.3712 15.408C59.8299 15.408 60.2032 15.536 60.4912 15.792C60.7792 16.0373 60.9232 16.3573 60.9232 16.752C60.9232 17.168 60.7792 17.5147 60.4912 17.792C60.2139 18.0587 59.8406 18.192 59.3712 18.192ZM67.5277 19.264C68.2104 19.264 68.8184 19.4027 69.3517 19.68C69.8957 19.9467 70.3224 20.3627 70.6318 20.928C70.9411 21.4827 71.0957 22.1973 71.0957 23.072V28H68.5997V23.456C68.5997 22.7627 68.4451 22.2507 68.1357 21.92C67.8371 21.5893 67.4104 21.424 66.8557 21.424C66.4611 21.424 66.1037 21.5093 65.7837 21.68C65.4744 21.84 65.2291 22.0907 65.0477 22.432C64.8771 22.7733 64.7917 23.2107 64.7917 23.744V28H62.2957V19.392H64.6797V21.776L64.2317 21.056C64.5411 20.48 64.9837 20.0373 65.5597 19.728C66.1357 19.4187 66.7917 19.264 67.5277 19.264ZM77.0528 28.128C76.0714 28.128 75.2074 27.936 74.4607 27.552C73.7247 27.168 73.1541 26.6453 72.7487 25.984C72.3434 25.312 72.1407 24.5493 72.1407 23.696C72.1407 22.832 72.3381 22.0693 72.7327 21.408C73.1381 20.736 73.6874 20.2133 74.3807 19.84C75.0741 19.456 75.8581 19.264 76.7327 19.264C77.5754 19.264 78.3328 19.4453 79.0048 19.808C79.6874 20.16 80.2261 20.672 80.6208 21.344C81.0154 22.0053 81.2128 22.8 81.2128 23.728C81.2128 23.824 81.2074 23.936 81.1968 24.064C81.1861 24.1813 81.1754 24.2933 81.1648 24.4H74.1727V22.944H79.8527L78.8928 23.376C78.8928 22.928 78.8021 22.5387 78.6207 22.208C78.4394 21.8773 78.1888 21.6213 77.8688 21.44C77.5488 21.248 77.1754 21.152 76.7488 21.152C76.3221 21.152 75.9434 21.248 75.6128 21.44C75.2928 21.6213 75.0421 21.8827 74.8607 22.224C74.6794 22.5547 74.5887 22.9493 74.5887 23.408V23.792C74.5887 24.2613 74.6901 24.6773 74.8928 25.04C75.1061 25.392 75.3994 25.664 75.7727 25.856C76.1568 26.0373 76.6048 26.128 77.1168 26.128C77.5754 26.128 77.9754 26.0587 78.3168 25.92C78.6688 25.7813 78.9888 25.5733 79.2768 25.296L80.6048 26.736C80.2101 27.184 79.7141 27.5307 79.1168 27.776C78.5194 28.0107 77.8314 28.128 77.0528 28.128ZM86.3018 28V16.8H88.8938V28H86.3018ZM95.9677 19.264C96.6504 19.264 97.2584 19.4027 97.7917 19.68C98.3357 19.9467 98.7624 20.3627 99.0717 20.928C99.3811 21.4827 99.5357 22.1973 99.5357 23.072V28H97.0397V23.456C97.0397 22.7627 96.8851 22.2507 96.5757 21.92C96.2771 21.5893 95.8504 21.424 95.2957 21.424C94.9011 21.424 94.5437 21.5093 94.2237 21.68C93.9144 21.84 93.6691 22.0907 93.4877 22.432C93.3171 22.7733 93.2317 23.2107 93.2317 23.744V28H90.7357V19.392H93.1197V21.776L92.6717 21.056C92.9811 20.48 93.4237 20.0373 93.9997 19.728C94.5757 19.4187 95.2317 19.264 95.9677 19.264ZM103.338 28L99.722 19.392H102.298L105.306 26.8H104.026L107.146 19.392H109.546L105.914 28H103.338ZM109.924 28V19.392H112.42V28H109.924ZM111.172 18.192C110.714 18.192 110.34 18.0587 110.052 17.792C109.764 17.5253 109.62 17.1947 109.62 16.8C109.62 16.4053 109.764 16.0747 110.052 15.808C110.34 15.5413 110.714 15.408 111.172 15.408C111.631 15.408 112.004 15.536 112.292 15.792C112.58 16.0373 112.724 16.3573 112.724 16.752C112.724 17.168 112.58 17.5147 112.292 17.792C112.015 18.0587 111.642 18.192 111.172 18.192ZM117.617 28.128C116.604 28.128 115.814 27.872 115.249 27.36C114.684 26.8373 114.401 26.064 114.401 25.04V17.488H116.897V25.008C116.897 25.3707 116.993 25.6533 117.185 25.856C117.377 26.048 117.638 26.144 117.969 26.144C118.364 26.144 118.7 26.0373 118.977 25.824L119.649 27.584C119.393 27.7653 119.084 27.904 118.721 28C118.369 28.0853 118.001 28.128 117.617 28.128ZM113.073 21.504V19.584H119.041V21.504H113.073ZM124.417 28.128C123.435 28.128 122.571 27.936 121.825 27.552C121.089 27.168 120.518 26.6453 120.113 25.984C119.707 25.312 119.505 24.5493 119.505 23.696C119.505 22.832 119.702 22.0693 120.097 21.408C120.502 20.736 121.051 20.2133 121.745 19.84C122.438 19.456 123.222 19.264 124.097 19.264C124.939 19.264 125.697 19.4453 126.369 19.808C127.051 20.16 127.59 20.672 127.985 21.344C128.379 22.0053 128.577 22.8 128.577 23.728C128.577 23.824 128.571 23.936 128.561 24.064C128.55 24.1813 128.539 24.2933 128.529 24.4H121.537V22.944H127.217L126.257 23.376C126.257 22.928 126.166 22.5387 125.985 22.208C125.803 21.8773 125.553 21.6213 125.233 21.44C124.913 21.248 124.539 21.152 124.113 21.152C123.686 21.152 123.307 21.248 122.977 21.44C122.657 21.6213 122.406 21.8827 122.225 22.224C122.043 22.5547 121.953 22.9493 121.953 23.408V23.792C121.953 24.2613 122.054 24.6773 122.257 25.04C122.47 25.392 122.763 25.664 123.137 25.856C123.521 26.0373 123.969 26.128 124.481 26.128C124.939 26.128 125.339 26.0587 125.681 25.92C126.033 25.7813 126.353 25.5733 126.641 25.296L127.969 26.736C127.574 27.184 127.078 27.5307 126.481 27.776C125.883 28.0107 125.195 28.128 124.417 28.128Z" fill="#718ACA"/>
<path d="M0 0H152H0ZM154 23.5C154 36.4787 143.479 47 130.5 47H25C11.1929 47 0 35.8071 0 22C0 32.4934 9.84974 41 22 41H130C141.046 41 150 32.4934 150 22L154 23.5ZM0 44V0V44ZM130.5 0C143.479 0 154 10.5213 154 23.5C154 36.4787 143.479 47 130.5 47L130 41C141.046 41 150 32.4934 150 22C150 9.84974 141.046 0 130 0H130.5Z" fill="#718ACA" mask="url(#path-1-inside-1_5730_11055)"/>
</svg>
