<svg width="84" height="84" viewBox="0 0 84 84" fill="none" xmlns="http://www.w3.org/2000/svg">
<rect width="84" height="84" rx="12" fill="#91E2BB"/>
<g filter="url(#filter0_ii_5095_49174)">
<path d="M16.3555 35.3329C16.3555 33.2711 18.0269 31.5996 20.0888 31.5996H49.9555C52.0173 31.5996 53.6888 33.2711 53.6888 35.3329V60.2218C53.6888 62.2837 52.0173 63.9552 49.9555 63.9552H20.0888C18.0269 63.9552 16.3555 62.2837 16.3555 60.2218V35.3329Z" fill="#8A7DD8"/>
</g>
<path d="M16.3555 35.3329C16.3555 33.2711 18.0269 31.5996 20.0888 31.5996H49.9555C52.0173 31.5996 53.6888 33.2711 53.6888 35.3329V60.2218C53.6888 62.2837 52.0173 63.9552 49.9555 63.9552H20.0888C18.0269 63.9552 16.3555 62.2837 16.3555 60.2218V35.3329Z" stroke="#1F2024" stroke-width="1.24444"/>
<g filter="url(#filter1_i_5095_49174)">
<path d="M31.9111 35.3329C31.9111 33.2711 33.5826 31.5996 35.6445 31.5996H63.0222C65.0841 31.5996 66.7556 33.2711 66.7556 35.3329V60.2218C66.7556 62.2837 65.0841 63.9552 63.0222 63.9552H35.6445C33.5826 63.9552 31.9111 62.2837 31.9111 60.2218V35.3329Z" fill="#AEA5EE"/>
</g>
<path d="M31.9111 35.3329C31.9111 33.2711 33.5826 31.5996 35.6445 31.5996H63.0222C65.0841 31.5996 66.7556 33.2711 66.7556 35.3329V60.2218C66.7556 62.2837 65.0841 63.9552 63.0222 63.9552H35.6445C33.5826 63.9552 31.9111 62.2837 31.9111 60.2218V35.3329Z" stroke="#1F2024" stroke-width="1.24444"/>
<path d="M51.8224 32.2227H57.7335L49.0224 63.3338H43.1113L51.8224 32.2227Z" fill="white" fill-opacity="0.5"/>
<path d="M49.4894 32.2227H50.4228L41.7117 63.3338H40.7783L49.4894 32.2227Z" fill="white" fill-opacity="0.5"/>
<circle cx="22.8891" cy="49.9535" r="5.6" fill="#1F2024" fill-opacity="0.16"/>
<g filter="url(#filter2_i_5095_49174)">
<circle cx="22.7338" cy="48.2426" r="5.6" fill="#AEA5EE"/>
</g>
<circle cx="22.7338" cy="48.2426" r="5.6" stroke="#1F2024" stroke-width="1.24444"/>
<path d="M24.2891 44.5098C24.8553 44.8112 25.3394 45.2991 25.6891 45.9098" stroke="white" stroke-width="1.24444" stroke-linecap="round" stroke-linejoin="round"/>
<g filter="url(#filter3_i_5095_49174)">
<circle cx="19.622" cy="48.2431" r="3.73333" fill="#CAE9FA"/>
</g>
<circle cx="19.622" cy="48.2431" r="3.73333" stroke="#1F2024" stroke-width="1.24444"/>
<path d="M53.0676 52.4434C53.7548 52.4434 54.328 53.0092 54.1584 53.6752C53.6102 55.8285 51.6582 57.4211 49.3342 57.4211C47.0102 57.4211 45.0582 55.8285 44.51 53.6752C44.3405 53.0092 44.9136 52.4434 45.6009 52.4434H53.0676Z" fill="#1F2024"/>
<rect x="41.3994" y="23.9746" width="0.311111" height="5.75556" fill="#AEA5EE" stroke="#1F2024" stroke-width="1.24444"/>
<circle cx="41.5551" cy="23.8198" r="1.86667" fill="white"/>
<path d="M34.7109 25.3757C34.7109 21.5956 37.7753 18.5312 41.5554 18.5312C45.3355 18.5312 48.3998 21.5956 48.3998 25.3757V29.7313H34.7109V25.3757Z" fill="white" fill-opacity="0.5" stroke="#1F2024" stroke-width="1.24444"/>
<g filter="url(#filter4_i_5095_49174)">
<path d="M32.8447 30.9749C32.8447 30.2876 33.4019 29.7305 34.0892 29.7305H49.0225C49.7098 29.7305 50.2669 30.2876 50.2669 30.9749V31.5971H32.8447V30.9749Z" fill="#AEA5EE"/>
</g>
<path d="M32.8447 30.9749C32.8447 30.2876 33.4019 29.7305 34.0892 29.7305H49.0225C49.7098 29.7305 50.2669 30.2876 50.2669 30.9749V31.5971H32.8447V30.9749Z" stroke="#1F2024" stroke-width="1.24444"/>
<g filter="url(#filter5_d_5095_49174)">
<path d="M41.6645 36.4954L41.6645 36.4954C40.3401 36.9861 39.386 38.1164 39.0118 39.463L38.7709 40.33L38.0448 39.7985C36.9668 39.0095 35.5672 38.758 34.248 39.2474L41.6645 36.4954ZM41.6645 36.4954C43.8341 35.6915 46.2469 36.8763 47.0339 39.2166C47.1428 39.5451 47.2117 39.8819 47.2468 40.2199L47.249 40.2408L47.2525 40.2615C47.6021 42.2872 47.1055 44.7531 46.1538 47.0367C45.2466 49.2134 43.9645 51.1321 42.7434 52.2591C41.1296 52.1871 38.9973 51.543 37.0001 50.4512C34.9033 49.3051 33.0526 47.7186 32.1192 45.9166L32.1096 45.8981M41.6645 36.4954L32.1096 45.8981M32.1096 45.8981L32.0988 45.8803M32.1096 45.8981L32.0988 45.8803M32.0988 45.8803C31.9249 45.5933 31.7773 45.2868 31.667 44.9597M32.0988 45.8803L31.667 44.9597M56.3834 36.4954L56.3832 36.4954C54.2147 35.6915 51.801 36.8763 51.0139 39.2166C50.905 39.5451 50.8363 39.8814 50.8022 40.2182L50.8001 40.24L50.7963 40.2615C50.4468 42.2873 50.9432 44.7532 51.8946 47.0368C52.8016 49.2135 54.0834 51.1321 55.3044 52.2591C56.9188 52.1872 59.0514 51.543 61.0487 50.4512C63.1456 49.3051 64.9963 47.7186 65.9297 45.9166L65.9396 45.8974L65.9509 45.879C66.1245 45.594 66.2713 45.2877 66.3832 44.959C67.171 42.6065 65.9852 40.0585 63.8011 39.2474L56.3834 36.4954ZM56.3834 36.4954C57.7077 36.9861 58.662 38.1164 59.0372 39.4634L59.2785 40.3297M56.3834 36.4954L59.2785 40.3297M59.2785 40.3297L60.0041 39.7985M59.2785 40.3297L60.0041 39.7985M60.0041 39.7985C61.0821 39.0095 62.4817 38.758 63.8009 39.2474L60.0041 39.7985ZM31.667 44.9597C30.8767 42.6073 32.0632 40.0587 34.2478 39.2474L31.667 44.9597Z" fill="#1F2024" stroke="#1F2024" stroke-width="1.24444"/>
<g filter="url(#filter6_dii_5095_49174)">
<path d="M48.8194 38.5527C47.9287 35.902 45.1654 34.5107 42.6436 35.4452C41.1132 36.0122 40.0296 37.3108 39.6076 38.8297C38.3727 37.9257 36.7551 37.6303 35.2267 38.1972C32.707 39.1328 31.3819 42.0408 32.2726 44.6914C32.3991 45.0665 32.567 45.4143 32.762 45.736C34.785 49.6416 40.63 52.3872 44.1689 52.421C46.9032 50.0582 49.8159 44.0634 49.061 39.6889C49.0216 39.3094 48.9438 38.9278 48.8194 38.5527ZM51.6191 38.5527C52.5098 35.902 55.2741 34.5107 57.7948 35.4452C59.3253 36.0122 60.4089 37.3108 60.8319 38.8297C62.0669 37.9257 63.6844 37.6303 65.2128 38.1972C67.7325 39.1328 69.0566 42.0408 68.168 44.6914C68.0404 45.0665 67.8735 45.4143 67.6775 45.736C65.6545 49.6416 59.8095 52.3872 56.2696 52.421C53.5352 50.0582 50.6236 44.0634 51.3785 39.6889C51.4169 39.3094 51.4946 38.9278 51.6191 38.5527Z" fill="#FE204F"/>
<path d="M42.8598 36.0286L42.8598 36.0287C41.5355 36.5193 40.5813 37.6496 40.2071 38.9962L39.9662 39.8632L39.2401 39.3317C38.1621 38.5428 36.7625 38.2912 35.4433 38.7806L42.8598 36.0286ZM42.8598 36.0286C45.0295 35.2247 47.4422 36.4095 48.2292 38.7498C48.3381 39.0783 48.407 39.4151 48.4421 39.7531L48.4443 39.774L48.4479 39.7947C48.7974 41.8204 48.3008 44.2863 47.3491 46.5699C46.4419 48.7466 45.1598 50.6653 43.9387 51.7923C42.3249 51.7203 40.1926 51.0762 38.1954 49.9844C36.0986 48.8383 34.2479 47.2519 33.3145 45.4498L33.3049 45.4313M42.8598 36.0286L33.3049 45.4313M33.3049 45.4313L33.2941 45.4135M33.3049 45.4313L33.2941 45.4135M33.2941 45.4135C33.1202 45.1265 32.9726 44.82 32.8623 44.4929M33.2941 45.4135L32.8623 44.4929M57.5787 36.0287L57.5786 36.0286C55.41 35.2247 52.9963 36.4095 52.2092 38.7498C52.1004 39.0783 52.0316 39.4146 51.9976 39.7514L51.9954 39.7732L51.9917 39.7947C51.6421 41.8205 52.1385 44.2864 53.0899 46.57C53.9969 48.7467 55.2787 50.6653 56.4997 51.7923C58.1141 51.7204 60.2467 51.0762 62.244 49.9844C64.3409 48.8383 66.1916 47.2518 67.125 45.4498L67.1349 45.4307L67.1462 45.4122C67.3198 45.1272 67.4666 44.8209 67.5785 44.4922C68.3663 42.1397 67.1805 39.5917 64.9964 38.7806L57.5787 36.0287ZM57.5787 36.0287C58.903 36.5193 59.8573 37.6496 60.2325 38.9966L60.4738 39.8629M57.5787 36.0287L60.4738 39.8629M60.4738 39.8629L61.1994 39.3317M60.4738 39.8629L61.1994 39.3317M61.1994 39.3317C62.2774 38.5428 63.677 38.2912 64.9962 38.7806L61.1994 39.3317ZM32.8623 44.4929C32.072 42.1406 33.2585 39.5919 35.4431 38.7806L32.8623 44.4929Z" stroke="#1F2024" stroke-width="1.24444"/>
</g>
</g>
<defs>
<filter id="filter0_ii_5095_49174" x="15.7334" y="30.9766" width="38.5771" height="33.6016" filterUnits="userSpaceOnUse" color-interpolation-filters="sRGB">
<feFlood flood-opacity="0" result="BackgroundImageFix"/>
<feBlend mode="normal" in="SourceGraphic" in2="BackgroundImageFix" result="shape"/>
<feColorMatrix in="SourceAlpha" type="matrix" values="0 0 0 0 0 0 0 0 0 0 0 0 0 0 0 0 0 0 127 0" result="hardAlpha"/>
<feOffset dy="-16"/>
<feComposite in2="hardAlpha" operator="arithmetic" k2="-1" k3="1"/>
<feColorMatrix type="matrix" values="0 0 0 0 0 0 0 0 0 0 0 0 0 0 0 0 0 0 0.25 0"/>
<feBlend mode="normal" in2="shape" result="effect1_innerShadow_5095_49174"/>
<feColorMatrix in="SourceAlpha" type="matrix" values="0 0 0 0 0 0 0 0 0 0 0 0 0 0 0 0 0 0 127 0" result="hardAlpha"/>
<feOffset dy="16"/>
<feComposite in2="hardAlpha" operator="arithmetic" k2="-1" k3="1"/>
<feColorMatrix type="matrix" values="0 0 0 0 1 0 0 0 0 1 0 0 0 0 1 0 0 0 0.25 0"/>
<feBlend mode="normal" in2="effect1_innerShadow_5095_49174" result="effect2_innerShadow_5095_49174"/>
</filter>
<filter id="filter1_i_5095_49174" x="31.2891" y="30.9766" width="36.0889" height="33.6016" filterUnits="userSpaceOnUse" color-interpolation-filters="sRGB">
<feFlood flood-opacity="0" result="BackgroundImageFix"/>
<feBlend mode="normal" in="SourceGraphic" in2="BackgroundImageFix" result="shape"/>
<feColorMatrix in="SourceAlpha" type="matrix" values="0 0 0 0 0 0 0 0 0 0 0 0 0 0 0 0 0 0 127 0" result="hardAlpha"/>
<feOffset dx="-24" dy="8"/>
<feComposite in2="hardAlpha" operator="arithmetic" k2="-1" k3="1"/>
<feColorMatrix type="matrix" values="0 0 0 0 1 0 0 0 0 1 0 0 0 0 1 0 0 0 0.25 0"/>
<feBlend mode="normal" in2="shape" result="effect1_innerShadow_5095_49174"/>
</filter>
<filter id="filter2_i_5095_49174" x="16.5117" y="42.0195" width="12.4443" height="12.4453" filterUnits="userSpaceOnUse" color-interpolation-filters="sRGB">
<feFlood flood-opacity="0" result="BackgroundImageFix"/>
<feBlend mode="normal" in="SourceGraphic" in2="BackgroundImageFix" result="shape"/>
<feColorMatrix in="SourceAlpha" type="matrix" values="0 0 0 0 0 0 0 0 0 0 0 0 0 0 0 0 0 0 127 0" result="hardAlpha"/>
<feOffset dx="12" dy="-8"/>
<feComposite in2="hardAlpha" operator="arithmetic" k2="-1" k3="1"/>
<feColorMatrix type="matrix" values="0 0 0 0 0 0 0 0 0 0 0 0 0 0 0 0 0 0 0.25 0"/>
<feBlend mode="normal" in2="shape" result="effect1_innerShadow_5095_49174"/>
</filter>
<filter id="filter3_i_5095_49174" x="15.2666" y="43.8867" width="8.71094" height="8.71289" filterUnits="userSpaceOnUse" color-interpolation-filters="sRGB">
<feFlood flood-opacity="0" result="BackgroundImageFix"/>
<feBlend mode="normal" in="SourceGraphic" in2="BackgroundImageFix" result="shape"/>
<feColorMatrix in="SourceAlpha" type="matrix" values="0 0 0 0 0 0 0 0 0 0 0 0 0 0 0 0 0 0 127 0" result="hardAlpha"/>
<feOffset dx="12" dy="-8"/>
<feComposite in2="hardAlpha" operator="arithmetic" k2="-1" k3="1"/>
<feColorMatrix type="matrix" values="0 0 0 0 0 0 0 0 0 0 0 0 0 0 0 0 0 0 0.25 0"/>
<feBlend mode="normal" in2="shape" result="effect1_innerShadow_5095_49174"/>
</filter>
<filter id="filter4_i_5095_49174" x="32.2227" y="29.1074" width="18.667" height="3.11133" filterUnits="userSpaceOnUse" color-interpolation-filters="sRGB">
<feFlood flood-opacity="0" result="BackgroundImageFix"/>
<feBlend mode="normal" in="SourceGraphic" in2="BackgroundImageFix" result="shape"/>
<feColorMatrix in="SourceAlpha" type="matrix" values="0 0 0 0 0 0 0 0 0 0 0 0 0 0 0 0 0 0 127 0" result="hardAlpha"/>
<feOffset dx="-24" dy="8"/>
<feComposite in2="hardAlpha" operator="arithmetic" k2="-1" k3="1"/>
<feColorMatrix type="matrix" values="0 0 0 0 1 0 0 0 0 1 0 0 0 0 1 0 0 0 0.25 0"/>
<feBlend mode="normal" in2="shape" result="effect1_innerShadow_5095_49174"/>
</filter>
<filter id="filter5_d_5095_49174" x="26.7998" y="35.1543" width="41.6445" height="21.7344" filterUnits="userSpaceOnUse" color-interpolation-filters="sRGB">
<feFlood flood-opacity="0" result="BackgroundImageFix"/>
<feColorMatrix in="SourceAlpha" type="matrix" values="0 0 0 0 0 0 0 0 0 0 0 0 0 0 0 0 0 0 127 0" result="hardAlpha"/>
<feOffset dx="-4" dy="4"/>
<feColorMatrix type="matrix" values="0 0 0 0 0 0 0 0 0 0 0 0 0 0 0 0 0 0 0.25 0"/>
<feBlend mode="normal" in2="BackgroundImageFix" result="effect1_dropShadow_5095_49174"/>
<feBlend mode="normal" in="SourceGraphic" in2="effect1_dropShadow_5095_49174" result="shape"/>
</filter>
<filter id="filter6_dii_5095_49174" x="27.9951" y="35.1543" width="40.4492" height="21.2676" filterUnits="userSpaceOnUse" color-interpolation-filters="sRGB">
<feFlood flood-opacity="0" result="BackgroundImageFix"/>
<feColorMatrix in="SourceAlpha" type="matrix" values="0 0 0 0 0 0 0 0 0 0 0 0 0 0 0 0 0 0 127 0" result="hardAlpha"/>
<feOffset dx="-4" dy="4"/>
<feComposite in2="hardAlpha" operator="out"/>
<feColorMatrix type="matrix" values="0 0 0 0 0.121569 0 0 0 0 0.12549 0 0 0 0 0.141176 0 0 0 0.25 0"/>
<feBlend mode="normal" in2="BackgroundImageFix" result="effect1_dropShadow_5095_49174"/>
<feBlend mode="normal" in="SourceGraphic" in2="effect1_dropShadow_5095_49174" result="shape"/>
<feColorMatrix in="SourceAlpha" type="matrix" values="0 0 0 0 0 0 0 0 0 0 0 0 0 0 0 0 0 0 127 0" result="hardAlpha"/>
<feOffset dx="12" dy="-12"/>
<feComposite in2="hardAlpha" operator="arithmetic" k2="-1" k3="1"/>
<feColorMatrix type="matrix" values="0 0 0 0 0 0 0 0 0 0 0 0 0 0 0 0 0 0 0.25 0"/>
<feBlend mode="normal" in2="shape" result="effect2_innerShadow_5095_49174"/>
<feColorMatrix in="SourceAlpha" type="matrix" values="0 0 0 0 0 0 0 0 0 0 0 0 0 0 0 0 0 0 127 0" result="hardAlpha"/>
<feOffset dx="-12" dy="12"/>
<feComposite in2="hardAlpha" operator="arithmetic" k2="-1" k3="1"/>
<feColorMatrix type="matrix" values="0 0 0 0 1 0 0 0 0 1 0 0 0 0 1 0 0 0 0.5 0"/>
<feBlend mode="normal" in2="effect2_innerShadow_5095_49174" result="effect3_innerShadow_5095_49174"/>
</filter>
</defs>
</svg>
