<svg width="85" height="84" viewBox="0 0 85 84" fill="none" xmlns="http://www.w3.org/2000/svg">
<rect x="0.5" width="84" height="84" rx="12" fill="#FE204F"/>
<g filter="url(#filter0_i_5095_50210)">
<path d="M29.6613 31.3194C24.3809 32.3225 24.2657 25.8328 24.8907 21.509C24.9149 21.3415 24.6845 21.266 24.5943 21.4093C9.48243 45.4181 21.441 64.8666 43.1639 64.8666C57.9847 64.8666 67.4973 55.6072 67.5441 42.3111C67.5441 33.6256 65.6037 25.9104 60.9396 21.4235C60.8369 21.3247 60.6683 21.4085 60.6785 21.5507C61.0162 26.2742 58.9938 30.1856 54.5704 28.9684C48.5207 27.3036 54.7863 18.99 45.2099 16.2621C45.0867 16.227 44.9701 16.348 45.0156 16.4677C46.6468 20.7561 45.632 24.1108 40.5371 24.7185C35.4607 25.3239 34.1627 21.5788 35.4242 17.0752C35.4613 16.9427 35.3179 16.8314 35.1989 16.9006C28.8084 20.6148 35.3621 30.2365 29.6613 31.3194Z" fill="#E79834"/>
</g>
<path d="M29.6613 31.3194C24.3809 32.3225 24.2657 25.8328 24.8907 21.509C24.9149 21.3415 24.6845 21.266 24.5943 21.4093C9.48243 45.4181 21.441 64.8666 43.1639 64.8666C57.9847 64.8666 67.4973 55.6072 67.5441 42.3111C67.5441 33.6256 65.6037 25.9104 60.9396 21.4235C60.8369 21.3247 60.6683 21.4085 60.6785 21.5507C61.0162 26.2742 58.9938 30.1856 54.5704 28.9684C48.5207 27.3036 54.7863 18.99 45.2099 16.2621C45.0867 16.227 44.9701 16.348 45.0156 16.4677C46.6468 20.7561 45.632 24.1108 40.5371 24.7185C35.4607 25.3239 34.1627 21.5788 35.4242 17.0752C35.4613 16.9427 35.3179 16.8314 35.1989 16.9006C28.8084 20.6148 35.3621 30.2365 29.6613 31.3194Z" stroke="#1F2024" stroke-width="1.24444" stroke-linejoin="round"/>
<path d="M39.4111 27.7525C42.3044 37.7762 28.3595 40.8338 23.8075 32.6059C23.6594 32.3383 23.235 32.3934 23.1847 32.6951C20.1866 50.6884 33.2565 65.3337 47.2437 64.5576C61.9914 63.7392 71.2202 41.7787 60.9086 31.9163C60.7845 31.7977 60.5764 31.8147 60.4588 31.9398C50.9202 42.0932 49.5329 26.2315 39.6715 27.3455C39.481 27.367 39.3579 27.5683 39.4111 27.7525Z" fill="#F2C95C"/>
<path d="M39.4111 27.7525C42.3044 37.7762 28.3595 40.8338 23.8075 32.6059C23.6594 32.3383 23.235 32.3934 23.1847 32.6951C20.1866 50.6884 33.2565 65.3337 47.2437 64.5576C61.9914 63.7392 71.2202 41.7787 60.9086 31.9163C60.7845 31.7977 60.5764 31.8147 60.4588 31.9398C50.9202 42.0932 49.5329 26.2315 39.6715 27.3455C39.481 27.367 39.3579 27.5683 39.4111 27.7525Z" fill="#F2C95C"/>
<path d="M48.0587 35.9341C47.0872 43.4516 57.4202 44.2538 60.0751 37.9809C60.1941 37.6999 60.6251 37.693 60.715 37.9846C64.677 50.8367 56.5666 62.8853 46.1659 63.8036C35.1587 64.7754 25.9941 49.6525 32.5093 41.2685C32.6141 41.1336 32.82 41.1202 32.9544 41.2257C41.0142 47.5541 40.4206 35.8994 47.742 35.5715C47.9339 35.5629 48.0833 35.7436 48.0587 35.9341Z" fill="#F9E174"/>
<g filter="url(#filter1_ii_5095_50210)">
<path fill-rule="evenodd" clip-rule="evenodd" d="M30.9888 33.9102C25.4905 33.9102 21.0332 38.3674 21.0332 43.8657V51.0213C21.0332 56.5196 25.4905 60.9768 30.9888 60.9768H31.2252C31.2558 61.0434 31.2753 61.1151 31.2811 61.1901L31.6155 65.5241C31.7155 66.8206 32.7967 67.8215 34.097 67.8215H37.2663C38.5666 67.8215 39.6478 66.8206 39.7478 65.5241L40.0304 61.8624C40.0554 61.5383 40.3257 61.288 40.6507 61.288H41.7311C42.0562 61.288 42.3265 61.5383 42.3515 61.8624L42.634 65.5241C42.7341 66.8206 43.8153 67.8215 45.1156 67.8215H48.2849C49.5852 67.8215 50.6663 66.8206 50.7664 65.5241L51.0489 61.8624C51.0739 61.5383 51.3442 61.288 51.6693 61.288H52.9849C53.2937 61.288 53.5559 61.5146 53.6006 61.8202L54.1667 65.6927C54.3454 66.9152 55.3939 67.8215 56.6294 67.8215H58.8079C60.0434 67.8215 61.0919 66.9152 61.2706 65.6927L61.917 61.2718C61.9473 61.0646 62.0818 60.8897 62.2628 60.7844C63.3748 60.1379 64.1223 58.9336 64.1223 57.5547V43.8658C64.1223 38.3675 59.6651 33.9102 54.1668 33.9102H50.4723C50.4592 33.9102 50.4462 33.9102 50.4332 33.9102H30.9888Z" fill="url(#paint0_linear_5095_50210)"/>
</g>
<path d="M31.2252 60.9768L31.7905 60.7168L31.6239 60.3546H31.2252V60.9768ZM31.2811 61.1901L30.6607 61.238V61.238L31.2811 61.1901ZM31.6155 65.5241L32.2359 65.4762L31.6155 65.5241ZM39.7478 65.5241L40.3682 65.572L39.7478 65.5241ZM40.0304 61.8624L39.41 61.8145L40.0304 61.8624ZM42.3515 61.8624L42.9719 61.8145L42.3515 61.8624ZM42.634 65.5241L42.0137 65.572L42.634 65.5241ZM50.7664 65.5241L50.146 65.4762L50.7664 65.5241ZM51.0489 61.8624L50.4285 61.8145L51.0489 61.8624ZM53.6006 61.8202L54.2162 61.7302V61.7302L53.6006 61.8202ZM54.1667 65.6927L53.551 65.7827L54.1667 65.6927ZM61.2706 65.6927L61.8863 65.7827L61.2706 65.6927ZM61.917 61.2718L62.5327 61.3618V61.3618L61.917 61.2718ZM62.2628 60.7844L62.5756 61.3223L62.5756 61.3223L62.2628 60.7844ZM50.4723 33.9102L50.4695 34.5325H50.4723V33.9102ZM21.6554 43.8657C21.6554 38.7111 25.8341 34.5324 30.9888 34.5324V33.2879C25.1468 33.2879 20.411 38.0238 20.411 43.8657H21.6554ZM21.6554 51.0213V43.8657H20.411V51.0213H21.6554ZM30.9888 60.3546C25.8341 60.3546 21.6554 56.1759 21.6554 51.0213H20.411C20.411 56.8632 25.1468 61.599 30.9888 61.599V60.3546ZM31.2252 60.3546H30.9888V61.599H31.2252V60.3546ZM30.6599 61.2368C30.6613 61.2399 30.6609 61.24 30.6607 61.238L31.9015 61.1422C31.8897 60.9902 31.8503 60.8469 31.7905 60.7168L30.6599 61.2368ZM30.6607 61.238L30.9951 65.572L32.2359 65.4762L31.9015 61.1422L30.6607 61.238ZM30.9951 65.572C31.1202 67.1926 32.4716 68.4438 34.097 68.4438V67.1993C33.1218 67.1993 32.3109 66.4486 32.2359 65.4762L30.9951 65.572ZM34.097 68.4438H37.2663V67.1993H34.097V68.4438ZM37.2663 68.4438C38.8917 68.4438 40.2432 67.1926 40.3682 65.572L39.1274 65.4762C39.0524 66.4486 38.2415 67.1993 37.2663 67.1993V68.4438ZM40.3682 65.572L40.6507 61.9102L39.41 61.8145L39.1274 65.4762L40.3682 65.572ZM40.6507 61.9102V60.6658C40.0006 60.6658 39.46 61.1663 39.41 61.8145L40.6507 61.9102ZM40.6507 61.9102H41.7311V60.6658H40.6507V61.9102ZM41.7311 61.9102L42.9719 61.8145C42.9219 61.1663 42.3813 60.6658 41.7311 60.6658V61.9102ZM41.7311 61.9102L42.0137 65.572L43.2544 65.4762L42.9719 61.8145L41.7311 61.9102ZM42.0137 65.572C42.1387 67.1926 43.4902 68.4438 45.1156 68.4438V67.1993C44.1403 67.1993 43.3295 66.4486 43.2544 65.4762L42.0137 65.572ZM45.1156 68.4438H48.2849V67.1993H45.1156V68.4438ZM48.2849 68.4438C49.9102 68.4438 51.2617 67.1926 51.3867 65.572L50.146 65.4762C50.071 66.4486 49.2601 67.1993 48.2849 67.1993V68.4438ZM51.3867 65.572L51.6693 61.9102L50.4285 61.8145L50.146 65.4762L51.3867 65.572ZM51.6693 61.9102L51.6693 61.9102V60.6658C51.0191 60.6658 50.4785 61.1663 50.4285 61.8145L51.6693 61.9102ZM51.6693 61.9102H52.9849V60.6658H51.6693V61.9102ZM52.9849 61.9102L52.9849 61.9102L54.2162 61.7302C54.1269 61.119 53.6026 60.6658 52.9849 60.6658V61.9102ZM52.9849 61.9102L53.551 65.7827L54.7824 65.6027L54.2162 61.7302L52.9849 61.9102ZM53.551 65.7827C53.7744 67.3108 55.085 68.4438 56.6294 68.4438V67.1993C55.7028 67.1993 54.9164 66.5196 54.7824 65.6027L53.551 65.7827ZM56.6294 68.4438H58.8079V67.1993H56.6294V68.4438ZM58.8079 68.4438C60.3523 68.4438 61.6629 67.3108 61.8863 65.7827L60.655 65.6027C60.5209 66.5196 59.7346 67.1993 58.8079 67.1993V68.4438ZM61.8863 65.7827L62.5327 61.3618L61.3013 61.1818L60.655 65.6027L61.8863 65.7827ZM62.5327 61.3618C62.5322 61.3653 62.5314 61.3631 62.5371 61.3552C62.5433 61.3465 62.5557 61.3338 62.5756 61.3223L61.9501 60.2465C61.6321 60.4314 61.3633 60.758 61.3013 61.1818L62.5327 61.3618ZM62.5756 61.3223C63.8712 60.569 64.7445 59.1642 64.7445 57.5547H63.5001C63.5001 58.703 62.8783 59.7068 61.9501 60.2465L62.5756 61.3223ZM64.7445 57.5547V43.8658H63.5001V57.5547H64.7445ZM64.7445 43.8658C64.7445 38.0239 60.0087 33.288 54.1668 33.288V34.5325C59.3214 34.5325 63.5001 38.7111 63.5001 43.8658H64.7445ZM54.1668 33.288H50.4723V34.5325H54.1668V33.288ZM50.4332 34.5324C50.4453 34.5324 50.4574 34.5324 50.4695 34.5325L50.475 33.288C50.4611 33.288 50.4471 33.2879 50.4332 33.2879V34.5324ZM30.9888 34.5324H50.4332V33.2879H30.9888V34.5324Z" fill="#1F2024"/>
<g filter="url(#filter2_i_5095_50210)">
<path fill-rule="evenodd" clip-rule="evenodd" d="M41.5666 33.7539C36.7556 33.7539 32.8555 37.654 32.8555 42.465V57.5539C32.8555 58.8589 33.5251 60.0076 34.5395 60.675C34.717 60.7918 34.8426 60.9776 34.859 61.1895L35.1934 65.5231C35.2934 66.8195 36.3746 67.8205 37.6749 67.8205H40.8442C42.1445 67.8205 43.2257 66.8195 43.3257 65.5231L43.6082 61.8616C43.6332 61.5375 43.9035 61.2872 44.2286 61.2872H45.309C45.6341 61.2872 45.9044 61.5375 45.9294 61.8616L46.2119 65.5231C46.3119 66.8195 47.3931 67.8205 48.6934 67.8205H51.8627C53.163 67.8205 54.2442 66.8195 54.3442 65.5231L54.6267 61.8616C54.6518 61.5375 54.9221 61.2872 55.2471 61.2872H56.5628C56.8717 61.2872 57.1338 61.5138 57.1785 61.8195L57.7446 65.6916C57.9233 66.9141 58.9718 67.8205 60.2073 67.8205H62.3858C63.6213 67.8205 64.6698 66.9141 64.8485 65.6916L65.5099 61.1676C65.5386 60.9714 65.6611 60.8034 65.8279 60.6961C66.8604 60.032 67.5444 58.8728 67.5444 57.5539V41.6872C67.5444 37.3058 63.9925 33.7539 59.611 33.7539H41.5666Z" fill="url(#paint1_linear_5095_50210)"/>
</g>
<path d="M35.1934 65.5231L35.8137 65.4752L35.1934 65.5231ZM43.3257 65.5231L42.7053 65.4752L43.3257 65.5231ZM46.2119 65.5231L45.5915 65.5709L46.2119 65.5231ZM54.3442 65.5231L53.7239 65.4752L54.3442 65.5231ZM57.7446 65.6916L58.3602 65.6016V65.6016L57.7446 65.6916ZM64.8485 65.6916L65.4642 65.7816L64.8485 65.6916ZM57.1785 61.8195L57.7941 61.7294L57.1785 61.8195ZM34.5395 60.675L34.8815 60.1552L34.5395 60.675ZM34.859 61.1895L34.2386 61.2374L34.859 61.1895ZM65.5099 61.1676L66.1256 61.2576L65.5099 61.1676ZM65.8279 60.6961L66.1645 61.2194L65.8279 60.6961ZM45.9294 61.8616L45.309 61.9095L45.9294 61.8616ZM33.4777 42.465C33.4777 37.9976 37.0992 34.3761 41.5666 34.3761V33.1317C36.4119 33.1317 32.2332 37.3104 32.2332 42.465H33.4777ZM33.4777 57.5539V42.465H32.2332V57.5539H33.4777ZM34.8815 60.1552C34.0346 59.598 33.4777 58.6408 33.4777 57.5539H32.2332C32.2332 59.0771 33.0156 60.4172 34.1975 61.1948L34.8815 60.1552ZM35.8137 65.4752L35.4794 61.1417L34.2386 61.2374L34.573 65.5709L35.8137 65.4752ZM37.6749 67.1982C36.6997 67.1982 35.8888 66.4475 35.8137 65.4752L34.573 65.5709C34.698 67.1915 36.0495 68.4427 37.6749 68.4427V67.1982ZM40.8442 67.1982H37.6749V68.4427H40.8442V67.1982ZM42.7053 65.4752C42.6303 66.4475 41.8194 67.1982 40.8442 67.1982V68.4427C42.4696 68.4427 43.821 67.1915 43.9461 65.5709L42.7053 65.4752ZM42.9878 61.8137L42.7053 65.4752L43.9461 65.5709L44.2286 61.9095L42.9878 61.8137ZM45.309 60.665H44.2286V61.9095H45.309V60.665ZM46.8323 65.4752L46.5498 61.8137L45.309 61.9095L45.5915 65.5709L46.8323 65.4752ZM48.6934 67.1982C47.7182 67.1982 46.9073 66.4475 46.8323 65.4752L45.5915 65.5709C45.7166 67.1915 47.068 68.4427 48.6934 68.4427V67.1982ZM51.8627 67.1982H48.6934V68.4427H51.8627V67.1982ZM53.7239 65.4752C53.6488 66.4475 52.8379 67.1982 51.8627 67.1982V68.4427C53.4881 68.4427 54.8396 67.1915 54.9646 65.5709L53.7239 65.4752ZM54.0064 61.8137L53.7239 65.4752L54.9646 65.5709L55.2471 61.9095L54.0064 61.8137ZM56.5628 60.665H55.2471V61.9095H56.5628V60.665ZM56.5628 61.9095L57.1289 65.7816L58.3602 65.6016L57.7941 61.7294L56.5628 61.9095ZM57.1289 65.7816C57.3523 67.3098 58.6629 68.4427 60.2073 68.4427V67.1982C59.2806 67.1982 58.4943 66.5185 58.3602 65.6016L57.1289 65.7816ZM60.2073 68.4427H62.3858V67.1982H60.2073V68.4427ZM62.3858 68.4427C63.9302 68.4427 65.2408 67.3098 65.4642 65.7816L64.2328 65.6016C64.0988 66.5185 63.3124 67.1982 62.3858 67.1982V68.4427ZM65.4642 65.7816L66.1256 61.2576L64.8942 61.0776L64.2328 65.6016L65.4642 65.7816ZM66.9221 57.5539C66.9221 58.6523 66.3533 59.6183 65.4913 60.1728L66.1645 61.2194C67.3675 60.4457 68.1666 59.0933 68.1666 57.5539H66.9221ZM66.9221 41.6872V57.5539H68.1666V41.6872H66.9221ZM59.611 34.3761C63.6488 34.3761 66.9221 37.6494 66.9221 41.6872H68.1666C68.1666 36.9621 64.3361 33.1317 59.611 33.1317V34.3761ZM41.5666 34.3761H59.611V33.1317H41.5666V34.3761ZM56.5628 61.9095L57.7941 61.7294C57.7048 61.1182 57.1805 60.665 56.5628 60.665V61.9095ZM34.1975 61.1948C34.2169 61.2076 34.2287 61.2212 34.2346 61.2304C34.2399 61.2387 34.2389 61.2409 34.2386 61.2374L35.4794 61.1417C35.4459 60.7082 35.1933 60.3603 34.8815 60.1552L34.1975 61.1948ZM55.2471 61.9095V60.665C54.597 60.665 54.0564 61.1655 54.0064 61.8137L55.2471 61.9095ZM66.1256 61.2576C66.1251 61.261 66.1244 61.2589 66.1296 61.2514C66.1352 61.2433 66.1463 61.2311 66.1645 61.2194L65.4913 60.1728C65.1977 60.3616 64.9529 60.6765 64.8942 61.0776L66.1256 61.2576ZM45.309 61.9095L46.5498 61.8137C46.4998 61.1655 45.9592 60.665 45.309 60.665V61.9095ZM44.2286 61.9095V60.665C43.5784 60.665 43.0378 61.1655 42.9878 61.8137L44.2286 61.9095Z" fill="#1F2024"/>
<path d="M46.7003 55.6875C46.7003 53.3679 48.5808 51.4875 50.9003 51.4875C53.2199 51.4875 55.1003 53.3679 55.1003 55.6875V56.0875C55.1003 56.8975 54.4437 57.5541 53.6337 57.5541H48.167C47.357 57.5541 46.7003 56.8975 46.7003 56.0875V55.6875Z" fill="#DE7E25" stroke="#1F2024" stroke-width="1.24444"/>
<mask id="path-11-inside-1_5095_50210" fill="white">
<path fill-rule="evenodd" clip-rule="evenodd" d="M48.167 58.1774H50.0559C51.2096 58.1774 52.1448 57.2422 52.1448 56.0885V55.6885C52.1448 53.6573 50.889 51.9195 49.1115 51.209C47.3339 51.9195 46.0781 53.6573 46.0781 55.6885V56.0885C46.0781 57.2422 47.0134 58.1774 48.167 58.1774Z"/>
</mask>
<path fill-rule="evenodd" clip-rule="evenodd" d="M48.167 58.1774H50.0559C51.2096 58.1774 52.1448 57.2422 52.1448 56.0885V55.6885C52.1448 53.6573 50.889 51.9195 49.1115 51.209C47.3339 51.9195 46.0781 53.6573 46.0781 55.6885V56.0885C46.0781 57.2422 47.0134 58.1774 48.167 58.1774Z" fill="#1F2024"/>
<path d="M49.1115 51.209L49.5733 50.0534L49.1115 49.8688L48.6496 50.0534L49.1115 51.209ZM50.0559 56.9329H48.167V59.4218H50.0559V56.9329ZM50.9003 56.0885C50.9003 56.5549 50.5223 56.9329 50.0559 56.9329V59.4218C51.8969 59.4218 53.3892 57.9295 53.3892 56.0885H50.9003ZM50.9003 55.6885V56.0885H53.3892V55.6885H50.9003ZM48.6496 52.3645C49.9706 52.8926 50.9003 54.1835 50.9003 55.6885H53.3892C53.3892 53.1312 51.8074 50.9464 49.5733 50.0534L48.6496 52.3645ZM47.3226 55.6885C47.3226 54.1835 48.2523 52.8926 49.5733 52.3645L48.6496 50.0534C46.4156 50.9464 44.8337 53.1312 44.8337 55.6885H47.3226ZM47.3226 56.0885V55.6885H44.8337V56.0885H47.3226ZM48.167 56.9329C47.7006 56.9329 47.3226 56.5549 47.3226 56.0885H44.8337C44.8337 57.9295 46.3261 59.4218 48.167 59.4218V56.9329Z" fill="#1F2024" mask="url(#path-11-inside-1_5095_50210)"/>
<path d="M31.3779 60.4316H34.8002L35.5002 67.3539L32.3113 67.4316L31.3779 60.4316Z" fill="#1F2024" fill-opacity="0.35"/>
<path d="M43.2783 61.2871H45.9228L46.545 67.3538L43.3561 67.4316L43.2783 61.2871Z" fill="#1F2024" fill-opacity="0.35"/>
<path d="M54.3223 61.2871H56.9667L57.5889 67.3538L54.4 67.4316L54.3223 61.2871Z" fill="#1F2024" fill-opacity="0.35"/>
<path d="M19.9443 46.9773L20.5924 37.0217L23.2808 30.7217L25.8111 31.8884H32.6111L36.0902 28.9328L41.5461 26.1328C49.4237 29.2163 53.9226 30.7333 62.8777 31.0328C65.7867 32.6066 66.6543 35.7097 66.8443 39.5106C67.0427 43.4773 66.2901 44.1167 64.6601 47.3661L56.8858 36.3217C54.461 35.4921 48.8838 33.8328 45.974 33.8328C43.0643 33.8328 38.1724 35.9587 36.0902 37.0217L29.3692 45.3439L30.7554 55.9995C24.6372 55.2257 21.604 52.1035 19.9443 46.9773Z" fill="#E79834"/>
<path fill-rule="evenodd" clip-rule="evenodd" d="M23.8084 32.6043C28.3604 40.8322 42.3053 37.7746 39.412 27.7509C39.3588 27.5667 39.4818 27.3655 39.6723 27.3434C43.8217 26.8623 46.4708 29.1801 48.8581 31.2689C52.1497 34.1489 54.9436 36.5935 60.4862 30.6657C60.5931 30.5514 60.7792 30.5252 60.9048 30.6187C65.2539 33.8577 66.2181 39.7612 64.9122 45.7482C60.9395 42.3182 54.9365 40.133 48.2192 40.133C45.0382 40.133 40.0383 43.0567 37.0067 44.8295C35.5066 45.7067 34.4885 46.3021 34.4112 46.1218C34.3745 46.0362 34.3397 45.9447 34.305 45.8536C34.1193 45.3654 33.9367 44.8853 33.4779 45.3441C29.4357 46.3349 30.0317 50.1494 30.6377 54.0277C30.8573 55.4334 31.0782 56.8474 31.0801 58.1385C25.0542 52.2991 21.461 43.0451 23.1856 32.6935C23.2359 32.3918 23.6603 32.3367 23.8084 32.6043Z" fill="#F2C95C"/>
<path d="M37.2111 43.2437C37.2111 40.1509 39.7183 37.6437 42.8111 37.6437H60.2333C62.6388 37.6437 64.5889 39.5938 64.5889 41.9993V45.7326C64.5889 47.4508 63.196 48.8437 61.4778 48.8437H40.3222C38.604 48.8437 37.2111 47.4508 37.2111 45.7326V43.2437Z" fill="#DE7E25" stroke="#1F2024" stroke-width="1.24444"/>
<path d="M37.2111 41.9993C37.2111 39.5938 39.1611 37.6437 41.5666 37.6437H55.8778C58.2833 37.6437 60.2333 39.5938 60.2333 41.9993V45.7326C60.2333 47.4508 58.8404 48.8437 57.1222 48.8437H40.3222C38.604 48.8437 37.2111 47.4508 37.2111 45.7326V41.9993Z" fill="#1F2024" stroke="#1F2024" stroke-width="1.24444"/>
<rect x="42.9668" y="41.5332" width="14" height="3.73333" rx="1.86667" fill="#FE204F"/>
<rect x="46.5449" y="42.7773" width="8.71111" height="1.24444" rx="0.622222" fill="white"/>
<g filter="url(#filter3_i_5095_50210)">
<circle cx="23.2338" cy="47.6215" r="5.6" fill="url(#paint2_linear_5095_50210)"/>
</g>
<circle cx="23.2338" cy="47.6215" r="5.6" stroke="#1F2024" stroke-width="1.24444"/>
<path d="M24.7891 43.8867C25.3553 44.1881 25.8394 44.6761 26.1891 45.2867" stroke="white" stroke-width="1.24444" stroke-linecap="round" stroke-linejoin="round"/>
<g filter="url(#filter4_i_5095_50210)">
<circle cx="20.122" cy="47.6201" r="3.73333" fill="url(#paint3_linear_5095_50210)"/>
</g>
<circle cx="20.122" cy="47.6201" r="3.73333" stroke="#1F2024" stroke-width="1.24444"/>
<path d="M20.2783 46.0645C20.5929 46.2319 20.8619 46.503 21.0561 46.8422" stroke="white" stroke-width="1.24444" stroke-linecap="round" stroke-linejoin="round"/>
<path d="M32.8555 42V43.5556" stroke="#1F2024" stroke-width="1.24444" stroke-linecap="round"/>
<path d="M32.8555 45.4219V47.133" stroke="#1F2024" stroke-width="1.24444" stroke-linecap="round"/>
<path d="M32.8555 39.666V39.8216" stroke="#1F2024" stroke-width="1.24444" stroke-linecap="round"/>
<defs>
<filter id="filter0_i_5095_50210" x="17.2061" y="15.6348" width="50.96" height="49.8535" filterUnits="userSpaceOnUse" color-interpolation-filters="sRGB">
<feFlood flood-opacity="0" result="BackgroundImageFix"/>
<feBlend mode="normal" in="SourceGraphic" in2="BackgroundImageFix" result="shape"/>
<feColorMatrix in="SourceAlpha" type="matrix" values="0 0 0 0 0 0 0 0 0 0 0 0 0 0 0 0 0 0 127 0" result="hardAlpha"/>
<feOffset dx="2.64444" dy="-1.86667"/>
<feComposite in2="hardAlpha" operator="arithmetic" k2="-1" k3="1"/>
<feColorMatrix type="matrix" values="0 0 0 0 0 0 0 0 0 0 0 0 0 0 0 0 0 0 0.25 0"/>
<feBlend mode="normal" in2="shape" result="effect1_innerShadow_5095_50210"/>
</filter>
<filter id="filter1_ii_5095_50210" x="20.4111" y="33.2871" width="44.333" height="35.1562" filterUnits="userSpaceOnUse" color-interpolation-filters="sRGB">
<feFlood flood-opacity="0" result="BackgroundImageFix"/>
<feBlend mode="normal" in="SourceGraphic" in2="BackgroundImageFix" result="shape"/>
<feColorMatrix in="SourceAlpha" type="matrix" values="0 0 0 0 0 0 0 0 0 0 0 0 0 0 0 0 0 0 127 0" result="hardAlpha"/>
<feOffset dy="-2.48889"/>
<feComposite in2="hardAlpha" operator="arithmetic" k2="-1" k3="1"/>
<feColorMatrix type="matrix" values="0 0 0 0 0 0 0 0 0 0 0 0 0 0 0 0 0 0 0.3 0"/>
<feBlend mode="normal" in2="shape" result="effect1_innerShadow_5095_50210"/>
<feColorMatrix in="SourceAlpha" type="matrix" values="0 0 0 0 0 0 0 0 0 0 0 0 0 0 0 0 0 0 127 0" result="hardAlpha"/>
<feOffset dy="2.48889"/>
<feComposite in2="hardAlpha" operator="arithmetic" k2="-1" k3="1"/>
<feColorMatrix type="matrix" values="0 0 0 0 1 0 0 0 0 1 0 0 0 0 1 0 0 0 0.75 0"/>
<feBlend mode="normal" in2="effect1_innerShadow_5095_50210" result="effect2_innerShadow_5095_50210"/>
</filter>
<filter id="filter2_i_5095_50210" x="32.2334" y="33.1309" width="35.9336" height="35.3125" filterUnits="userSpaceOnUse" color-interpolation-filters="sRGB">
<feFlood flood-opacity="0" result="BackgroundImageFix"/>
<feBlend mode="normal" in="SourceGraphic" in2="BackgroundImageFix" result="shape"/>
<feColorMatrix in="SourceAlpha" type="matrix" values="0 0 0 0 0 0 0 0 0 0 0 0 0 0 0 0 0 0 127 0" result="hardAlpha"/>
<feOffset dx="1.86667" dy="-1.24444"/>
<feComposite in2="hardAlpha" operator="arithmetic" k2="-1" k3="1"/>
<feColorMatrix type="matrix" values="0 0 0 0 0 0 0 0 0 0 0 0 0 0 0 0 0 0 0.25 0"/>
<feBlend mode="normal" in2="shape" result="effect1_innerShadow_5095_50210"/>
</filter>
<filter id="filter3_i_5095_50210" x="17.0117" y="41.3984" width="12.4443" height="12.4453" filterUnits="userSpaceOnUse" color-interpolation-filters="sRGB">
<feFlood flood-opacity="0" result="BackgroundImageFix"/>
<feBlend mode="normal" in="SourceGraphic" in2="BackgroundImageFix" result="shape"/>
<feColorMatrix in="SourceAlpha" type="matrix" values="0 0 0 0 0 0 0 0 0 0 0 0 0 0 0 0 0 0 127 0" result="hardAlpha"/>
<feOffset dx="1.86667" dy="-2.48889"/>
<feComposite in2="hardAlpha" operator="arithmetic" k2="-1" k3="1"/>
<feColorMatrix type="matrix" values="0 0 0 0 0 0 0 0 0 0 0 0 0 0 0 0 0 0 0.25 0"/>
<feBlend mode="normal" in2="shape" result="effect1_innerShadow_5095_50210"/>
</filter>
<filter id="filter4_i_5095_50210" x="15.7666" y="43.2637" width="8.71094" height="8.71289" filterUnits="userSpaceOnUse" color-interpolation-filters="sRGB">
<feFlood flood-opacity="0" result="BackgroundImageFix"/>
<feBlend mode="normal" in="SourceGraphic" in2="BackgroundImageFix" result="shape"/>
<feColorMatrix in="SourceAlpha" type="matrix" values="0 0 0 0 0 0 0 0 0 0 0 0 0 0 0 0 0 0 127 0" result="hardAlpha"/>
<feOffset dx="12" dy="-8"/>
<feComposite in2="hardAlpha" operator="arithmetic" k2="-1" k3="1"/>
<feColorMatrix type="matrix" values="0 0 0 0 0 0 0 0 0 0 0 0 0 0 0 0 0 0 0.25 0"/>
<feBlend mode="normal" in2="shape" result="effect1_innerShadow_5095_50210"/>
</filter>
<linearGradient id="paint0_linear_5095_50210" x1="42.5778" y1="33.9102" x2="42.5778" y2="67.8215" gradientUnits="userSpaceOnUse">
<stop offset="0.533915" stop-color="#F2C95C"/>
<stop offset="1" stop-color="#C1C1C1"/>
</linearGradient>
<linearGradient id="paint1_linear_5095_50210" x1="50.1999" y1="33.7539" x2="50.1999" y2="67.8206" gradientUnits="userSpaceOnUse">
<stop offset="0.336366" stop-color="#F2C95C"/>
<stop offset="0.710881" stop-color="#E3E3E3"/>
</linearGradient>
<linearGradient id="paint2_linear_5095_50210" x1="23.2338" y1="42.0215" x2="23.2338" y2="53.2215" gradientUnits="userSpaceOnUse">
<stop offset="0.336366" stop-color="#F2C95C"/>
<stop offset="0.710881" stop-color="#E3E3E3"/>
</linearGradient>
<linearGradient id="paint3_linear_5095_50210" x1="20.122" y1="43.8867" x2="20.122" y2="51.3534" gradientUnits="userSpaceOnUse">
<stop offset="0.336366" stop-color="#F2C95C"/>
<stop offset="0.710881" stop-color="#E3E3E3"/>
</linearGradient>
</defs>
</svg>
