<svg width="24" height="25" viewBox="0 0 24 25" fill="none" xmlns="http://www.w3.org/2000/svg">
<path opacity="0.3" d="M2.09991 10.0137C2.99991 5.61367 6.69989 2.31367 11.1999 2.01367L8.7999 4.41367L11.0999 7.01367C9.59991 7.31367 8.29991 8.21366 7.59991 9.61366L4.49991 12.4137L2.09991 10.0137ZM19.2999 11.5137L16.3999 14.0137C15.6999 15.5137 14.3999 16.6137 12.6999 16.9137L14.9999 19.5137L12.5999 21.9137C17.0999 21.6137 20.7999 18.2137 21.6999 13.9137L19.2999 11.5137Z" fill="white"/>
<path d="M13.8 2.11328C18.2 3.01328 21.5 6.71329 21.8 11.2133L19.4 8.81328L16.8 11.0133C16.5 9.41329 15.5 8.11328 14 7.41328L11.4 4.41328L13.8 2.11328ZM12.3 19.4133L9.69998 16.4133C8.29998 15.7133 7.3 14.4133 7 12.8133L4.39999 15.1133L2 12.7133C2.3 17.2133 5.7 20.9133 10 21.8133L12.3 19.4133Z" fill="white"/>
</svg>
