<svg width="24" height="25" viewBox="0 0 24 25" fill="none" xmlns="http://www.w3.org/2000/svg">
<path opacity="0.4" d="M10.0833 15.9712H3.50777C2.67555 15.9712 2 16.6349 2 17.4525C2 18.269 2.67555 18.9338 3.50777 18.9338H10.0833C10.9155 18.9338 11.5911 18.269 11.5911 17.4525C11.5911 16.6349 10.9155 15.9712 10.0833 15.9712Z" fill="white"/>
<path opacity="0.4" d="M22 6.39186C22 5.57533 21.3244 4.91162 20.4933 4.91162H13.9178C13.0856 4.91162 12.41 5.57533 12.41 6.39186C12.41 7.20948 13.0856 7.87318 13.9178 7.87318H20.4933C21.3244 7.87318 22 7.20948 22 6.39186Z" fill="white"/>
<path d="M8.87774 6.39174C8.87774 8.25841 7.33886 9.7714 5.43887 9.7714C3.53999 9.7714 2 8.25841 2 6.39174C2 4.52617 3.53999 3.01318 5.43887 3.01318C7.33886 3.01318 8.87774 4.52617 8.87774 6.39174Z" fill="white"/>
<path d="M22 17.4124C22 19.2779 20.4611 20.7909 18.5611 20.7909C16.6622 20.7909 15.1223 19.2779 15.1223 17.4124C15.1223 15.5457 16.6622 14.0327 18.5611 14.0327C20.4611 14.0327 22 15.5457 22 17.4124Z" fill="white"/>
</svg>
