<svg width="29" height="28" viewBox="0 0 29 28" fill="none" xmlns="http://www.w3.org/2000/svg">
<rect x="1" y="1" width="27" height="26" rx="13" fill="#292929"/>
<path d="M23 14H21.3M20.5103 19.6569L19.3082 18.5255M7.7 14H6M9.69149 9.47454L8.4894 8.34316M14.5 7.6V6M19.3082 9.47454L20.5103 8.34316M14.5 22V20.4M8.4894 19.6569L9.69149 18.5255M14.5 10L15.8133 12.504L18.75 12.908L16.625 14.856L17.1265 17.608L14.5 16.308L11.8735 17.608L12.375 14.856L10.25 12.908L13.1868 12.504L14.5 10Z" stroke="#FFD433" stroke-linecap="round" stroke-linejoin="round"/>
<rect x="1" y="1" width="27" height="26" rx="13" stroke="#FFD433" stroke-width="2"/>
</svg>
