<svg width="18" height="18" viewBox="0 0 18 18" fill="none" xmlns="http://www.w3.org/2000/svg">
<path fill-rule="evenodd" clip-rule="evenodd" d="M4.24003 17.8359C4.58843 17.9428 4.97135 17.9989 5.35976 18C5.70357 17.9984 6.04284 17.951 6.35478 17.8609C6.66671 17.7709 6.94407 17.6403 7.16824 17.478L17.3783 10.322C17.6408 10.1379 17.8284 9.9171 17.9251 9.67834C18.0218 9.43958 18.0249 9.18984 17.934 8.95019C17.8432 8.71054 17.661 8.48802 17.403 8.30141C17.145 8.1148 16.8186 7.96958 16.4515 7.878L12.9293 7L15.0574 1.929C15.1588 1.70573 15.1748 1.4708 15.1043 1.24298C15.0337 1.01517 14.8785 0.800791 14.6511 0.617C14.4133 0.426001 14.1088 0.271192 13.7607 0.164296C13.4126 0.0573987 13.03 0.00121553 12.6418 0C12.298 0.00162202 11.9588 0.0490446 11.6468 0.139081C11.3349 0.229117 11.0575 0.359682 10.8334 0.522L0.621747 7.674C0.35918 7.85814 0.171615 8.0789 0.0748832 8.31766C-0.0218487 8.55642 -0.0249085 8.80616 0.0659622 9.04581C0.156833 9.28546 0.338967 9.50798 0.596991 9.69459C0.855015 9.8812 1.18136 10.0264 1.54847 10.118L5.07066 11L2.94257 16.071C2.84109 16.2943 2.82498 16.5292 2.89554 16.757C2.96611 16.9849 3.12137 17.1992 3.34892 17.383C3.58688 17.5741 3.89162 17.729 4.24003 17.8359Z" fill="#27AE60"/>
</svg>
