<svg width="18" height="16" viewBox="0 0 18 16" fill="none" xmlns="http://www.w3.org/2000/svg">
<path d="M8.99787 16C8.35762 15.943 7.74811 15.6997 7.2447 15.3C6.57882 14.831 5.94808 14.3139 5.35752 13.753C4.23341 12.711 2.89728 11.31 1.38213 9.58702C0.452241 8.49739 -0.0394736 7.10108 0.00247935 5.66928C0.0444323 4.23747 0.617059 2.87235 1.60915 1.83902C2.55098 0.83427 3.84261 0.229379 5.21749 0.149179C6.59238 0.0689788 7.94559 0.51959 8.99787 1.40802C10.0503 0.519657 11.4034 0.0687446 12.7784 0.148185C14.1534 0.227625 15.4455 0.831367 16.3886 1.83502C17.3821 2.86863 17.9556 4.23477 17.9975 5.66774C18.0395 7.10071 17.5469 8.49806 16.6156 9.58802C15.1015 11.31 13.7643 12.712 12.6402 13.754C12.0499 14.3139 11.4195 14.8299 10.754 15.298C10.25 15.6989 9.63938 15.943 8.99787 16ZM5.53153 1.73902C4.99948 1.73903 4.47303 1.84768 3.98446 2.05833C3.49589 2.26897 3.05549 2.57717 2.69026 2.96402C1.97714 3.70068 1.56353 4.67623 1.52989 5.70092C1.49625 6.72561 1.84498 7.72618 2.50824 8.50802C3.98939 10.193 5.28951 11.556 6.37262 12.558C6.90456 13.0654 7.47278 13.5333 8.07278 13.958C8.34368 14.1741 8.65992 14.3263 8.99787 14.403C9.33556 14.3258 9.65144 14.1734 9.92196 13.957C10.522 13.5323 11.0902 13.0644 11.6221 12.557C12.7052 11.557 14.0054 10.192 15.4865 8.50702C16.1496 7.72508 16.4981 6.72455 16.4645 5.69993C16.4309 4.67531 16.0174 3.69979 15.3045 2.96302C14.6221 2.23554 13.6864 1.79779 12.6906 1.7401C11.6948 1.68242 10.7148 2.00921 9.95296 2.65302L8.99787 3.45402L8.04078 2.65402C7.3373 2.06534 6.44986 1.7416 5.53253 1.73902H5.53153Z" fill="#79CA9C"/>
</svg>
