<svg width="18" height="18" viewBox="0 0 18 18" fill="none" xmlns="http://www.w3.org/2000/svg">
<path opacity="0.6" d="M9 18C8.58729 17.9994 8.18129 17.9028 7.8188 17.719L0.862634 14.188C0.601684 14.0561 0.383799 13.8611 0.231971 13.6235C0.0801424 13.3859 0 13.1145 0 12.838C0 12.5615 0.0801424 12.2901 0.231971 12.0525C0.383799 11.8149 0.601684 11.6199 0.862634 11.488L1.98799 10.916L0.862634 10.348C0.601684 10.2161 0.383799 10.0211 0.231971 9.78348C0.0801424 9.54587 0 9.2745 0 8.99801C0 8.72151 0.0801424 8.45015 0.231971 8.21254C0.383799 7.97493 0.601684 7.77989 0.862634 7.64801L1.98799 7.08001L0.862634 6.50901C0.601684 6.37712 0.383799 6.18209 0.231971 5.94448C0.0801424 5.70687 0 5.4355 0 5.15901C0 4.88251 0.0801424 4.61115 0.231971 4.37354C0.383799 4.13593 0.601684 3.9409 0.862634 3.80901L7.81558 0.282009C8.17893 0.0969763 8.58641 0 9.00054 0C9.41466 0 9.82214 0.0969763 10.1855 0.282009L17.1374 3.81301C17.3983 3.9449 17.6162 4.13993 17.768 4.37754C17.9199 4.61515 18 4.88652 18 5.16301C18 5.4395 17.9199 5.71087 17.768 5.94848C17.6162 6.18609 17.3983 6.38112 17.1374 6.51301L16.0131 7.08401L17.1374 7.65601C17.3983 7.7879 17.6162 7.98293 17.768 8.22054C17.9199 8.45815 18 8.72951 18 9.00601C18 9.2825 17.9199 9.55387 17.768 9.79148C17.6162 10.0291 17.3983 10.2241 17.1374 10.356L16.0131 10.927L17.1374 11.499C17.3983 11.6309 17.6162 11.8259 17.768 12.0635C17.9199 12.3011 18 12.5725 18 12.849C18 13.1255 17.9199 13.3969 17.768 13.6345C17.6162 13.8721 17.3983 14.0671 17.1374 14.199L10.1844 17.718C9.82101 17.9024 9.41387 17.9994 9 18ZM3.70932 11.794L1.65189 12.839L8.60484 16.371C8.72587 16.4325 8.86156 16.4648 8.99946 16.4648C9.13736 16.4648 9.27305 16.4325 9.39409 16.371L16.3481 12.839L14.2853 11.794L10.1844 13.88C9.82107 14.065 9.41359 14.162 8.99946 14.162C8.58534 14.162 8.17786 14.065 7.81451 13.88L3.70932 11.794ZM3.70932 7.95601L1.65189 9.00001L8.60484 12.532C8.72587 12.5935 8.86156 12.6258 8.99946 12.6258C9.13736 12.6258 9.27305 12.5935 9.39409 12.532L16.3481 9.00001L14.2853 7.95501L10.1844 10.04C9.82107 10.225 9.41359 10.322 8.99946 10.322C8.58534 10.322 8.17786 10.225 7.81451 10.04L3.70932 7.95601ZM9 1.53601C8.86192 1.53616 8.72608 1.56848 8.60484 1.63001L1.65189 5.16101L8.60484 8.69301C8.72587 8.75454 8.86156 8.78678 8.99946 8.78678C9.13736 8.78678 9.27305 8.75454 9.39409 8.69301L16.3481 5.16101L9.39409 1.62901C9.27323 1.56748 9.13774 1.53516 9 1.53501V1.53601Z" fill="#79CA9C"/>
</svg>
