<svg width="18" height="18" viewBox="0 0 18 18" fill="none" xmlns="http://www.w3.org/2000/svg">
<path d="M16.5001 7.25249C16.4527 7.1153 16.3666 6.99481 16.2521 6.90561C16.1376 6.81642 15.9997 6.76236 15.8551 6.74999L11.5876 6.12749L9.6751 2.24999C9.61369 2.12318 9.5178 2.01624 9.39842 1.94142C9.27904 1.86659 9.141 1.8269 9.0001 1.8269C8.85921 1.8269 8.72117 1.86659 8.60179 1.94142C8.48241 2.01624 8.38652 2.12318 8.32511 2.24999L6.41261 6.11999L2.14511 6.74999C2.0063 6.76972 1.8758 6.82796 1.76842 6.91811C1.66104 7.00825 1.58108 7.12669 1.53761 7.25999C1.49781 7.39024 1.49424 7.52887 1.52728 7.66101C1.56031 7.79314 1.6287 7.91378 1.72511 8.00999L4.82261 11.01L4.07261 15.27C4.04583 15.4106 4.05985 15.5559 4.11301 15.6888C4.16617 15.8217 4.25625 15.9366 4.37261 16.02C4.48602 16.1011 4.61979 16.1489 4.75889 16.1582C4.898 16.1675 5.03693 16.1378 5.16011 16.0725L9.0001 14.07L12.8251 16.08C12.9304 16.1394 13.0492 16.1704 13.1701 16.17C13.329 16.1706 13.4839 16.1207 13.6126 16.0275C13.729 15.9441 13.819 15.8292 13.8722 15.6963C13.9254 15.5634 13.9394 15.4181 13.9126 15.2775L13.1626 11.0175L16.2601 8.01749C16.3684 7.92575 16.4484 7.80516 16.4909 7.66975C16.5334 7.53433 16.5366 7.38964 16.5001 7.25249ZM11.8876 10.2525C11.7996 10.3376 11.7338 10.4429 11.6959 10.5592C11.658 10.6756 11.6492 10.7994 11.6701 10.92L12.2101 14.0625L9.39011 12.5625C9.28159 12.5047 9.16054 12.4745 9.03761 12.4745C8.91467 12.4745 8.79362 12.5047 8.6851 12.5625L5.86511 14.0625L6.40511 10.92C6.42606 10.7994 6.41719 10.6756 6.37928 10.5592C6.34137 10.4429 6.27556 10.3376 6.18761 10.2525L3.93761 8.00249L7.09511 7.54499C7.2166 7.52809 7.3321 7.48164 7.43148 7.40973C7.53086 7.33781 7.61107 7.24262 7.6651 7.13249L9.0001 4.27499L10.4101 7.13999C10.4641 7.25012 10.5444 7.34531 10.6437 7.41723C10.7431 7.48914 10.8586 7.53559 10.9801 7.55249L14.1376 8.00999L11.8876 10.2525Z" fill="#79CA9C"/>
</svg>
