<svg width="18" height="18" viewBox="0 0 18 18" fill="none" xmlns="http://www.w3.org/2000/svg">
<path d="M7.5 8.65104C8.42515 8.11632 9.57476 8.11632 10.4999 8.65104M6.62132 6.87868C7.79289 8.05025 7.79289 9.94974 6.62132 11.1213C5.44975 12.2929 3.55026 12.2929 2.37868 11.1213C1.20711 9.94975 1.20711 8.05026 2.37868 6.87868C3.55025 5.70711 5.44974 5.70711 6.62132 6.87868ZM15.6213 6.87868C16.7929 8.05025 16.7929 9.94974 15.6213 11.1213C14.4498 12.2929 12.5503 12.2929 11.3787 11.1213C10.2071 9.94975 10.2071 8.05026 11.3787 6.87868C12.5502 5.70711 14.4497 5.70711 15.6213 6.87868Z" stroke="#79CA9C" stroke-width="2" stroke-linecap="round" stroke-linejoin="round"/>
</svg>
